<svg class="marks" width="254" height="247" viewBox="0 0 254 247" version="1.1" xmlns="http://www.w3.org/2000/svg" xmlns:xlink="http://www.w3.org/1999/xlink"><g transform="translate(48,10)"><g class="mark-group role-frame root"><g transform="translate(0,0)"><path class="background" d="M0.5,0.5h200v200h-200Z" style="fill: none; stroke: #ddd;"></path><g><g class="mark-group role-axis"><g transform="translate(0.5,200.5)"><path class="background" d="M0,0h0v0h0Z" style="pointer-events: none; fill: none;"></path><g><g class="mark-rule role-axis-grid" style="pointer-events: none;"><line transform="translate(22,-200)" x2="0" y2="200" style="fill: none; stroke: #ddd; stroke-width: 1; opacity: 1;"></line><line transform="translate(67,-200)" x2="0" y2="200" style="fill: none; stroke: #ddd; stroke-width: 1; opacity: 1;"></line><line transform="translate(111,-200)" x2="0" y2="200" style="fill: none; stroke: #ddd; stroke-width: 1; opacity: 1;"></line><line transform="translate(156,-200)" x2="0" y2="200" style="fill: none; stroke: #ddd; stroke-width: 1; opacity: 1;"></line><line transform="translate(200,-200)" x2="0" y2="200" style="fill: none; stroke: #ddd; stroke-width: 1; opacity: 1;"></line></g></g></g></g><g class="mark-group role-axis"><g transform="translate(0.5,0.5)"><path class="background" d="M0,0h0v0h0Z" style="pointer-events: none; fill: none;"></path><g><g class="mark-rule role-axis-grid" style="pointer-events: none;"><line transform="translate(0,200)" x2="200" y2="0" style="fill: none; stroke: #ddd; stroke-width: 1; opacity: 1;"></line><line transform="translate(0,171)" x2="200" y2="0" style="fill: none; stroke: #ddd; stroke-width: 1; opacity: 1;"></line><line transform="translate(0,143)" x2="200" y2="0" style="fill: none; stroke: #ddd; stroke-width: 1; opacity: 1;"></line><line transform="translate(0,114)" x2="200" y2="0" style="fill: none; stroke: #ddd; stroke-width: 1; opacity: 1;"></line><line transform="translate(0,86)" x2="200" y2="0" style="fill: none; stroke: #ddd; stroke-width: 1; opacity: 1;"></line><line transform="translate(0,57)" x2="200" y2="0" style="fill: none; stroke: #ddd; stroke-width: 1; opacity: 1;"></line><line transform="translate(0,29)" x2="200" y2="0" style="fill: none; stroke: #ddd; stroke-width: 1; opacity: 1;"></line><line transform="translate(0,0)" x2="200" y2="0" style="fill: none; stroke: #ddd; stroke-width: 1; opacity: 1;"></line></g></g></g></g><g class="mark-group role-axis"><g transform="translate(0.5,200.5)"><path class="background" d="M0,0h0v0h0Z" style="pointer-events: none; fill: none;"></path><g><g class="mark-rule role-axis-tick" style="pointer-events: none;"><line transform="translate(22,0)" x2="0" y2="5" style="fill: none; stroke: #888; stroke-width: 1; opacity: 1;"></line><line transform="translate(67,0)" x2="0" y2="5" style="fill: none; stroke: #888; stroke-width: 1; opacity: 1;"></line><line transform="translate(111,0)" x2="0" y2="5" style="fill: none; stroke: #888; stroke-width: 1; opacity: 1;"></line><line transform="translate(156,0)" x2="0" y2="5" style="fill: none; stroke: #888; stroke-width: 1; opacity: 1;"></line><line transform="translate(200,0)" x2="0" y2="5" style="fill: none; stroke: #888; stroke-width: 1; opacity: 1;"></line></g><g class="mark-text role-axis-label" style="pointer-events: none;"><text text-anchor="middle" transform="translate(22.22222222222222,15)" style="font-family: sans-serif; font-size: 10px; fill: #000; opacity: 1;">2</text><text text-anchor="middle" transform="translate(66.66666666666666,15)" style="font-family: sans-serif; font-size: 10px; fill: #000; opacity: 1;">4</text><text text-anchor="middle" transform="translate(111.11111111111111,15)" style="font-family: sans-serif; font-size: 10px; fill: #000; opacity: 1;">6</text><text text-anchor="middle" transform="translate(155.55555555555557,15)" style="font-family: sans-serif; font-size: 10px; fill: #000; opacity: 1;">8</text><text text-anchor="end" transform="translate(200,15)" style="font-family: sans-serif; font-size: 10px; fill: #000; opacity: 1;">10</text></g><g class="mark-rule role-axis-domain" style="pointer-events: none;"><line transform="translate(0,0)" x2="200" y2="0" style="fill: none; stroke: #888; stroke-width: 1; opacity: 1;"></line></g><g class="mark-text role-axis-title" style="pointer-events: none;"><text text-anchor="middle" transform="translate(100,30)" style="font-family: sans-serif; font-size: 11px; font-weight: bold; fill: #000; opacity: 1;">value</text></g></g></g></g><g class="mark-group role-axis"><g transform="translate(0.5,0.5)"><path class="background" d="M0,0h0v0h0Z" style="pointer-events: none; fill: none;"></path><g><g class="mark-rule role-axis-tick" style="pointer-events: none;"><line transform="translate(0,200)" x2="-5" y2="0" style="fill: none; stroke: #888; stroke-width: 1; opacity: 1;"></line><line transform="translate(0,171)" x2="-5" y2="0" style="fill: none; stroke: #888; stroke-width: 1; opacity: 1;"></line><line transform="translate(0,143)" x2="-5" y2="0" style="fill: none; stroke: #888; stroke-width: 1; opacity: 1;"></line><line transform="translate(0,114)" x2="-5" y2="0" style="fill: none; stroke: #888; stroke-width: 1; opacity: 1;"></line><line transform="translate(0,86)" x2="-5" y2="0" style="fill: none; stroke: #888; stroke-width: 1; opacity: 1;"></line><line transform="translate(0,57)" x2="-5" y2="0" style="fill: none; stroke: #888; stroke-width: 1; opacity: 1;"></line><line transform="translate(0,29)" x2="-5" y2="0" style="fill: none; stroke: #888; stroke-width: 1; opacity: 1;"></line><line transform="translate(0,0)" x2="-5" y2="0" style="fill: none; stroke: #888; stroke-width: 1; opacity: 1;"></line></g><g class="mark-text role-axis-label" style="pointer-events: none;"><text text-anchor="end" transform="translate(-7,203)" style="font-family: sans-serif; font-size: 10px; fill: #000; opacity: 1;">0.00</text><text text-anchor="end" transform="translate(-7,174.42857142857142)" style="font-family: sans-serif; font-size: 10px; fill: #000; opacity: 1;">0.05</text><text text-anchor="end" transform="translate(-7,145.85714285714283)" style="font-family: sans-serif; font-size: 10px; fill: #000; opacity: 1;">0.10</text><text text-anchor="end" transform="translate(-7,117.28571428571428)" style="font-family: sans-serif; font-size: 10px; fill: #000; opacity: 1;">0.15</text><text text-anchor="end" transform="translate(-7,88.7142857142857)" style="font-family: sans-serif; font-size: 10px; fill: #000; opacity: 1;">0.20</text><text text-anchor="end" transform="translate(-7,60.14285714285714)" style="font-family: sans-serif; font-size: 10px; fill: #000; opacity: 1;">0.25</text><text text-anchor="end" transform="translate(-7,31.571428571428555)" style="font-family: sans-serif; font-size: 10px; fill: #000; opacity: 1;">0.30</text><text text-anchor="end" transform="translate(-7,3)" style="font-family: sans-serif; font-size: 10px; fill: #000; opacity: 1;">0.35</text></g><g class="mark-rule role-axis-domain" style="pointer-events: none;"><line transform="translate(0,200)" x2="0" y2="-200" style="fill: none; stroke: #888; stroke-width: 1; opacity: 1;"></line></g><g class="mark-text role-axis-title" style="pointer-events: none;"><text text-anchor="middle" transform="translate(-32,100) rotate(-90) translate(0,-2)" style="font-family: sans-serif; font-size: 11px; font-weight: bold; fill: #000; opacity: 1;">density</text></g></g></g></g><g class="mark-area role-mark marks"><path d="M8.888888888888886,198.91336652619879L15.822222222222216,197.88744160629577L19.288888888888884,197.04587566234906L22.755555555555556,195.84557308993885L29.688888888888886,193.08769511154398L36.62222222222222,191.2823068699668L40.08888888888889,190.35716196757065L41.822222222222216,189.6654657533693L43.55555555555555,188.753220993259L45.288888888888884,187.61646656233322L47.02222222222222,186.3013814340345L50.48888888888887,183.52224841316234L52.222222222222214,182.27617993435942L53.95555555555555,181.22311596020327L57.42222222222222,179.63604740742434L60.88888888888887,178.12138966291369L62.62222222222221,177.08051486611643L64.35555555555554,175.70149448699038L65.22222222222221,174.8576028266696L66.08888888888887,173.8986777832403L66.95555555555556,172.8171304367056L67.82222222222222,171.60657655658176L69.55555555555554,168.77983365473693L71.28888888888886,165.39914100126398L72.15555555555555,163.50485894722698L73.02222222222221,161.4823339757777L74.75555555555553,157.09493709209997L76.48888888888888,152.35220977914295L78.22222222222221,147.40645305941257L81.68888888888888,137.5204152769537L85.15555555555552,128.17427626084879L88.62222222222222,118.9357027568399L90.35555555555554,114.00085617345108L92.08888888888887,108.69511507864175L92.95555555555555,105.88840647114252L93.82222222222221,102.98148110007315L95.55555555555553,96.90203737097632L99.02222222222221,84.09429771445262L102.48888888888888,71.31076780749547L104.22222222222221,65.20430815653125L105.95555555555553,59.3957923646887L107.68888888888885,53.956701019901885L109.4222222222222,48.95817373447676L110.28888888888888,46.64477031455155L111.15555555555554,44.46402823987174L112.88888888888886,40.51441428576666L114.62222222222218,37.11005545079783L115.48888888888887,35.60066666660043L116.35555555555553,34.20933763531201L118.08888888888886,31.74543651152328L118.95555555555555,30.65771751157439L119.82222222222221,29.660239861571768L121.55555555555553,27.94156644451556L123.28888888888886,26.646167033301964L124.15555555555555,26.193485477893063L125.02222222222221,25.896126958303057L126.75555555555553,25.848349610571972L128.48888888888885,26.649444918630763L130.2222222222222,28.39471587123785L131.08888888888887,29.63138022170955L131.95555555555555,31.106747241937228L133.68888888888887,34.7386243080515L135.4222222222222,39.19533185309953L136.28888888888886,41.696857970490555L137.1555555555555,44.36064812312867L138.88888888888886,50.118276372039304L139.75555555555553,53.1856941877939L140.6222222222222,56.36267131490621L142.35555555555553,63.002015650117926L144.08888888888887,69.95890969702177L145.8222222222222,77.17255907338097L147.55555555555554,84.60180581930472L149.28888888888883,92.22486689236318L151.02222222222218,100.03176094196948L154.48888888888885,116.12257851026379L157.95555555555555,132.44368368864812L159.68888888888887,140.41135197077713L161.4222222222222,148.0622082027632L163.1555555555555,155.26261431048124L164.88888888888883,161.9051130572858L166.62222222222215,167.91823313264885L167.48888888888885,170.67715817427768L168.35555555555553,173.26953927463842L170.0888888888889,177.96276313395984L171.82222222222222,182.0302171813884L173.55555555555554,185.5221762160395L175.28888888888886,188.49570695493009L177.02222222222218,191.00580435695835L177.88888888888889,192.10247762249926L178.75555555555553,193.10088726200115L180.48888888888888,194.82284732826832L182.2222222222222,196.20997592909347L182.2222222222222,200L180.48888888888888,200L178.75555555555553,200L177.88888888888889,200L177.02222222222218,200L175.28888888888886,200L173.55555555555554,200L171.82222222222222,200L170.0888888888889,200L168.35555555555553,200L167.48888888888885,200L166.62222222222215,200L164.88888888888883,200L163.1555555555555,200L161.4222222222222,200L159.68888888888887,200L157.95555555555555,200L154.48888888888885,200L151.02222222222218,200L149.28888888888883,200L147.55555555555554,200L145.8222222222222,200L144.08888888888887,200L142.35555555555553,200L140.6222222222222,200L139.75555555555553,200L138.88888888888886,200L137.1555555555555,200L136.28888888888886,200L135.4222222222222,200L133.68888888888887,200L131.95555555555555,200L131.08888888888887,200L130.2222222222222,200L128.48888888888885,200L126.75555555555553,200L125.02222222222221,200L124.15555555555555,200L123.28888888888886,200L121.55555555555553,200L119.82222222222221,200L118.95555555555555,200L118.08888888888886,200L116.35555555555553,200L115.48888888888887,200L114.62222222222218,200L112.88888888888886,200L111.15555555555554,200L110.28888888888888,200L109.4222222222222,200L107.68888888888885,200L105.95555555555553,200L104.22222222222221,200L102.48888888888888,200L99.02222222222221,200L95.55555555555553,200L93.82222222222221,200L92.95555555555555,200L92.08888888888887,200L90.35555555555554,200L88.62222222222222,200L85.15555555555552,200L81.68888888888888,200L78.22222222222221,200L76.48888888888888,200L74.75555555555553,200L73.02222222222221,200L72.15555555555555,200L71.28888888888886,200L69.55555555555554,200L67.82222222222222,200L66.95555555555556,200L66.08888888888887,200L65.22222222222221,200L64.35555555555554,200L62.62222222222221,200L60.88888888888887,200L57.42222222222222,200L53.95555555555555,200L52.222222222222214,200L50.48888888888887,200L47.02222222222222,200L45.288888888888884,200L43.55555555555555,200L41.822222222222216,200L40.08888888888889,200L36.62222222222222,200L29.688888888888886,200L22.755555555555556,200L19.288888888888884,200L15.822222222222216,200L8.888888888888886,200Z" style="fill: #4c78a8;"></path></g></g></g></g></g></svg>