<svg class="marks" width="599" height="198" viewBox="0 0 599 198" version="1.1" xmlns="http://www.w3.org/2000/svg" xmlns:xlink="http://www.w3.org/1999/xlink"><g transform="translate(54,10)"><g class="mark-group role-frame root"><g transform="translate(0,0)"><path class="background" d="M0.5,0.5h400v100h-400Z" style="fill: none; stroke: #ddd;"></path><g><g class="mark-group role-axis"><g transform="translate(0.5,100.5)"><path class="background" d="M0,0h0v0h0Z" style="pointer-events: none; fill: none;"></path><g><g class="mark-rule role-axis-grid" style="pointer-events: none;"><line transform="translate(0,-100)" x2="0" y2="100" style="fill: none; stroke: #ddd; stroke-width: 1; opacity: 1;"></line><line transform="translate(40,-100)" x2="0" y2="100" style="fill: none; stroke: #ddd; stroke-width: 1; opacity: 1;"></line><line transform="translate(80,-100)" x2="0" y2="100" style="fill: none; stroke: #ddd; stroke-width: 1; opacity: 1;"></line><line transform="translate(120,-100)" x2="0" y2="100" style="fill: none; stroke: #ddd; stroke-width: 1; opacity: 1;"></line><line transform="translate(160,-100)" x2="0" y2="100" style="fill: none; stroke: #ddd; stroke-width: 1; opacity: 1;"></line><line transform="translate(200,-100)" x2="0" y2="100" style="fill: none; stroke: #ddd; stroke-width: 1; opacity: 1;"></line><line transform="translate(240,-100)" x2="0" y2="100" style="fill: none; stroke: #ddd; stroke-width: 1; opacity: 1;"></line><line transform="translate(280,-100)" x2="0" y2="100" style="fill: none; stroke: #ddd; stroke-width: 1; opacity: 1;"></line><line transform="translate(320,-100)" x2="0" y2="100" style="fill: none; stroke: #ddd; stroke-width: 1; opacity: 1;"></line><line transform="translate(360,-100)" x2="0" y2="100" style="fill: none; stroke: #ddd; stroke-width: 1; opacity: 1;"></line><line transform="translate(400,-100)" x2="0" y2="100" style="fill: none; stroke: #ddd; stroke-width: 1; opacity: 1;"></line></g></g></g></g><g class="mark-group role-axis"><g transform="translate(0.5,0.5)"><path class="background" d="M0,0h0v0h0Z" style="pointer-events: none; fill: none;"></path><g><g class="mark-rule role-axis-grid" style="pointer-events: none;"><line transform="translate(0,100)" x2="400" y2="0" style="fill: none; stroke: #ddd; stroke-width: 1; opacity: 1;"></line><line transform="translate(0,50)" x2="400" y2="0" style="fill: none; stroke: #ddd; stroke-width: 1; opacity: 1;"></line><line transform="translate(0,0)" x2="400" y2="0" style="fill: none; stroke: #ddd; stroke-width: 1; opacity: 1;"></line></g></g></g></g><g class="mark-group role-axis"><g transform="translate(0.5,100.5)"><path class="background" d="M0,0h0v0h0Z" style="pointer-events: none; fill: none;"></path><g><g class="mark-rule role-axis-tick" style="pointer-events: none;"><line transform="translate(0,0)" x2="0" y2="5" style="fill: none; stroke: #888; stroke-width: 1; opacity: 1;"></line><line transform="translate(40,0)" x2="0" y2="5" style="fill: none; stroke: #888; stroke-width: 1; opacity: 1;"></line><line transform="translate(80,0)" x2="0" y2="5" style="fill: none; stroke: #888; stroke-width: 1; opacity: 1;"></line><line transform="translate(120,0)" x2="0" y2="5" style="fill: none; stroke: #888; stroke-width: 1; opacity: 1;"></line><line transform="translate(160,0)" x2="0" y2="5" style="fill: none; stroke: #888; stroke-width: 1; opacity: 1;"></line><line transform="translate(200,0)" x2="0" y2="5" style="fill: none; stroke: #888; stroke-width: 1; opacity: 1;"></line><line transform="translate(240,0)" x2="0" y2="5" style="fill: none; stroke: #888; stroke-width: 1; opacity: 1;"></line><line transform="translate(280,0)" x2="0" y2="5" style="fill: none; stroke: #888; stroke-width: 1; opacity: 1;"></line><line transform="translate(320,0)" x2="0" y2="5" style="fill: none; stroke: #888; stroke-width: 1; opacity: 1;"></line><line transform="translate(360,0)" x2="0" y2="5" style="fill: none; stroke: #888; stroke-width: 1; opacity: 1;"></line><line transform="translate(400,0)" x2="0" y2="5" style="fill: none; stroke: #888; stroke-width: 1; opacity: 1;"></line></g><g class="mark-text role-axis-label" style="pointer-events: none;"><text text-anchor="start" transform="translate(0,15)" style="font-family: sans-serif; font-size: 10px; fill: #000; opacity: 1;">0</text><text text-anchor="middle" transform="translate(40,15)" style="font-family: sans-serif; font-size: 10px; fill: #000; opacity: 1;">1</text><text text-anchor="middle" transform="translate(80,15)" style="font-family: sans-serif; font-size: 10px; fill: #000; opacity: 1;">2</text><text text-anchor="middle" transform="translate(120,15)" style="font-family: sans-serif; font-size: 10px; fill: #000; opacity: 1;">3</text><text text-anchor="middle" transform="translate(160,15)" style="font-family: sans-serif; font-size: 10px; fill: #000; opacity: 1;">4</text><text text-anchor="middle" transform="translate(200,15)" style="font-family: sans-serif; font-size: 10px; fill: #000; opacity: 1;">5</text><text text-anchor="middle" transform="translate(240,15)" style="font-family: sans-serif; font-size: 10px; fill: #000; opacity: 1;">6</text><text text-anchor="middle" transform="translate(280,15)" style="font-family: sans-serif; font-size: 10px; fill: #000; opacity: 1;">7</text><text text-anchor="middle" transform="translate(320,15)" style="font-family: sans-serif; font-size: 10px; fill: #000; opacity: 1;">8</text><text text-anchor="middle" transform="translate(360,15)" style="font-family: sans-serif; font-size: 10px; fill: #000; opacity: 1;">9</text><text text-anchor="end" transform="translate(400,15)" style="font-family: sans-serif; font-size: 10px; fill: #000; opacity: 1;">10</text></g><g class="mark-rule role-axis-domain" style="pointer-events: none;"><line transform="translate(0,0)" x2="400" y2="0" style="fill: none; stroke: #888; stroke-width: 1; opacity: 1;"></line></g><g class="mark-text role-axis-title" style="pointer-events: none;"><text text-anchor="middle" transform="translate(200,30)" style="font-family: sans-serif; font-size: 11px; font-weight: bold; fill: #000; opacity: 1;">value</text></g></g></g></g><g class="mark-group role-axis"><g transform="translate(0.5,0.5)"><path class="background" d="M0,0h0v0h0Z" style="pointer-events: none; fill: none;"></path><g><g class="mark-rule role-axis-tick" style="pointer-events: none;"><line transform="translate(0,100)" x2="-5" y2="0" style="fill: none; stroke: #888; stroke-width: 1; opacity: 1;"></line><line transform="translate(0,50)" x2="-5" y2="0" style="fill: none; stroke: #888; stroke-width: 1; opacity: 1;"></line><line transform="translate(0,0)" x2="-5" y2="0" style="fill: none; stroke: #888; stroke-width: 1; opacity: 1;"></line></g><g class="mark-text role-axis-label" style="pointer-events: none;"><text text-anchor="end" transform="translate(-7,103)" style="font-family: sans-serif; font-size: 10px; fill: #000; opacity: 1;">0</text><text text-anchor="end" transform="translate(-7,53)" style="font-family: sans-serif; font-size: 10px; fill: #000; opacity: 1;">500</text><text text-anchor="end" transform="translate(-7,3)" style="font-family: sans-serif; font-size: 10px; fill: #000; opacity: 1;">1,000</text></g><g class="mark-rule role-axis-domain" style="pointer-events: none;"><line transform="translate(0,100)" x2="0" y2="-100" style="fill: none; stroke: #888; stroke-width: 1; opacity: 1;"></line></g><g class="mark-text role-axis-title" style="pointer-events: none;"><text text-anchor="middle" transform="translate(-38,50) rotate(-90) translate(0,-2)" style="font-family: sans-serif; font-size: 11px; font-weight: bold; fill: #000; opacity: 1;">density</text></g></g></g></g><g class="mark-group role-scope pathgroup"><g transform="translate(0,0)"><path class="background" d="M0,0h400v100h-400Z" style="fill: none;"></path><g><g class="mark-area role-mark marks"><path d="M0,71.67509499698681L8,77.31913239632422L16,88.35454344077256L24,96.16052469518051L32,99.15726784609008L40,99.76556186843905L48,99.66835378133501L56.00000000000001,99.39129509381341L64,99.05545136223901L72,98.57489040599553L80,97.78774626176477L88.00000000000001,96.77522539411065L96,95.86778640778019L104,95.24555290601296L112.00000000000001,94.61525167722961L120,93.3880287721443L128,91.47998933215602L136,89.68015428996321L144,88.5128971341781L152,87.310451293997L160,84.98265535008667L168.00000000000003,80.82588684547072L176.00000000000003,74.75936928279226L184.00000000000003,67.6731260095958L192,60.816451262798324L200,54.175964689107396L208,46.57793152723391L216,37.67698947060582L224.00000000000003,28.449936330477513L231.99999999999997,19.959736683130885L240,12.933433255465275L248,7.845365946856873L256,4.471523765133114L264,2.5721808442565504L272,3.070873767115472L280,6.967697193060701L288,13.937583596588183L296,22.964246637584324L304,33.20851975077734L312,44.22723390878303L320,55.83281774458338L328,67.40454808741939L336.00000000000006,77.73849600882538L344,85.87388385693825L352.00000000000006,91.65600832150776L360,95.50038264926484L368.00000000000006,97.87692326607993L375.99999999999994,99.16280920461524L384,99.73577251161397L392.00000000000006,99.9364744612023L400,99.98896496646617L400,99.99345226092682L392.00000000000006,99.95997613187646L384,99.81961330381746L375.99999999999994,99.37491486338234L368.00000000000006,98.28888592194446L360,96.2082489169689L352.00000000000006,92.8838455429624L344,87.96936180232416L336.00000000000006,80.92138068862783L328,71.58220990117499L320,60.71485853290385L312,49.53212972921621L304,38.78420435570157L296,28.78768539480575L288,20.120552449579762L280,13.743632312076386L272,10.547041562758324L264,10.546179521322458L256,12.623874880066737L248,15.885598262653758L240,20.484715536579657L231.99999999999997,26.59813417553862L224.00000000000003,33.931631109333466L216,42.04193630784844L208,50.05626323423499L200,57.0267637095949L192,63.25261018142484L184.00000000000003,69.78951163907314L176.00000000000003,76.48215331109515L168.00000000000003,82.07105276181775L160,85.83562830895943L152,87.96299149344487L144,89.10185805713427L136,90.21399617455238L128,91.8921823795871L120,93.6804163877598L112.00000000000001,94.89122453997061L104,95.57550978481552L96,96.20906333117942L88.00000000000001,97.04378290944817L80,97.94540106845112L72,98.64210046235065L64,99.07544266702153L56.00000000000001,99.39538036293709L48,99.67035361245688L40,99.78257213159011L32,99.28262619054873L24,96.75442541565796L16,90.1586542642371L8,80.83306045709983L0,76.06346008140287Z" style="fill: #1f77b4;"></path></g></g></g><g transform="translate(0,0)"><path class="background" d="M0,0h400v100h-400Z" style="fill: none;"></path><g><g class="mark-area role-mark marks"><path d="M0,89.62750060683302L8,91.69434887676898L16,95.73568223360753L24,98.59555808622278L32,99.69838022831622L40,99.93257900783249L48,99.90399718159351L56.00000000000001,99.78714089881184L64,99.64457763943962L72,99.50401617001296L80,99.3271169744256L88.00000000000001,99.10048600057279L96,98.90013131881265L104,98.76290837464892L112.00000000000001,98.5729312701295L120,98.15537480441208L128,97.50093865399133L136,96.85673003479276L144,96.41563881514132L152,95.96022143029583L160,94.98726408900787L168.00000000000003,93.09342863519527L176.00000000000003,90.3218021439807L184.00000000000003,87.19476472803703L192,84.16456066348793L200,81.07849517429943L208,77.53637700866321L216,73.64508186094426L224.00000000000003,69.80894873933127L231.99999999999997,65.94220558169911L240,61.760947646243444L248,57.573927528665166L256,53.91528918743839L264,51.08852931146023L272,49.69303570838822L280,50.56400397821198L288,53.71038260457437L296,58.306187563212404L304,63.91580956219107L312,70.55220385837436L320,77.64738513275735L328,84.10207797712025L336.00000000000006,89.19906407591161L344,92.931398749704L352.00000000000006,95.63463734257066L360,97.5721008933355L368.00000000000006,98.841757631925L375.99999999999994,99.54229824900506L384,99.85523671241299L392.00000000000006,99.96512520787437L400,99.99394809724599L400,99.99845202709766L392.00000000000006,99.99034741114967L384,99.9590409007073L375.99999999999994,99.87438004092805L368.00000000000006,99.69461065041162L360,99.35506882421505L352.00000000000006,98.76896250775343L344,97.88961049807159L336.00000000000006,96.75006687291051L328,95.34677141981498L320,93.56240586077153L312,91.3888184806256L304,89.02921959877412L296,86.67373838966245L288,84.38561967310153L280,82.16440531721707L272,80.15032028587942L264,78.70265386792438L256,78.0940581491692L248,78.28942660475604L240,79.06769536593517L231.99999999999997,80.17276769484579L224.00000000000003,81.42157515702718L216,82.83957619239968L208,84.51125635484979L200,86.33549617024299L192,88.24101145454316L184.00000000000003,90.38084463776339L176.00000000000003,92.74306362094666L168.00000000000003,94.86827237049128L160,96.2786723039022L152,96.97153523897978L144,97.30227856528565L136,97.63933326914265L128,98.16016134775671L120,98.73910857164248L112.00000000000001,99.12336720476925L104,99.24926218100288L96,99.27424008095599L88.00000000000001,99.35991314348307L80,99.51716542361089L72,99.66845056919963L64,99.77980498730312L56.00000000000001,99.8694579904443L48,99.93959442568361L40,99.96754960707682L32,99.89358977138583L24,99.51356462135325L16,98.5238646269798L8,97.12496546622519L0,96.4095193878137Z" style="fill: #ff9896;"></path></g></g></g><g transform="translate(0,0)"><path class="background" d="M0,0h400v100h-400Z" style="fill: none;"></path><g><g class="mark-area role-mark marks"><path d="M0,83.37740188876553L8,86.68960722527198L16,93.165505647719L24,97.74426031202027L32,99.49156425133052L40,99.81101958506406L48,99.67447087260643L56.00000000000001,99.40613643171213L64,99.12136348804123L72,98.78247675652783L80,98.26941043483572L88.00000000000001,97.64962059495804L96,97.16353279006483L104,96.86594455224461L112.00000000000001,96.50408552202366L120,95.78775263863902L128,94.72485167029252L136,93.64923895847757L144,92.72077263730854L152,91.57533881565746L160,89.63596631891558L168.00000000000003,86.39693879214694L176.00000000000003,81.72773461138392L184.00000000000003,76.38761375858557L192,71.51545183394174L200,67.18202110530734L208,62.39735099226209L216,56.76845990518361L224.00000000000003,51.02013439909756L231.99999999999997,45.76023309152215L240,41.04020710929358L248,37.065620251921516L256,33.980244848718755L264,31.797107584780903L272,31.32819473925636L280,33.66511581659168L288,38.69376656170525L296,45.33238389614822L304,52.91129477997345L312,61.3809326141066L320,70.3736387526244L328,78.88821677227584L336.00000000000006,85.9446785435559L344,91.20872705688805L352.00000000000006,94.89635704964849L360,97.33287803928015L368.00000000000006,98.78678008276856L375.99999999999994,99.53372034815604L384,99.85435086030917L392.00000000000006,99.96506548832903L400,99.99394548869775L400,99.99394748070569L392.00000000000006,99.96511042983153L384,99.85500461527559L375.99999999999994,99.5398921315711L368.00000000000006,98.82513555770794L360,97.49463739571702L352.00000000000006,95.38697770414399L344,92.37330787756927L336.00000000000006,88.26605547909458L328,82.83117774542362L320,76.06316598502859L312,68.65763019690434L304,61.830883670272655L296,56.26254428604952L288,51.89506764468629L280,49.06372678704697L272,48.546961259644576L264,50.28853238722271L256,53.36746783602845L248,57.14310408804521L240,61.370945550905034L231.99999999999997,65.6122437501804L224.00000000000003,69.57535800008073L216,73.46544984110263L208,77.32197396965711L200,80.81439893747846L192,83.93160690403846L184.00000000000003,87.05938188392645L176.00000000000003,90.27064064724328L168.00000000000003,93.08084463039577L160,94.98475860173991L152,95.95621748384612L144,96.39761461503112L136,96.80185472549174L128,97.39246459349955L120,98.00985475228345L112.00000000000001,98.41529256651675L104,98.57291141669185L96,98.64985725223647L88.00000000000001,98.83791216919809L80,99.13946330453842L72,99.4161424746044L64,99.61783691908492L56.00000000000001,99.7818474913495L48,99.90301072582547L40,99.92892462311539L32,99.67178661667197L24,98.46957906165899L16,95.35299205707896L8,90.94897019718408L0,88.69663528589605Z" style="fill: #2ca02c;"></path></g></g></g><g transform="translate(0,0)"><path class="background" d="M0,0h400v100h-400Z" style="fill: none;"></path><g><g class="mark-area role-mark marks"><path d="M0,97.73932698915183L8,98.18979215130275L16,99.07056487615934L24,99.69353452391657L32,99.9315768890667L40,99.97270174949105L48,99.94020311309339L56.00000000000001,99.8710052139871L64,99.78907225738931L72,99.70558101479507L80,99.61749066819905L88.00000000000001,99.55109009827312L96,99.55307157356523L104,99.60522651203479L112.00000000000001,99.5846946035289L120,99.37042540523895L128,99.01116422940763L136,98.73852528181864L144,98.71124002461511L152,98.77878661203505L160,98.58535734739785L168.00000000000003,97.83235154396738L176.00000000000003,96.48214177399262L184.00000000000003,94.88515569619845L192,93.5854041441454L200,92.7199244463206L208,91.8430729043366L216,90.53385842452205L224.00000000000003,88.79851342551935L231.99999999999997,86.91787609625351L240,85.26527195305951L248,84.09173119815844L256,83.40230812305651L264,83.29809808923773L272,84.04755188213349L280,85.59641035023175L288,87.53424786762659L296,89.50818909038568L304,91.35414038671031L312,93.08291740083214L320,94.73705836660811L328,96.22704174302572L336.00000000000006,97.45484221788445L344,98.38681133817619L352.00000000000006,99.0306828677214L360,99.44998880736156L368.00000000000006,99.71755355273771L375.99999999999994,99.87802101579368L384,99.95941734113195L392.00000000000006,99.9903726506885L400,99.99845312120937L400,99.99845313537269L392.00000000000006,99.99037314688184L384,99.95942850021417L375.99999999999994,99.87818242196042L368.00000000000006,99.71906262833599L360,99.45923143644339L352.00000000000006,99.06904678531623L344,98.50310917528482L336.00000000000006,97.74299531399674L328,96.84990123745055L320,95.85853319475441L312,94.66416744702344L304,93.1482161706778L296,91.3779224133202L288,89.54965877032205L280,87.77335013949028L272,86.22329196605469L264,85.25760431058968L256,85.02806756182038L248,85.37871767217233L240,86.23035833720732L231.99999999999997,87.58915951249203L224.00000000000003,89.24762636460318L216,90.84443534985834L208,92.0732034377105L200,92.9153525980903L192,93.80593813463337L184.00000000000003,95.15698544743115L176.00000000000003,96.74830846109283L168.00000000000003,98.03988036421805L160,98.78353308390864L152,99.05739169982306L144,99.072266254339L136,99.07828002585707L128,99.23152979824232L120,99.46751267225378L112.00000000000001,99.6167528052643L104,99.62917362941896L96,99.61222556730803L88.00000000000001,99.6756259848884L80,99.80514444505873L72,99.91854646084482L64,99.97672331033293L56.00000000000001,99.99549231741092L48,99.9988056302194L40,99.99275511032384L32,99.94681614717368L24,99.74804206544381L16,99.23461964945399L8,98.50924264086568L0,98.13826935812637Z" style="fill: #c5b0d5;"></path></g></g></g><g transform="translate(0,0)"><path class="background" d="M0,0h400v100h-400Z" style="fill: none;"></path><g><g class="mark-area role-mark marks"><path d="M0,99.06913467906332L8,99.25462132044782L16,99.61730982575297L24,99.8740210778766L32,99.9734093517879L40,99.99640085340573L48,99.99967660382103L56.00000000000001,99.99982244661378L64,99.9985195870613L72,99.9912137546411L80,99.96630459886856L88.00000000000001,99.91522373936415L96,99.85324240094047L104,99.80188250788136L112.00000000000001,99.74489131500708L120,99.66212237728735L128,99.58926305659782L136,99.5653700997312L144,99.55725894134773L152,99.50328180274043L160,99.35533295014325L168.00000000000003,99.01005482145732L176.00000000000003,98.3462750499549L184.00000000000003,97.46795992493473L192,96.71540722479122L200,96.24166575304342L208,95.82694590436753L216,95.17983543660974L224.00000000000003,94.09534739832857L231.99999999999997,92.51449916883934L240,90.76856124979335L248,89.46190633297834L256,88.99706447714834L264,89.37978739625957L272,90.25799541499264L280,91.20123390659118L288,92.13440878986474L296,93.2381784378062L304,94.45387461765218L312,95.53521184013066L320,96.43556787323362L328,97.27173945835233L336.00000000000006,98.06238500917738L344,98.70388239124591L352.00000000000006,99.15895055294341L360,99.48617790955721L368.00000000000006,99.72435231396966L375.99999999999994,99.87885719215664L384,99.95948425013123L392.00000000000006,99.99037612475963L400,99.99845323807571L400,99.99995538378636L392.00000000000006,99.99948563705478L384,99.9961937001515L375.99999999999994,99.98186369070281L368.00000000000006,99.94368625620643L360,99.88090774143166L352.00000000000006,99.80357475831002L344,99.68108756424469L336.00000000000006,99.45993718700447L328,99.19088524792713L320,99.00685645870044L312,98.95479223146275L304,98.98752979749115L296,99.03832202041019L288,99.01219472666783L280,98.83980510933432L272,98.60192751619208L264,98.51358682216096L256,98.70095880860062L248,99.01327528030924L240,99.19592894718544L231.99999999999997,99.22439909214145L224.00000000000003,99.28152653671611L216,99.45282040047434L208,99.63460338627834L200,99.73148363280177L192,99.76889853866247L184.00000000000003,99.8096613898957L176.00000000000003,99.87525891719432L168.00000000000003,99.94151470155927L160,99.98148823082866L152,99.99615670944456L144,99.99948342466416L136,99.99995530137772L128,99.9999975159594L120,99.9999999114269L112.00000000000001,99.99999999797443L104,99.9999999999703L96,99.99999999999972L88.00000000000001,99.99999999999972L80,99.9999999999703L72,99.99999999797471L64,99.9999999114566L56.00000000000001,99.99999751798471L48,99.99995538992475L40,99.99948590700123L32,99.99620133799206L24,99.98200301116228L16,99.945329975108L8,99.89351733149255L0,99.8670192398662Z" style="fill: #c49c94;"></path></g></g></g><g transform="translate(0,0)"><path class="background" d="M0,0h400v100h-400Z" style="fill: none;"></path><g><g class="mark-area role-mark marks"><path d="M0,79.7869213651496L8,83.81457517531152L16,91.6894149614757L24,97.25834111756609L32,99.38898923907996L40,99.79697847415048L48,99.67177749854658L56.00000000000001,99.39715757170174L64,99.08656458693713L72,98.69159927821806L80,98.10166808645575L88.00000000000001,97.40942422583875L96,96.87169980915387L104,96.5553701529238L112.00000000000001,96.19056525371629L120,95.4043200585821L128,94.14728933268755L136,92.83851963143034L144,91.77145767948416L152,90.54514035318122L160,88.39667631779358L168.00000000000003,84.72996765600756L176.00000000000003,79.4939014207225L184.00000000000003,73.58952600092445L192,68.27438103274945L200,63.5890234113053L208,58.294529267807086L216,51.74324957542267L224.00000000000003,44.66409339484072L231.99999999999997,37.97250934634353L240,32.109126757201196L248,27.456413552859644L256,24.151453249794358L264,22.157744660673032L272,22.12719144410788L280,24.89684066749591L288,30.32888186827215L296,37.65168537956984L304,46.29313433521851L312,55.89812707544006L320,65.92680855691819L328,75.46233184599703L336.00000000000006,83.50145108908158L344,89.54719922829234L352.00000000000006,93.79891302825523L360,96.69173278946322L368.00000000000006,98.49773264851635L375.99999999999994,99.4415909409747L384,99.83441396107963L392.00000000000006,99.96218861584883L400,99.99367122883902L400,99.99394548663608L392.00000000000006,99.96506539717876L384,99.8543482570675L375.99999999999994,99.5336720695061L368.00000000000006,98.78619348760151L360,97.32813943777961L352.00000000000006,94.87031922933132L344,91.10829247931444L336.00000000000006,85.66272704902033L328,78.29266183803884L320,69.39925061944388L312,60.10212178432945L304,51.49942664154173L296,43.95024318803269L288,37.412668951125724L280,32.44992337316171L272,30.150907471805795L264,30.73191014171104L256,33.11530884576524L248,36.3839630254713L240,40.437339504655704L231.99999999999997,45.176523480053824L224.00000000000003,50.51930170818446L216,56.41787050905301L208,62.124516169455624L200,66.8513936337799L192,71.11677992490134L184.00000000000003,76.04800852265534L176.00000000000003,81.53767029845181L168.00000000000003,86.32778228085903L160,89.61962824808626L152,91.57283334430905L144,92.72052332690501L136,93.64922287082587L128,94.72485099763256L120,95.78775262043214L112.00000000000001,96.50408552170497L104,96.86594455224102L96,97.1635327900648L88.00000000000001,97.64962059495693L80,98.26941043471692L72,98.78247674842665L64,99.12136313386765L56.00000000000001,99.40612650365097L48,99.67429243230542L40,99.808963213069L32,99.47636960329879L24,97.67227235666935L16,92.94682554815101L8,86.26367655124218L0,82.8454788482303Z" style="fill: #ff7f0e;"></path></g></g></g><g transform="translate(0,0)"><path class="background" d="M0,0h400v100h-400Z" style="fill: none;"></path><g><g class="mark-area role-mark marks"><path d="M0,76.06346008140287L8,80.83306045709983L16,90.1586542642371L24,96.75442541565796L32,99.28262619054873L40,99.78257213159011L48,99.67035361245688L56.00000000000001,99.39538036293709L64,99.07544266702153L72,98.64210046235065L80,97.94540106845112L88.00000000000001,97.04378290944817L96,96.20906333117942L104,95.57550978481552L112.00000000000001,94.89122453997061L120,93.6804163877598L128,91.8921823795871L136,90.21399617455238L144,89.10185805713427L152,87.96299149344487L160,85.83562830895943L168.00000000000003,82.07105276181775L176.00000000000003,76.48215331109515L184.00000000000003,69.78951163907314L192,63.25261018142484L200,57.0267637095949L208,50.05626323423499L216,42.04193630784844L224.00000000000003,33.931631109333466L231.99999999999997,26.59813417553862L240,20.484715536579657L248,15.885598262653758L256,12.623874880066737L264,10.546179521322458L272,10.547041562758324L280,13.743632312076386L288,20.120552449579762L296,28.78768539480575L304,38.78420435570157L312,49.53212972921621L320,60.71485853290385L328,71.58220990117499L336.00000000000006,80.92138068862783L344,87.96936180232416L352.00000000000006,92.8838455429624L360,96.2082489169689L368.00000000000006,98.28888592194446L375.99999999999994,99.37491486338234L384,99.81961330381746L392.00000000000006,99.95997613187646L400,99.99345226092682L400,99.99367122883902L392.00000000000006,99.96218861584883L384,99.83441396107963L375.99999999999994,99.4415909409747L368.00000000000006,98.49773264851635L360,96.69173278946322L352.00000000000006,93.79891302825523L344,89.54719922829234L336.00000000000006,83.50145108908158L328,75.46233184599703L320,65.92680855691819L312,55.89812707544006L304,46.29313433521851L296,37.65168537956984L288,30.32888186827215L280,24.89684066749591L272,22.12719144410788L264,22.157744660673032L256,24.151453249794358L248,27.456413552859644L240,32.109126757201196L231.99999999999997,37.97250934634353L224.00000000000003,44.66409339484072L216,51.74324957542267L208,58.294529267807086L200,63.5890234113053L192,68.27438103274945L184.00000000000003,73.58952600092445L176.00000000000003,79.4939014207225L168.00000000000003,84.72996765600756L160,88.39667631779358L152,90.54514035318122L144,91.77145767948416L136,92.83851963143034L128,94.14728933268755L120,95.4043200585821L112.00000000000001,96.19056525371629L104,96.5553701529238L96,96.87169980915387L88.00000000000001,97.40942422583875L80,98.10166808645575L72,98.69159927821806L64,99.08656458693713L56.00000000000001,99.39715757170174L48,99.67177749854658L40,99.79697847415048L32,99.38898923907996L24,97.25834111756609L16,91.6894149614757L8,83.81457517531152L0,79.7869213651496Z" style="fill: #aec7e8;"></path></g></g></g><g transform="translate(0,0)"><path class="background" d="M0,0h400v100h-400Z" style="fill: none;"></path><g><g class="mark-area role-mark marks"><path d="M0,98.13826935812637L8,98.50924264086568L16,99.23461964945399L24,99.74804206544381L32,99.94681614717368L40,99.99275511032384L48,99.9988056302194L56.00000000000001,99.99549231741092L64,99.97672331033293L72,99.91854646084482L80,99.80514444505873L88.00000000000001,99.6756259848884L96,99.61222556730803L104,99.62917362941896L112.00000000000001,99.6167528052643L120,99.46751267225378L128,99.23152979824232L136,99.07828002585707L144,99.072266254339L152,99.05739169982306L160,98.78353308390864L168.00000000000003,98.03988036421805L176.00000000000003,96.74830846109283L184.00000000000003,95.15698544743115L192,93.80593813463337L200,92.9153525980903L208,92.0732034377105L216,90.84443534985834L224.00000000000003,89.24762636460318L231.99999999999997,87.58915951249203L240,86.23035833720732L248,85.37871767217233L256,85.02806756182038L264,85.25760431058968L272,86.22329196605469L280,87.77335013949028L288,89.54965877032205L296,91.3779224133202L304,93.1482161706778L312,94.66416744702344L320,95.85853319475441L328,96.84990123745055L336.00000000000006,97.74299531399674L344,98.50310917528482L352.00000000000006,99.06904678531623L360,99.45923143644339L368.00000000000006,99.71906262833599L375.99999999999994,99.87818242196042L384,99.95942850021417L392.00000000000006,99.99037314688184L400,99.99845313537269L400,99.99845323807571L392.00000000000006,99.99037612475963L384,99.95948425013123L375.99999999999994,99.87885719215664L368.00000000000006,99.72435231396966L360,99.48617790955721L352.00000000000006,99.15895055294341L344,98.70388239124591L336.00000000000006,98.06238500917738L328,97.27173945835233L320,96.43556787323362L312,95.53521184013066L304,94.45387461765218L296,93.2381784378062L288,92.13440878986474L280,91.20123390659118L272,90.25799541499264L264,89.37978739625957L256,88.99706447714834L248,89.46190633297834L240,90.76856124979335L231.99999999999997,92.51449916883934L224.00000000000003,94.09534739832857L216,95.17983543660974L208,95.82694590436753L200,96.24166575304342L192,96.71540722479122L184.00000000000003,97.46795992493473L176.00000000000003,98.3462750499549L168.00000000000003,99.01005482145732L160,99.35533295014325L152,99.50328180274043L144,99.55725894134773L136,99.5653700997312L128,99.58926305659782L120,99.66212237728735L112.00000000000001,99.74489131500708L104,99.80188250788136L96,99.85324240094047L88.00000000000001,99.91522373936415L80,99.96630459886856L72,99.9912137546411L64,99.9985195870613L56.00000000000001,99.99982244661378L48,99.99967660382103L40,99.99640085340573L32,99.9734093517879L24,99.8740210778766L16,99.61730982575297L8,99.25462132044782L0,99.06913467906332Z" style="fill: #8c564b;"></path></g></g></g><g transform="translate(0,0)"><path class="background" d="M0,0h400v100h-400Z" style="fill: none;"></path><g><g class="mark-area role-mark marks"><path d="M0,96.4095193878137L8,97.12496546622519L16,98.5238646269798L24,99.51356462135325L32,99.89358977138583L40,99.96754960707682L48,99.93959442568361L56.00000000000001,99.8694579904443L64,99.77980498730312L72,99.66845056919963L80,99.51716542361089L88.00000000000001,99.35991314348307L96,99.27424008095599L104,99.24926218100288L112.00000000000001,99.12336720476925L120,98.73910857164248L128,98.16016134775671L136,97.63933326914265L144,97.30227856528565L152,96.97153523897978L160,96.2786723039022L168.00000000000003,94.86827237049128L176.00000000000003,92.74306362094666L184.00000000000003,90.38084463776339L192,88.24101145454316L200,86.33549617024299L208,84.51125635484979L216,82.83957619239968L224.00000000000003,81.42157515702718L231.99999999999997,80.17276769484579L240,79.06769536593517L248,78.28942660475604L256,78.0940581491692L264,78.70265386792438L272,80.15032028587942L280,82.16440531721707L288,84.38561967310153L296,86.67373838966245L304,89.02921959877412L312,91.3888184806256L320,93.56240586077153L328,95.34677141981498L336.00000000000006,96.75006687291051L344,97.88961049807159L352.00000000000006,98.76896250775343L360,99.35506882421505L368.00000000000006,99.69461065041162L375.99999999999994,99.87438004092805L384,99.9590409007073L392.00000000000006,99.99034741114967L400,99.99845202709766L400,99.99845312120937L392.00000000000006,99.9903726506885L384,99.95941734113195L375.99999999999994,99.87802101579368L368.00000000000006,99.71755355273771L360,99.44998880736156L352.00000000000006,99.0306828677214L344,98.38681133817619L336.00000000000006,97.45484221788445L328,96.22704174302572L320,94.73705836660811L312,93.08291740083214L304,91.35414038671031L296,89.50818909038568L288,87.53424786762659L280,85.59641035023175L272,84.04755188213349L264,83.29809808923773L256,83.40230812305651L248,84.09173119815844L240,85.26527195305951L231.99999999999997,86.91787609625351L224.00000000000003,88.79851342551935L216,90.53385842452205L208,91.8430729043366L200,92.7199244463206L192,93.5854041441454L184.00000000000003,94.88515569619845L176.00000000000003,96.48214177399262L168.00000000000003,97.83235154396738L160,98.58535734739785L152,98.77878661203505L144,98.71124002461511L136,98.73852528181864L128,99.01116422940763L120,99.37042540523895L112.00000000000001,99.5846946035289L104,99.60522651203479L96,99.55307157356523L88.00000000000001,99.55109009827312L80,99.61749066819905L72,99.70558101479507L64,99.78907225738931L56.00000000000001,99.8710052139871L48,99.94020311309339L40,99.97270174949105L32,99.9315768890667L24,99.69353452391657L16,99.07056487615934L8,98.18979215130275L0,97.73932698915183Z" style="fill: #9467bd;"></path></g></g></g><g transform="translate(0,0)"><path class="background" d="M0,0h400v100h-400Z" style="fill: none;"></path><g><g class="mark-area role-mark marks"><path d="M0,99.8670192398662L8,99.89351733149255L16,99.945329975108L24,99.98200301116228L32,99.99620133799206L40,99.99948590700123L48,99.99995538992475L56.00000000000001,99.99999751798471L64,99.9999999114566L72,99.99999999797471L80,99.9999999999703L88.00000000000001,99.99999999999972L96,99.99999999999972L104,99.9999999999703L112.00000000000001,99.99999999797443L120,99.9999999114269L128,99.9999975159594L136,99.99995530137772L144,99.99948342466416L152,99.99615670944456L160,99.98148823082866L168.00000000000003,99.94151470155927L176.00000000000003,99.87525891719432L184.00000000000003,99.8096613898957L192,99.76889853866247L200,99.73148363280177L208,99.63460338627834L216,99.45282040047434L224.00000000000003,99.28152653671611L231.99999999999997,99.22439909214145L240,99.19592894718544L248,99.01327528030924L256,98.70095880860062L264,98.51358682216096L272,98.60192751619208L280,98.83980510933432L288,99.01219472666783L296,99.03832202041019L304,98.98752979749115L312,98.95479223146275L320,99.00685645870044L328,99.19088524792713L336.00000000000006,99.45993718700447L344,99.68108756424469L352.00000000000006,99.80357475831002L360,99.88090774143166L368.00000000000006,99.94368625620643L375.99999999999994,99.98186369070281L384,99.9961937001515L392.00000000000006,99.99948563705478L400,99.99995538378636L400,100L392.00000000000006,100L384,100L375.99999999999994,100L368.00000000000006,100L360,100L352.00000000000006,100L344,100L336.00000000000006,100L328,100L320,100L312,100L304,100L296,100L288,100L280,100L272,100L264,100L256,100L248,100L240,100L231.99999999999997,100L224.00000000000003,100L216,100L208,100L200,100L192,100L184.00000000000003,100L176.00000000000003,100L168.00000000000003,100L160,100L152,100L144,100L136,100L128,100L120,100L112.00000000000001,100L104,100L96,100L88.00000000000001,100L80,100L72,100L64,100L56.00000000000001,100L48,100L40,100L32,100L24,100L16,100L8,100L0,100Z" style="fill: #e377c2;"></path></g></g></g><g transform="translate(0,0)"><path class="background" d="M0,0h400v100h-400Z" style="fill: none;"></path><g><g class="mark-area role-mark marks"><path d="M0,88.82961604602986L8,91.05545286569154L16,95.40766208197097L24,98.48757605049671L32,99.67558527867989L40,99.92943871611415L48,99.90305533590072L56.00000000000001,99.78184997336479L64,99.61783700762832L72,99.41614247662969L80,99.13946330456814L88.00000000000001,98.83791216919838L96,98.64985725223647L104,98.57291141669187L112.00000000000001,98.4152925665198L120,98.00985475254274L128,97.39246460765584L136,96.80185522106491L144,96.39762573865194L152,95.95637757406637L160,94.98623588480345L168.00000000000003,93.08958527427967L176.00000000000003,90.303800191106L184.00000000000003,87.14005000426368L192,84.05756388550195L200,80.94171523958869L208,77.41188560052683L216,73.53556659563905L224.00000000000003,69.6827525267894L231.99999999999997,65.79418546710735L240,61.603382718860715L248,57.356752879975915L256,53.507110046632604L264,50.351943070125195L272,48.56643602711873L280,49.06769666289594L288,51.895752951523086L296,56.26406667450192L304,61.83962679614215L312,68.69078933197126L320,76.14382289522997L328,82.95697215468434L336.00000000000006,88.39184988832585L344,92.45396478574233L352.00000000000006,95.42013675040823L360,97.50337802541492L368.00000000000006,98.82661284051191L375.99999999999994,99.5400522217883L384,99.85501573889638L392.00000000000006,99.9651109254047L400,99.99394749486198L400,99.99394809724599L392.00000000000006,99.96512520787437L384,99.85523671241299L375.99999999999994,99.54229824900506L368.00000000000006,98.841757631925L360,97.5721008933355L352.00000000000006,95.63463734257066L344,92.931398749704L336.00000000000006,89.19906407591161L328,84.10207797712025L320,77.64738513275735L312,70.55220385837436L304,63.91580956219107L296,58.306187563212404L288,53.71038260457437L280,50.56400397821198L272,49.69303570838822L264,51.08852931146023L256,53.91528918743839L248,57.573927528665166L240,61.760947646243444L231.99999999999997,65.94220558169911L224.00000000000003,69.80894873933127L216,73.64508186094426L208,77.53637700866321L200,81.07849517429943L192,84.16456066348793L184.00000000000003,87.19476472803703L176.00000000000003,90.3218021439807L168.00000000000003,93.09342863519527L160,94.98726408900787L152,95.96022143029583L144,96.41563881514132L136,96.85673003479276L128,97.50093865399133L120,98.15537480441208L112.00000000000001,98.5729312701295L104,98.76290837464892L96,98.90013131881265L88.00000000000001,99.10048600057279L80,99.3271169744256L72,99.50401617001296L64,99.64457763943962L56.00000000000001,99.78714089881184L48,99.90399718159351L40,99.93257900783249L32,99.69838022831622L24,98.59555808622278L16,95.73568223360753L8,91.69434887676898L0,89.62750060683302Z" style="fill: #d62728;"></path></g></g></g><g transform="translate(0,0)"><path class="background" d="M0,0h400v100h-400Z" style="fill: none;"></path><g><g class="mark-area role-mark marks"><path d="M0,82.8454788482303L8,86.26367655124218L16,92.94682554815101L24,97.67227235666935L32,99.47636960329879L40,99.808963213069L48,99.67429243230542L56.00000000000001,99.40612650365097L64,99.12136313386765L72,98.78247674842665L80,98.26941043471692L88.00000000000001,97.64962059495693L96,97.1635327900648L104,96.86594455224102L112.00000000000001,96.50408552170497L120,95.78775262043214L128,94.72485099763256L136,93.64922287082587L144,92.72052332690501L152,91.57283334430905L160,89.61962824808626L168.00000000000003,86.32778228085903L176.00000000000003,81.53767029845181L184.00000000000003,76.04800852265534L192,71.11677992490134L200,66.8513936337799L208,62.124516169455624L216,56.41787050905301L224.00000000000003,50.51930170818446L231.99999999999997,45.176523480053824L240,40.437339504655704L248,36.3839630254713L256,33.11530884576524L264,30.73191014171104L272,30.150907471805795L280,32.44992337316171L288,37.412668951125724L296,43.95024318803269L304,51.49942664154173L312,60.10212178432945L320,69.39925061944388L328,78.29266183803884L336.00000000000006,85.66272704902033L344,91.10829247931444L352.00000000000006,94.87031922933132L360,97.32813943777961L368.00000000000006,98.78619348760151L375.99999999999994,99.5336720695061L384,99.8543482570675L392.00000000000006,99.96506539717876L400,99.99394548663608L400,99.99394548869775L392.00000000000006,99.96506548832903L384,99.85435086030917L375.99999999999994,99.53372034815604L368.00000000000006,98.78678008276856L360,97.33287803928015L352.00000000000006,94.89635704964849L344,91.20872705688805L336.00000000000006,85.9446785435559L328,78.88821677227584L320,70.3736387526244L312,61.3809326141066L304,52.91129477997345L296,45.33238389614822L288,38.69376656170525L280,33.66511581659168L272,31.32819473925636L264,31.797107584780903L256,33.980244848718755L248,37.065620251921516L240,41.04020710929358L231.99999999999997,45.76023309152215L224.00000000000003,51.02013439909756L216,56.76845990518361L208,62.39735099226209L200,67.18202110530734L192,71.51545183394174L184.00000000000003,76.38761375858557L176.00000000000003,81.72773461138392L168.00000000000003,86.39693879214694L160,89.63596631891558L152,91.57533881565746L144,92.72077263730854L136,93.64923895847757L128,94.72485167029252L120,95.78775263863902L112.00000000000001,96.50408552202366L104,96.86594455224461L96,97.16353279006483L88.00000000000001,97.64962059495804L80,98.26941043483572L72,98.78247675652783L64,99.12136348804123L56.00000000000001,99.40613643171213L48,99.67447087260643L40,99.81101958506406L32,99.49156425133052L24,97.74426031202027L16,93.165505647719L8,86.68960722527198L0,83.37740188876553Z" style="fill: #ffbb78;"></path></g></g></g><g transform="translate(0,0)"><path class="background" d="M0,0h400v100h-400Z" style="fill: none;"></path><g><g class="mark-area role-mark marks"><path d="M0,88.69663528589605L8,90.94897019718408L16,95.35299205707896L24,98.46957906165899L32,99.67178661667197L40,99.92892462311539L48,99.90301072582547L56.00000000000001,99.7818474913495L64,99.61783691908492L72,99.4161424746044L80,99.13946330453842L88.00000000000001,98.83791216919809L96,98.64985725223647L104,98.57291141669185L112.00000000000001,98.41529256651675L120,98.00985475228345L128,97.39246459349955L136,96.80185472549174L144,96.39761461503112L152,95.95621748384612L160,94.98475860173991L168.00000000000003,93.08084463039577L176.00000000000003,90.27064064724328L184.00000000000003,87.05938188392645L192,83.93160690403846L200,80.81439893747846L208,77.32197396965711L216,73.46544984110263L224.00000000000003,69.57535800008073L231.99999999999997,65.6122437501804L240,61.370945550905034L248,57.14310408804521L256,53.36746783602845L264,50.28853238722271L272,48.546961259644576L280,49.06372678704697L288,51.89506764468629L296,56.26254428604952L304,61.830883670272655L312,68.65763019690434L320,76.06316598502859L328,82.83117774542362L336.00000000000006,88.26605547909458L344,92.37330787756927L352.00000000000006,95.38697770414399L360,97.49463739571702L368.00000000000006,98.82513555770794L375.99999999999994,99.5398921315711L384,99.85500461527559L392.00000000000006,99.96511042983153L400,99.99394748070569L400,99.99394749486198L392.00000000000006,99.9651109254047L384,99.85501573889638L375.99999999999994,99.5400522217883L368.00000000000006,98.82661284051191L360,97.50337802541492L352.00000000000006,95.42013675040823L344,92.45396478574233L336.00000000000006,88.39184988832585L328,82.95697215468434L320,76.14382289522997L312,68.69078933197126L304,61.83962679614215L296,56.26406667450192L288,51.895752951523086L280,49.06769666289594L272,48.56643602711873L264,50.351943070125195L256,53.507110046632604L248,57.356752879975915L240,61.603382718860715L231.99999999999997,65.79418546710735L224.00000000000003,69.6827525267894L216,73.53556659563905L208,77.41188560052683L200,80.94171523958869L192,84.05756388550195L184.00000000000003,87.14005000426368L176.00000000000003,90.303800191106L168.00000000000003,93.08958527427967L160,94.98623588480345L152,95.95637757406637L144,96.39762573865194L136,96.80185522106491L128,97.39246460765584L120,98.00985475254274L112.00000000000001,98.4152925665198L104,98.57291141669187L96,98.64985725223647L88.00000000000001,98.83791216919838L80,99.13946330456814L72,99.41614247662969L64,99.61783700762832L56.00000000000001,99.78184997336479L48,99.90305533590072L40,99.92943871611415L32,99.67558527867989L24,98.48757605049671L16,95.40766208197097L8,91.05545286569154L0,88.82961604602986Z" style="fill: #98df8a;"></path></g></g></g></g><g class="mark-group role-legend"><g transform="translate(418,0)"><path class="background" d="M0,0h122v183h-122Z" style="pointer-events: none; fill: none;"></path><g><g class="mark-group role-legend-entry"><g transform="translate(0,16)"><path class="background" d="M0,0h0v0h0Z" style="pointer-events: none; fill: none;"></path><g><g class="mark-group role-scope"><g transform="translate(0,0)"><path class="background" d="M0,0h122v11h-122Z" style="pointer-events: none; fill: none; opacity: 1;"></path><g><g class="mark-symbol role-legend-symbol" style="pointer-events: none;"><path transform="translate(6,6)" d="M5,0A5,5,0,1,1,-5,0A5,5,0,1,1,5,0" style="fill: #1f77b4; stroke-width: 1.5; opacity: 1;"></path></g><g class="mark-text role-legend-label" style="pointer-events: none;"><text text-anchor="start" transform="translate(16,9)" style="font-family: sans-serif; font-size: 10px; fill: #000; opacity: 1;">null</text></g></g></g><g transform="translate(0,13)"><path class="background" d="M0,0h122v11h-122Z" style="pointer-events: none; fill: none; opacity: 1;"></path><g><g class="mark-symbol role-legend-symbol" style="pointer-events: none;"><path transform="translate(6,6)" d="M5,0A5,5,0,1,1,-5,0A5,5,0,1,1,5,0" style="fill: #aec7e8; stroke-width: 1.5; opacity: 1;"></path></g><g class="mark-text role-legend-label" style="pointer-events: none;"><text text-anchor="start" transform="translate(16,9)" style="font-family: sans-serif; font-size: 10px; fill: #000; opacity: 1;">Action</text></g></g></g><g transform="translate(0,26)"><path class="background" d="M0,0h122v11h-122Z" style="pointer-events: none; fill: none; opacity: 1;"></path><g><g class="mark-symbol role-legend-symbol" style="pointer-events: none;"><path transform="translate(6,6)" d="M5,0A5,5,0,1,1,-5,0A5,5,0,1,1,5,0" style="fill: #ff7f0e; stroke-width: 1.5; opacity: 1;"></path></g><g class="mark-text role-legend-label" style="pointer-events: none;"><text text-anchor="start" transform="translate(16,9)" style="font-family: sans-serif; font-size: 10px; fill: #000; opacity: 1;">Adventure</text></g></g></g><g transform="translate(0,39)"><path class="background" d="M0,0h122v11h-122Z" style="pointer-events: none; fill: none; opacity: 1;"></path><g><g class="mark-symbol role-legend-symbol" style="pointer-events: none;"><path transform="translate(6,6)" d="M5,0A5,5,0,1,1,-5,0A5,5,0,1,1,5,0" style="fill: #ffbb78; stroke-width: 1.5; opacity: 1;"></path></g><g class="mark-text role-legend-label" style="pointer-events: none;"><text text-anchor="start" transform="translate(16,9)" style="font-family: sans-serif; font-size: 10px; fill: #000; opacity: 1;">Black Comedy</text></g></g></g><g transform="translate(0,52)"><path class="background" d="M0,0h122v11h-122Z" style="pointer-events: none; fill: none; opacity: 1;"></path><g><g class="mark-symbol role-legend-symbol" style="pointer-events: none;"><path transform="translate(6,6)" d="M5,0A5,5,0,1,1,-5,0A5,5,0,1,1,5,0" style="fill: #2ca02c; stroke-width: 1.5; opacity: 1;"></path></g><g class="mark-text role-legend-label" style="pointer-events: none;"><text text-anchor="start" transform="translate(16,9)" style="font-family: sans-serif; font-size: 10px; fill: #000; opacity: 1;">Comedy</text></g></g></g><g transform="translate(0,65)"><path class="background" d="M0,0h122v11h-122Z" style="pointer-events: none; fill: none; opacity: 1;"></path><g><g class="mark-symbol role-legend-symbol" style="pointer-events: none;"><path transform="translate(6,6)" d="M5,0A5,5,0,1,1,-5,0A5,5,0,1,1,5,0" style="fill: #98df8a; stroke-width: 1.5; opacity: 1;"></path></g><g class="mark-text role-legend-label" style="pointer-events: none;"><text text-anchor="start" transform="translate(16,9)" style="font-family: sans-serif; font-size: 10px; fill: #000; opacity: 1;">Concert/Performance</text></g></g></g><g transform="translate(0,78)"><path class="background" d="M0,0h122v11h-122Z" style="pointer-events: none; fill: none; opacity: 1;"></path><g><g class="mark-symbol role-legend-symbol" style="pointer-events: none;"><path transform="translate(6,6)" d="M5,0A5,5,0,1,1,-5,0A5,5,0,1,1,5,0" style="fill: #d62728; stroke-width: 1.5; opacity: 1;"></path></g><g class="mark-text role-legend-label" style="pointer-events: none;"><text text-anchor="start" transform="translate(16,9)" style="font-family: sans-serif; font-size: 10px; fill: #000; opacity: 1;">Documentary</text></g></g></g><g transform="translate(0,91)"><path class="background" d="M0,0h122v11h-122Z" style="pointer-events: none; fill: none; opacity: 1;"></path><g><g class="mark-symbol role-legend-symbol" style="pointer-events: none;"><path transform="translate(6,6)" d="M5,0A5,5,0,1,1,-5,0A5,5,0,1,1,5,0" style="fill: #ff9896; stroke-width: 1.5; opacity: 1;"></path></g><g class="mark-text role-legend-label" style="pointer-events: none;"><text text-anchor="start" transform="translate(16,9)" style="font-family: sans-serif; font-size: 10px; fill: #000; opacity: 1;">Drama</text></g></g></g><g transform="translate(0,104)"><path class="background" d="M0,0h122v11h-122Z" style="pointer-events: none; fill: none; opacity: 1;"></path><g><g class="mark-symbol role-legend-symbol" style="pointer-events: none;"><path transform="translate(6,6)" d="M5,0A5,5,0,1,1,-5,0A5,5,0,1,1,5,0" style="fill: #9467bd; stroke-width: 1.5; opacity: 1;"></path></g><g class="mark-text role-legend-label" style="pointer-events: none;"><text text-anchor="start" transform="translate(16,9)" style="font-family: sans-serif; font-size: 10px; fill: #000; opacity: 1;">Horror</text></g></g></g><g transform="translate(0,117)"><path class="background" d="M0,0h122v11h-122Z" style="pointer-events: none; fill: none; opacity: 1;"></path><g><g class="mark-symbol role-legend-symbol" style="pointer-events: none;"><path transform="translate(6,6)" d="M5,0A5,5,0,1,1,-5,0A5,5,0,1,1,5,0" style="fill: #c5b0d5; stroke-width: 1.5; opacity: 1;"></path></g><g class="mark-text role-legend-label" style="pointer-events: none;"><text text-anchor="start" transform="translate(16,9)" style="font-family: sans-serif; font-size: 10px; fill: #000; opacity: 1;">Musical</text></g></g></g><g transform="translate(0,130)"><path class="background" d="M0,0h122v11h-122Z" style="pointer-events: none; fill: none; opacity: 1;"></path><g><g class="mark-symbol role-legend-symbol" style="pointer-events: none;"><path transform="translate(6,6)" d="M5,0A5,5,0,1,1,-5,0A5,5,0,1,1,5,0" style="fill: #8c564b; stroke-width: 1.5; opacity: 1;"></path></g><g class="mark-text role-legend-label" style="pointer-events: none;"><text text-anchor="start" transform="translate(16,9)" style="font-family: sans-serif; font-size: 10px; fill: #000; opacity: 1;">Romantic Comedy</text></g></g></g><g transform="translate(0,143)"><path class="background" d="M0,0h122v11h-122Z" style="pointer-events: none; fill: none; opacity: 1;"></path><g><g class="mark-symbol role-legend-symbol" style="pointer-events: none;"><path transform="translate(6,6)" d="M5,0A5,5,0,1,1,-5,0A5,5,0,1,1,5,0" style="fill: #c49c94; stroke-width: 1.5; opacity: 1;"></path></g><g class="mark-text role-legend-label" style="pointer-events: none;"><text text-anchor="start" transform="translate(16,9)" style="font-family: sans-serif; font-size: 10px; fill: #000; opacity: 1;">Thriller/Suspense</text></g></g></g><g transform="translate(0,156)"><path class="background" d="M0,0h122v11h-122Z" style="pointer-events: none; fill: none; opacity: 1;"></path><g><g class="mark-symbol role-legend-symbol" style="pointer-events: none;"><path transform="translate(6,6)" d="M5,0A5,5,0,1,1,-5,0A5,5,0,1,1,5,0" style="fill: #e377c2; stroke-width: 1.5; opacity: 1;"></path></g><g class="mark-text role-legend-label" style="pointer-events: none;"><text text-anchor="start" transform="translate(16,9)" style="font-family: sans-serif; font-size: 10px; fill: #000; opacity: 1;">Western</text></g></g></g></g></g></g></g><g class="mark-text role-legend-title" style="pointer-events: none;"><text text-anchor="start" transform="translate(0,9)" style="font-family: sans-serif; font-size: 11px; font-weight: bold; fill: #000; opacity: 1;">Major_Genre</text></g></g></g></g></g></g></g></g></svg>