<svg class="marks" width="230" height="245" viewBox="0 0 230 245" version="1.1" xmlns="http://www.w3.org/2000/svg" xmlns:xlink="http://www.w3.org/1999/xlink"><rect width="230" height="245" style="fill: white;"></rect><defs><clipPath id="clip1"><rect x="0" y="0" width="18" height="80"></rect></clipPath><clipPath id="clip2"><rect x="0" y="0" width="18" height="110.00000000000001"></rect></clipPath><clipPath id="clip3"><rect x="0" y="0" width="18" height="86"></rect></clipPath><clipPath id="clip4"><rect x="0" y="0" width="18" height="182"></rect></clipPath><clipPath id="clip5"><rect x="0" y="0" width="18" height="162"></rect></clipPath><clipPath id="clip6"><rect x="0" y="0" width="18" height="120"></rect></clipPath><clipPath id="clip7"><rect x="0" y="0" width="18" height="80"></rect></clipPath><clipPath id="clip8"><rect x="0" y="0" width="18" height="174"></rect></clipPath><clipPath id="clip9"><rect x="0" y="0" width="18" height="104"></rect></clipPath></defs><g transform="translate(45,10)"><g class="mark-group role-frame root"><g transform="translate(0,0)"><path class="background" d="M0.5,0.5h180v200h-180Z" style="fill: none; stroke: #ddd;"></path><g><g class="mark-group role-axis"><g transform="translate(0.5,0.5)"><path class="background" d="M0,0h0v0h0Z" style="pointer-events: none; fill: none;"></path><g><g class="mark-rule role-axis-grid" style="pointer-events: none;"><line transform="translate(0,200)" x2="180" y2="0" style="fill: none; stroke: #ddd; stroke-width: 1; opacity: 1;"></line><line transform="translate(0,160)" x2="180" y2="0" style="fill: none; stroke: #ddd; stroke-width: 1; opacity: 1;"></line><line transform="translate(0,120)" x2="180" y2="0" style="fill: none; stroke: #ddd; stroke-width: 1; opacity: 1;"></line><line transform="translate(0,80)" x2="180" y2="0" style="fill: none; stroke: #ddd; stroke-width: 1; opacity: 1;"></line><line transform="translate(0,40)" x2="180" y2="0" style="fill: none; stroke: #ddd; stroke-width: 1; opacity: 1;"></line><line transform="translate(0,0)" x2="180" y2="0" style="fill: none; stroke: #ddd; stroke-width: 1; opacity: 1;"></line></g></g></g></g><g class="mark-group role-axis"><g transform="translate(0.5,200.5)"><path class="background" d="M0,0h0v0h0Z" style="pointer-events: none; fill: none;"></path><g><g class="mark-rule role-axis-tick" style="pointer-events: none;"><line transform="translate(10,0)" x2="0" y2="5" style="fill: none; stroke: #888; stroke-width: 1; opacity: 1;"></line><line transform="translate(30,0)" x2="0" y2="5" style="fill: none; stroke: #888; stroke-width: 1; opacity: 1;"></line><line transform="translate(50,0)" x2="0" y2="5" style="fill: none; stroke: #888; stroke-width: 1; opacity: 1;"></line><line transform="translate(70,0)" x2="0" y2="5" style="fill: none; stroke: #888; stroke-width: 1; opacity: 1;"></line><line transform="translate(90,0)" x2="0" y2="5" style="fill: none; stroke: #888; stroke-width: 1; opacity: 1;"></line><line transform="translate(110,0)" x2="0" y2="5" style="fill: none; stroke: #888; stroke-width: 1; opacity: 1;"></line><line transform="translate(130,0)" x2="0" y2="5" style="fill: none; stroke: #888; stroke-width: 1; opacity: 1;"></line><line transform="translate(150,0)" x2="0" y2="5" style="fill: none; stroke: #888; stroke-width: 1; opacity: 1;"></line><line transform="translate(170,0)" x2="0" y2="5" style="fill: none; stroke: #888; stroke-width: 1; opacity: 1;"></line></g><g class="mark-text role-axis-label" style="pointer-events: none;"><text text-anchor="end" transform="translate(9.5,7) rotate(270) translate(0,3)" style="font-family: sans-serif; font-size: 10px; fill: #000; opacity: 1;">A</text><text text-anchor="end" transform="translate(29.5,7) rotate(270) translate(0,3)" style="font-family: sans-serif; font-size: 10px; fill: #000; opacity: 1;">B</text><text text-anchor="end" transform="translate(49.5,7) rotate(270) translate(0,3)" style="font-family: sans-serif; font-size: 10px; fill: #000; opacity: 1;">C</text><text text-anchor="end" transform="translate(69.5,7) rotate(270) translate(0,3)" style="font-family: sans-serif; font-size: 10px; fill: #000; opacity: 1;">D</text><text text-anchor="end" transform="translate(89.5,7) rotate(270) translate(0,3)" style="font-family: sans-serif; font-size: 10px; fill: #000; opacity: 1;">E</text><text text-anchor="end" transform="translate(109.5,7) rotate(270) translate(0,3)" style="font-family: sans-serif; font-size: 10px; fill: #000; opacity: 1;">F</text><text text-anchor="end" transform="translate(129.5,7) rotate(270) translate(0,3)" style="font-family: sans-serif; font-size: 10px; fill: #000; opacity: 1;">G</text><text text-anchor="end" transform="translate(149.5,7) rotate(270) translate(0,3)" style="font-family: sans-serif; font-size: 10px; fill: #000; opacity: 1;">H</text><text text-anchor="end" transform="translate(169.5,7) rotate(270) translate(0,3)" style="font-family: sans-serif; font-size: 10px; fill: #000; opacity: 1;">I</text></g><g class="mark-rule role-axis-domain" style="pointer-events: none;"><line transform="translate(0,0)" x2="180" y2="0" style="fill: none; stroke: #888; stroke-width: 1; opacity: 1;"></line></g><g class="mark-text role-axis-title" style="pointer-events: none;"><text text-anchor="middle" transform="translate(90,28)" style="font-family: sans-serif; font-size: 11px; font-weight: bold; fill: #000; opacity: 1;">a</text></g></g></g></g><g class="mark-group role-axis"><g transform="translate(0.5,0.5)"><path class="background" d="M0,0h0v0h0Z" style="pointer-events: none; fill: none;"></path><g><g class="mark-rule role-axis-tick" style="pointer-events: none;"><line transform="translate(0,200)" x2="-5" y2="0" style="fill: none; stroke: #888; stroke-width: 1; opacity: 1;"></line><line transform="translate(0,160)" x2="-5" y2="0" style="fill: none; stroke: #888; stroke-width: 1; opacity: 1;"></line><line transform="translate(0,120)" x2="-5" y2="0" style="fill: none; stroke: #888; stroke-width: 1; opacity: 1;"></line><line transform="translate(0,80)" x2="-5" y2="0" style="fill: none; stroke: #888; stroke-width: 1; opacity: 1;"></line><line transform="translate(0,40)" x2="-5" y2="0" style="fill: none; stroke: #888; stroke-width: 1; opacity: 1;"></line><line transform="translate(0,0)" x2="-5" y2="0" style="fill: none; stroke: #888; stroke-width: 1; opacity: 1;"></line></g><g class="mark-text role-axis-label" style="pointer-events: none;"><text text-anchor="end" transform="translate(-7,203)" style="font-family: sans-serif; font-size: 10px; fill: #000; opacity: 1;">0</text><text text-anchor="end" transform="translate(-7,163)" style="font-family: sans-serif; font-size: 10px; fill: #000; opacity: 1;">20</text><text text-anchor="end" transform="translate(-7,123)" style="font-family: sans-serif; font-size: 10px; fill: #000; opacity: 1;">40</text><text text-anchor="end" transform="translate(-7,83)" style="font-family: sans-serif; font-size: 10px; fill: #000; opacity: 1;">60</text><text text-anchor="end" transform="translate(-7,43)" style="font-family: sans-serif; font-size: 10px; fill: #000; opacity: 1;">80</text><text text-anchor="end" transform="translate(-7,3)" style="font-family: sans-serif; font-size: 10px; fill: #000; opacity: 1;">100</text></g><g class="mark-rule role-axis-domain" style="pointer-events: none;"><line transform="translate(0,200)" x2="0" y2="-200" style="fill: none; stroke: #888; stroke-width: 1; opacity: 1;"></line></g><g class="mark-text role-axis-title" style="pointer-events: none;"><text text-anchor="middle" transform="translate(-29,100) rotate(-90) translate(0,-2)" style="font-family: sans-serif; font-size: 11px; font-weight: bold; fill: #000; opacity: 1;">b</text></g></g></g></g><g class="mark-group role-scope"><g transform="translate(1,120)"><path class="background" d="M0.5,0.5h18v80h-18Z" style="fill: none; stroke: white;"></path><g clip-path="url(#clip1)"><g class="mark-group role-scope"><g transform="translate(0,-120)"><path class="background" d="M0,0h18v0h-18Z" style="fill: none;"></path><g><g class="mark-rect role-mark marks"><path d="M0,144h18v56h-18Z" style="fill: steelblue; stroke: white;"></path><path d="M0,120h18v24h-18Z" style="fill: steelblue; stroke: white;"></path></g></g></g></g></g></g><g transform="translate(21,89.99999999999999)"><path class="background" d="M0.5,0.5h18v110.00000000000001h-18Z" style="fill: none; stroke: white;"></path><g clip-path="url(#clip2)"><g class="mark-group role-scope"><g transform="translate(0,-89.99999999999999)"><path class="background" d="M0,0h18v0h-18Z" style="fill: none;"></path><g><g class="mark-rect role-mark marks"><path d="M0,89.99999999999999h18v110.00000000000001h-18Z" style="fill: steelblue; stroke: white;"></path></g></g></g></g></g></g><g transform="translate(41,114)"><path class="background" d="M0.5,0.5h18v86h-18Z" style="fill: none; stroke: white;"></path><g clip-path="url(#clip3)"><g class="mark-group role-scope"><g transform="translate(0,-114)"><path class="background" d="M0,0h18v0h-18Z" style="fill: none;"></path><g><g class="mark-rect role-mark marks"><path d="M0,114h18v86h-18Z" style="fill: steelblue; stroke: white;"></path></g></g></g></g></g></g><g transform="translate(61,18)"><path class="background" d="M0.5,0.5h18v182h-18Z" style="fill: none; stroke: white;"></path><g clip-path="url(#clip4)"><g class="mark-group role-scope"><g transform="translate(0,-18)"><path class="background" d="M0,0h18v0h-18Z" style="fill: none;"></path><g><g class="mark-rect role-mark marks"><path d="M0,18h18v182h-18Z" style="fill: steelblue; stroke: white;"></path></g></g></g></g></g></g><g transform="translate(81,38)"><path class="background" d="M0.5,0.5h18v162h-18Z" style="fill: none; stroke: white;"></path><g clip-path="url(#clip5)"><g class="mark-group role-scope"><g transform="translate(0,-38)"><path class="background" d="M0,0h18v0h-18Z" style="fill: none;"></path><g><g class="mark-rect role-mark marks"><path d="M0,38h18v162h-18Z" style="fill: steelblue; stroke: white;"></path></g></g></g></g></g></g><g transform="translate(101,80)"><path class="background" d="M0.5,0.5h18v120h-18Z" style="fill: none; stroke: white;"></path><g clip-path="url(#clip6)"><g class="mark-group role-scope"><g transform="translate(0,-80)"><path class="background" d="M0,0h18v0h-18Z" style="fill: none;"></path><g><g class="mark-rect role-mark marks"><path d="M0,94h18v106h-18Z" style="fill: steelblue; stroke: white;"></path><path d="M0,80h18v14h-18Z" style="fill: steelblue; stroke: white;"></path></g></g></g></g></g></g><g transform="translate(121,120)"><path class="background" d="M0.5,0.5h18v80h-18Z" style="fill: none; stroke: white;"></path><g clip-path="url(#clip7)"><g class="mark-group role-scope"><g transform="translate(0,-120)"><path class="background" d="M0,0h18v0h-18Z" style="fill: none;"></path><g><g class="mark-rect role-mark marks"><path d="M0,158h18v42h-18Z" style="fill: steelblue; stroke: white;"></path><path d="M0,120h18v38h-18Z" style="fill: steelblue; stroke: white;"></path></g></g></g></g></g></g><g transform="translate(141,26)"><path class="background" d="M0.5,0.5h18v174h-18Z" style="fill: none; stroke: white;"></path><g clip-path="url(#clip8)"><g class="mark-group role-scope"><g transform="translate(0,-26)"><path class="background" d="M0,0h18v0h-18Z" style="fill: none;"></path><g><g class="mark-rect role-mark marks"><path d="M0,26h18v174h-18Z" style="fill: steelblue; stroke: white;"></path></g></g></g></g></g></g><g transform="translate(161,96)"><path class="background" d="M0.5,0.5h18v104h-18Z" style="fill: none; stroke: white;"></path><g clip-path="url(#clip9)"><g class="mark-group role-scope"><g transform="translate(0,-96)"><path class="background" d="M0,0h18v0h-18Z" style="fill: none;"></path><g><g class="mark-rect role-mark marks"><path d="M0,96h18v104h-18Z" style="fill: steelblue; stroke: white;"></path></g></g></g></g></g></g></g></g></g></g></g></svg>