<svg class="marks" width="312" height="271" viewBox="0 0 312 271" version="1.1" xmlns="http://www.w3.org/2000/svg" xmlns:xlink="http://www.w3.org/1999/xlink"><rect width="312" height="271" style="fill: white;"></rect><defs><clipPath id="clip1"><rect x="0" y="0" width="121.69225" height="9.473684210526317"></rect></clipPath><clipPath id="clip2"><rect x="0" y="0" width="131.90182499999997" height="9.473684210526317"></rect></clipPath><clipPath id="clip3"><rect x="0" y="0" width="132.0404125" height="9.473684210526317"></rect></clipPath><clipPath id="clip4"><rect x="0" y="0" width="127.9677375" height="9.473684210526317"></rect></clipPath><clipPath id="clip5"><rect x="0" y="0" width="121.6414375" height="9.473684210526317"></rect></clipPath><clipPath id="clip6"><rect x="0" y="0" width="120.74366250000003" height="9.473684210526317"></rect></clipPath><clipPath id="clip7"><rect x="0" y="0" width="127.5734875" height="9.473684210526317"></rect></clipPath><clipPath id="clip8"><rect x="0" y="0" width="143.439775" height="9.473684210526317"></rect></clipPath><clipPath id="clip9"><rect x="0" y="0" width="141.50315" height="9.473684210526317"></rect></clipPath><clipPath id="clip10"><rect x="0" y="0" width="124.06257499999998" height="9.473684210526317"></rect></clipPath><clipPath id="clip11"><rect x="0" y="0" width="106.349175" height="9.473684210526317"></rect></clipPath><clipPath id="clip12"><rect x="0" y="0" width="80.73852499999998" height="9.473684210526317"></rect></clipPath><clipPath id="clip13"><rect x="0" y="0" width="64.0424875" height="9.473684210526317"></rect></clipPath><clipPath id="clip14"><rect x="0" y="0" width="55.6702875" height="9.473684210526317"></rect></clipPath><clipPath id="clip15"><rect x="0" y="0" width="47.401812500000005" height="9.473684210526317"></rect></clipPath><clipPath id="clip16"><rect x="0" y="0" width="36.4081875" height="9.473684210526317"></rect></clipPath><clipPath id="clip17"><rect x="0" y="0" width="23.782974999999993" height="9.473684210526317"></rect></clipPath><clipPath id="clip18"><rect x="0" y="0" width="12.129462499999988" height="9.473684210526317"></rect></clipPath><clipPath id="clip19"><rect x="0" y="0" width="4.203787500000004" height="9.473684210526317"></rect></clipPath></defs><g transform="translate(6,34)"><g class="mark-group role-frame root"><g transform="translate(0,0)"><path class="background" d="M0,0h300v200h-300Z" style="fill: none;"></path><g><g class="mark-group role-axis"><g transform="translate(0.5,200.5)"><path class="background" d="M0,0h0v0h0Z" style="pointer-events: none; fill: none;"></path><g><g class="mark-rule role-axis-tick" style="pointer-events: none;"><line transform="translate(0,0)" x2="0" y2="5" style="fill: none; stroke: #888; stroke-width: 1; opacity: 1;"></line><line transform="translate(25,0)" x2="0" y2="5" style="fill: none; stroke: #888; stroke-width: 1; opacity: 1;"></line><line transform="translate(50,0)" x2="0" y2="5" style="fill: none; stroke: #888; stroke-width: 1; opacity: 1;"></line><line transform="translate(75,0)" x2="0" y2="5" style="fill: none; stroke: #888; stroke-width: 1; opacity: 1;"></line><line transform="translate(100,0)" x2="0" y2="5" style="fill: none; stroke: #888; stroke-width: 1; opacity: 1;"></line><line transform="translate(125,0)" x2="0" y2="5" style="fill: none; stroke: #888; stroke-width: 1; opacity: 1;"></line><line transform="translate(150,0)" x2="0" y2="5" style="fill: none; stroke: #888; stroke-width: 1; opacity: 1;"></line><line transform="translate(175,0)" x2="0" y2="5" style="fill: none; stroke: #888; stroke-width: 1; opacity: 1;"></line><line transform="translate(200,0)" x2="0" y2="5" style="fill: none; stroke: #888; stroke-width: 1; opacity: 1;"></line><line transform="translate(225,0)" x2="0" y2="5" style="fill: none; stroke: #888; stroke-width: 1; opacity: 1;"></line><line transform="translate(250,0)" x2="0" y2="5" style="fill: none; stroke: #888; stroke-width: 1; opacity: 1;"></line><line transform="translate(275,0)" x2="0" y2="5" style="fill: none; stroke: #888; stroke-width: 1; opacity: 1;"></line><line transform="translate(300,0)" x2="0" y2="5" style="fill: none; stroke: #888; stroke-width: 1; opacity: 1;"></line></g><g class="mark-text role-axis-label" style="pointer-events: none;"><text text-anchor="start" transform="translate(0,15)" style="font-family: sans-serif; font-size: 10px; fill: #000; opacity: 1;">-12M</text><text text-anchor="middle" transform="translate(25,15)" style="font-family: sans-serif; font-size: 10px; fill: #000; opacity: 0;">-10M</text><text text-anchor="middle" transform="translate(50,15)" style="font-family: sans-serif; font-size: 10px; fill: #000; opacity: 1;">-8M</text><text text-anchor="middle" transform="translate(75,15)" style="font-family: sans-serif; font-size: 10px; fill: #000; opacity: 0;">-6M</text><text text-anchor="middle" transform="translate(100,15)" style="font-family: sans-serif; font-size: 10px; fill: #000; opacity: 1;">-4M</text><text text-anchor="middle" transform="translate(125,15)" style="font-family: sans-serif; font-size: 10px; fill: #000; opacity: 0;">-2M</text><text text-anchor="middle" transform="translate(150,15)" style="font-family: sans-serif; font-size: 10px; fill: #000; opacity: 1;">0M</text><text text-anchor="middle" transform="translate(175,15)" style="font-family: sans-serif; font-size: 10px; fill: #000; opacity: 0;">2M</text><text text-anchor="middle" transform="translate(200,15)" style="font-family: sans-serif; font-size: 10px; fill: #000; opacity: 1;">4M</text><text text-anchor="middle" transform="translate(225,15)" style="font-family: sans-serif; font-size: 10px; fill: #000; opacity: 0;">6M</text><text text-anchor="middle" transform="translate(250,15)" style="font-family: sans-serif; font-size: 10px; fill: #000; opacity: 1;">8M</text><text text-anchor="middle" transform="translate(275,15)" style="font-family: sans-serif; font-size: 10px; fill: #000; opacity: 0;">10M</text><text text-anchor="end" transform="translate(300,15)" style="font-family: sans-serif; font-size: 10px; fill: #000; opacity: 1;">12M</text></g><g class="mark-rule role-axis-domain" style="pointer-events: none;"><line transform="translate(0,0)" x2="300" y2="0" style="fill: none; stroke: #888; stroke-width: 1; opacity: 1;"></line></g><g class="mark-text role-axis-title" style="pointer-events: none;"><text text-anchor="middle" transform="translate(150,30)" style="font-family: sans-serif; font-size: 11px; font-weight: bold; fill: #000; opacity: 1;">population</text></g></g></g></g><g class="mark-group role-scope"><g transform="translate(150,190)"><path class="background" d="M0,0h121.69225v9.473684210526317h-121.69225Z" style="fill: none;"></path><g clip-path="url(#clip1)"><g class="mark-group role-scope"><g transform="translate(0,0)"><path class="background" d="M0,0h0v0h0Z" style="fill: none;"></path><g><g class="mark-rect role-mark marks"><path d="M150,0h121.69225v9.473684210526317h-121.69225Z" style="fill: #ca8861;"></path><path d="M33.616075,0h116.383925v9.473684210526317h-116.383925Z" style="fill: #675193;"></path></g></g></g></g></g></g><g transform="translate(150,179.47368421052636)"><path class="background" d="M0,0h131.90182499999997v9.473684210526317h-131.90182499999997Z" style="fill: none;"></path><g clip-path="url(#clip2)"><g class="mark-group role-scope"><g transform="translate(0,0)"><path class="background" d="M0,0h0v0h0Z" style="fill: none;"></path><g><g class="mark-rect role-mark marks"><path d="M150,0h131.90182499999997v9.473684210526317h-131.90182499999997Z" style="fill: #ca8861;"></path><path d="M24.13045,0h125.86955v9.473684210526317h-125.86955Z" style="fill: #675193;"></path></g></g></g></g></g></g><g transform="translate(150,168.94736842105266)"><path class="background" d="M0,0h132.0404125v9.473684210526317h-132.0404125Z" style="fill: none;"></path><g clip-path="url(#clip3)"><g class="mark-group role-scope"><g transform="translate(0,0)"><path class="background" d="M0,0h0v0h0Z" style="fill: none;"></path><g><g class="mark-rect role-mark marks"><path d="M150,0h132.0404125v9.473684210526317h-132.0404125Z" style="fill: #ca8861;"></path><path d="M24.71845,0h125.28155v9.473684210526317h-125.28155Z" style="fill: #675193;"></path></g></g></g></g></g></g><g transform="translate(150,158.42105263157896)"><path class="background" d="M0,0h127.9677375v9.473684210526317h-127.9677375Z" style="fill: none;"></path><g clip-path="url(#clip4)"><g class="mark-group role-scope"><g transform="translate(0,0)"><path class="background" d="M0,0h0v0h0Z" style="fill: none;"></path><g><g class="mark-rect role-mark marks"><path d="M150,0h127.9677375v9.473684210526317h-127.9677375Z" style="fill: #ca8861;"></path><path d="M28.8416375,0h121.1583625v9.473684210526317h-121.1583625Z" style="fill: #675193;"></path></g></g></g></g></g></g><g transform="translate(150,147.89473684210526)"><path class="background" d="M0,0h121.6414375v9.473684210526317h-121.6414375Z" style="fill: none;"></path><g clip-path="url(#clip5)"><g class="mark-group role-scope"><g transform="translate(0,0)"><path class="background" d="M0,0h0v0h0Z" style="fill: none;"></path><g><g class="mark-rect role-mark marks"><path d="M150,0h121.6414375v9.473684210526317h-121.6414375Z" style="fill: #ca8861;"></path><path d="M33.44695,0h116.55305v9.473684210526317h-116.55305Z" style="fill: #675193;"></path></g></g></g></g></g></g><g transform="translate(150,137.36842105263162)"><path class="background" d="M0,0h120.74366250000003v9.473684210526317h-120.74366250000003Z" style="fill: none;"></path><g clip-path="url(#clip6)"><g class="mark-group role-scope"><g transform="translate(0,0)"><path class="background" d="M0,0h0v0h0Z" style="fill: none;"></path><g><g class="mark-rect role-mark marks"><path d="M150,0h120.74366250000003v9.473684210526317h-120.74366250000003Z" style="fill: #ca8861;"></path><path d="M31.018662499999998,0h118.9813375v9.473684210526317h-118.9813375Z" style="fill: #675193;"></path></g></g></g></g></g></g><g transform="translate(150,126.8421052631579)"><path class="background" d="M0,0h127.5734875v9.473684210526317h-127.5734875Z" style="fill: none;"></path><g clip-path="url(#clip7)"><g class="mark-group role-scope"><g transform="translate(0,0)"><path class="background" d="M0,0h0v0h0Z" style="fill: none;"></path><g><g class="mark-rect role-mark marks"><path d="M150,0h127.5734875v9.473684210526317h-127.5734875Z" style="fill: #ca8861;"></path><path d="M23.5088,0h126.49119999999999v9.473684210526317h-126.49119999999999Z" style="fill: #675193;"></path></g></g></g></g></g></g><g transform="translate(150,116.31578947368422)"><path class="background" d="M0,0h143.439775v9.473684210526317h-143.439775Z" style="fill: none;"></path><g clip-path="url(#clip8)"><g class="mark-group role-scope"><g transform="translate(0,0)"><path class="background" d="M0,0h0v0h0Z" style="fill: none;"></path><g><g class="mark-rect role-mark marks"><path d="M150,0h143.439775v9.473684210526317h-143.439775Z" style="fill: #ca8861;"></path><path d="M4.5544125,0h145.4455875v9.473684210526317h-145.4455875Z" style="fill: #675193;"></path></g></g></g></g></g></g><g transform="translate(150,105.78947368421053)"><path class="background" d="M0,0h141.50315v9.473684210526317h-141.50315Z" style="fill: none;"></path><g clip-path="url(#clip9)"><g class="mark-group role-scope"><g transform="translate(0,0)"><path class="background" d="M0,0h0v0h0Z" style="fill: none;"></path><g><g class="mark-rect role-mark marks"><path d="M150,0h141.50315v9.473684210526317h-141.50315Z" style="fill: #ca8861;"></path><path d="M6.392774999999999,0h143.607225v9.473684210526317h-143.607225Z" style="fill: #675193;"></path></g></g></g></g></g></g><g transform="translate(150,95.26315789473685)"><path class="background" d="M0,0h124.06257499999998v9.473684210526317h-124.06257499999998Z" style="fill: none;"></path><g clip-path="url(#clip10)"><g class="mark-group role-scope"><g transform="translate(0,0)"><path class="background" d="M0,0h0v0h0Z" style="fill: none;"></path><g><g class="mark-rect role-mark marks"><path d="M150,0h124.06257499999998v9.473684210526317h-124.06257499999998Z" style="fill: #ca8861;"></path><path d="M21.7343375,0h128.2656625v9.473684210526317h-128.2656625Z" style="fill: #675193;"></path></g></g></g></g></g></g><g transform="translate(150,84.73684210526316)"><path class="background" d="M0,0h106.349175v9.473684210526317h-106.349175Z" style="fill: none;"></path><g clip-path="url(#clip11)"><g class="mark-group role-scope"><g transform="translate(0,0)"><path class="background" d="M0,0h0v0h0Z" style="fill: none;"></path><g><g class="mark-rect role-mark marks"><path d="M150,0h106.349175v9.473684210526317h-106.349175Z" style="fill: #ca8861;"></path><path d="M38.6108375,0h111.3891625v9.473684210526317h-111.3891625Z" style="fill: #675193;"></path></g></g></g></g></g></g><g transform="translate(150,74.21052631578948)"><path class="background" d="M0,0h80.73852499999998v9.473684210526317h-80.73852499999998Z" style="fill: none;"></path><g clip-path="url(#clip12)"><g class="mark-group role-scope"><g transform="translate(0,0)"><path class="background" d="M0,0h0v0h0Z" style="fill: none;"></path><g><g class="mark-rect role-mark marks"><path d="M150,0h80.73852499999998v9.473684210526317h-80.73852499999998Z" style="fill: #ca8861;"></path><path d="M63.48415,0h86.51585v9.473684210526317h-86.51585Z" style="fill: #675193;"></path></g></g></g></g></g></g><g transform="translate(150,63.684210526315795)"><path class="background" d="M0,0h64.0424875v9.473684210526317h-64.0424875Z" style="fill: none;"></path><g clip-path="url(#clip13)"><g class="mark-group role-scope"><g transform="translate(0,0)"><path class="background" d="M0,0h0v0h0Z" style="fill: none;"></path><g><g class="mark-rect role-mark marks"><path d="M150,0h64.0424875v9.473684210526317h-64.0424875Z" style="fill: #ca8861;"></path><path d="M79.1379875,0h70.8620125v9.473684210526317h-70.8620125Z" style="fill: #675193;"></path></g></g></g></g></g></g><g transform="translate(150,53.15789473684211)"><path class="background" d="M0,0h55.6702875v9.473684210526317h-55.6702875Z" style="fill: none;"></path><g clip-path="url(#clip14)"><g class="mark-group role-scope"><g transform="translate(0,0)"><path class="background" d="M0,0h0v0h0Z" style="fill: none;"></path><g><g class="mark-rect role-mark marks"><path d="M150,0h55.6702875v9.473684210526317h-55.6702875Z" style="fill: #ca8861;"></path><path d="M89.9402,0h60.059799999999996v9.473684210526317h-60.059799999999996Z" style="fill: #675193;"></path></g></g></g></g></g></g><g transform="translate(150,42.631578947368425)"><path class="background" d="M0,0h47.401812500000005v9.473684210526317h-47.401812500000005Z" style="fill: none;"></path><g clip-path="url(#clip15)"><g class="mark-group role-scope"><g transform="translate(0,0)"><path class="background" d="M0,0h0v0h0Z" style="fill: none;"></path><g><g class="mark-rect role-mark marks"><path d="M150,0h47.401812500000005v9.473684210526317h-47.401812500000005Z" style="fill: #ca8861;"></path><path d="M85.1893125,0h64.8106875v9.473684210526317h-64.8106875Z" style="fill: #675193;"></path></g></g></g></g></g></g><g transform="translate(150,32.10526315789474)"><path class="background" d="M0,0h36.4081875v9.473684210526317h-36.4081875Z" style="fill: none;"></path><g clip-path="url(#clip16)"><g class="mark-group role-scope"><g transform="translate(0,0)"><path class="background" d="M0,0h0v0h0Z" style="fill: none;"></path><g><g class="mark-rect role-mark marks"><path d="M150,0h36.4081875v9.473684210526317h-36.4081875Z" style="fill: #ca8861;"></path><path d="M95.55445,0h54.44555v9.473684210526317h-54.44555Z" style="fill: #675193;"></path></g></g></g></g></g></g><g transform="translate(150,21.578947368421055)"><path class="background" d="M0,0h23.782974999999993v9.473684210526317h-23.782974999999993Z" style="fill: none;"></path><g clip-path="url(#clip17)"><g class="mark-group role-scope"><g transform="translate(0,0)"><path class="background" d="M0,0h0v0h0Z" style="fill: none;"></path><g><g class="mark-rect role-mark marks"><path d="M150,0h23.782974999999993v9.473684210526317h-23.782974999999993Z" style="fill: #ca8861;"></path><path d="M109.726275,0h40.273725v9.473684210526317h-40.273725Z" style="fill: #675193;"></path></g></g></g></g></g></g><g transform="translate(150,11.05263157894737)"><path class="background" d="M0,0h12.129462499999988v9.473684210526317h-12.129462499999988Z" style="fill: none;"></path><g clip-path="url(#clip18)"><g class="mark-group role-scope"><g transform="translate(0,0)"><path class="background" d="M0,0h0v0h0Z" style="fill: none;"></path><g><g class="mark-rect role-mark marks"><path d="M150,0h12.129462499999988v9.473684210526317h-12.129462499999988Z" style="fill: #ca8861;"></path><path d="M125.23555,0h24.764449999999997v9.473684210526317h-24.764449999999997Z" style="fill: #675193;"></path></g></g></g></g></g></g><g transform="translate(150,0.526315789473685)"><path class="background" d="M0,0h4.203787500000004v9.473684210526317h-4.203787500000004Z" style="fill: none;"></path><g clip-path="url(#clip19)"><g class="mark-group role-scope"><g transform="translate(0,0)"><path class="background" d="M0,0h0v0h0Z" style="fill: none;"></path><g><g class="mark-rect role-mark marks"><path d="M150,0h4.203787500000004v9.473684210526317h-4.203787500000004Z" style="fill: #ca8861;"></path><path d="M136.6927375,0h13.307262500000007v9.473684210526317h-13.307262500000007Z" style="fill: #675193;"></path></g></g></g></g></g></g></g><g class="mark-group role-legend"><g transform="translate(0,-29)"><path class="background" d="M0,0h102v11h-102Z" style="pointer-events: none; fill: none;"></path><g><g class="mark-group role-legend-entry"><g transform="translate(0,0)"><path class="background" d="M0,0h0v0h0Z" style="pointer-events: none; fill: none;"></path><g><g class="mark-group role-scope"><g transform="translate(0,0)"><path class="background" d="M0,0h52v11h-52Z" style="pointer-events: none; fill: none; opacity: 1;"></path><g><g class="mark-symbol role-legend-symbol" style="pointer-events: none;"><path transform="translate(6,6)" d="M-5,-5h10v10h-10Z" style="fill: #675193; stroke-width: 1.5; opacity: 1;"></path></g><g class="mark-text role-legend-label" style="pointer-events: none;"><text text-anchor="start" transform="translate(16,9)" style="font-family: sans-serif; font-size: 10px; fill: #000; opacity: 1;">Female</text></g></g></g><g transform="translate(62,0)"><path class="background" d="M0,0h40v11h-40Z" style="pointer-events: none; fill: none; opacity: 1;"></path><g><g class="mark-symbol role-legend-symbol" style="pointer-events: none;"><path transform="translate(6,6)" d="M-5,-5h10v10h-10Z" style="fill: #ca8861; stroke-width: 1.5; opacity: 1;"></path></g><g class="mark-text role-legend-label" style="pointer-events: none;"><text text-anchor="start" transform="translate(16,9)" style="font-family: sans-serif; font-size: 10px; fill: #000; opacity: 1;">Male</text></g></g></g></g></g></g></g></g></g></g></g></g></g></g></svg>