<svg class="marks" width="434" height="439" viewBox="0 0 434 439" version="1.1" xmlns="http://www.w3.org/2000/svg" xmlns:xlink="http://www.w3.org/1999/xlink"><rect width="434" height="439" style="fill: white;"></rect><defs><clipPath id="clip1"><rect x="0" y="0" width="155.17856666666668" height="18"></rect></clipPath><clipPath id="clip2"><rect x="0" y="0" width="167.82606666666666" height="18"></rect></clipPath><clipPath id="clip3"><rect x="0" y="0" width="167.04206666666667" height="18"></rect></clipPath><clipPath id="clip4"><rect x="0" y="0" width="161.54448333333335" height="18"></rect></clipPath><clipPath id="clip5"><rect x="0" y="0" width="155.40406666666667" height="18"></rect></clipPath><clipPath id="clip6"><rect x="0" y="0" width="158.64178333333334" height="18"></rect></clipPath><clipPath id="clip7"><rect x="0" y="0" width="168.65493333333333" height="18"></rect></clipPath><clipPath id="clip8"><rect x="0" y="0" width="193.92745" height="18"></rect></clipPath><clipPath id="clip9"><rect x="0" y="0" width="191.4763" height="18"></rect></clipPath><clipPath id="clip10"><rect x="0" y="0" width="171.02088333333333" height="18"></rect></clipPath><clipPath id="clip11"><rect x="0" y="0" width="148.51888333333335" height="18"></rect></clipPath><clipPath id="clip12"><rect x="0" y="0" width="115.35446666666667" height="18"></rect></clipPath><clipPath id="clip13"><rect x="0" y="0" width="94.48268333333333" height="18"></rect></clipPath><clipPath id="clip14"><rect x="0" y="0" width="80.07973333333334" height="18"></rect></clipPath><clipPath id="clip15"><rect x="0" y="0" width="86.41425000000001" height="18"></rect></clipPath><clipPath id="clip16"><rect x="0" y="0" width="72.59406666666666" height="18"></rect></clipPath><clipPath id="clip17"><rect x="0" y="0" width="53.69829999999999" height="18"></rect></clipPath><clipPath id="clip18"><rect x="0" y="0" width="33.01926666666668" height="18"></rect></clipPath><clipPath id="clip19"><rect x="0" y="0" width="17.743016666666676" height="18"></rect></clipPath><clipPath id="clip20"><rect x="0" y="0" width="162.25633333333334" height="18"></rect></clipPath><clipPath id="clip21"><rect x="0" y="0" width="175.8691" height="18"></rect></clipPath><clipPath id="clip22"><rect x="0" y="0" width="176.05388333333335" height="18"></rect></clipPath><clipPath id="clip23"><rect x="0" y="0" width="170.62365" height="18"></rect></clipPath><clipPath id="clip24"><rect x="0" y="0" width="162.18858333333333" height="18"></rect></clipPath><clipPath id="clip25"><rect x="0" y="0" width="160.99155000000002" height="18"></rect></clipPath><clipPath id="clip26"><rect x="0" y="0" width="170.09798333333333" height="18"></rect></clipPath><clipPath id="clip27"><rect x="0" y="0" width="191.25303333333335" height="18"></rect></clipPath><clipPath id="clip28"><rect x="0" y="0" width="188.67086666666665" height="18"></rect></clipPath><clipPath id="clip29"><rect x="0" y="0" width="165.41676666666666" height="18"></rect></clipPath><clipPath id="clip30"><rect x="0" y="0" width="141.7989" height="18"></rect></clipPath><clipPath id="clip31"><rect x="0" y="0" width="107.65136666666666" height="18"></rect></clipPath><clipPath id="clip32"><rect x="0" y="0" width="85.38998333333333" height="18"></rect></clipPath><clipPath id="clip33"><rect x="0" y="0" width="74.22705" height="18"></rect></clipPath><clipPath id="clip34"><rect x="0" y="0" width="63.20241666666667" height="18"></rect></clipPath><clipPath id="clip35"><rect x="0" y="0" width="48.54425" height="18"></rect></clipPath><clipPath id="clip36"><rect x="0" y="0" width="31.710633333333334" height="18"></rect></clipPath><clipPath id="clip37"><rect x="0" y="0" width="16.172616666666666" height="18"></rect></clipPath><clipPath id="clip38"><rect x="0" y="0" width="5.60505" height="18"></rect></clipPath></defs><g transform="translate(6,22)"><g class="mark-group role-frame root"><g transform="translate(0,0)"><path class="background" d="M0,0h0v0h0Z" style="fill: none;"></path><g><g class="mark-group role-scope concat_0_group"><g transform="translate(0,0)"><path class="background" d="M0,0h200v380h-200Z" style="fill: none;"></path><g><g class="mark-group role-axis"><g transform="translate(0.5,380.5)"><path class="background" d="M0,0h0v0h0Z" style="pointer-events: none; fill: none;"></path><g><g class="mark-rule role-axis-tick" style="pointer-events: none;"><line transform="translate(200,0)" x2="0" y2="5" style="fill: none; stroke: #888; stroke-width: 1; opacity: 1;"></line><line transform="translate(167,0)" x2="0" y2="5" style="fill: none; stroke: #888; stroke-width: 1; opacity: 1;"></line><line transform="translate(133,0)" x2="0" y2="5" style="fill: none; stroke: #888; stroke-width: 1; opacity: 1;"></line><line transform="translate(100,0)" x2="0" y2="5" style="fill: none; stroke: #888; stroke-width: 1; opacity: 1;"></line><line transform="translate(67,0)" x2="0" y2="5" style="fill: none; stroke: #888; stroke-width: 1; opacity: 1;"></line><line transform="translate(33,0)" x2="0" y2="5" style="fill: none; stroke: #888; stroke-width: 1; opacity: 1;"></line><line transform="translate(0,0)" x2="0" y2="5" style="fill: none; stroke: #888; stroke-width: 1; opacity: 1;"></line></g><g class="mark-text role-axis-label" style="pointer-events: none;"><text text-anchor="end" transform="translate(200,15)" style="font-family: sans-serif; font-size: 10px; fill: #000; opacity: 1;">0M</text><text text-anchor="middle" transform="translate(166.66666666666669,15)" style="font-family: sans-serif; font-size: 10px; fill: #000; opacity: 1;">2M</text><text text-anchor="middle" transform="translate(133.33333333333334,15)" style="font-family: sans-serif; font-size: 10px; fill: #000; opacity: 1;">4M</text><text text-anchor="middle" transform="translate(100,15)" style="font-family: sans-serif; font-size: 10px; fill: #000; opacity: 1;">6M</text><text text-anchor="middle" transform="translate(66.66666666666669,15)" style="font-family: sans-serif; font-size: 10px; fill: #000; opacity: 1;">8M</text><text text-anchor="middle" transform="translate(33.333333333333314,15)" style="font-family: sans-serif; font-size: 10px; fill: #000; opacity: 1;">10M</text><text text-anchor="start" transform="translate(0,15)" style="font-family: sans-serif; font-size: 10px; fill: #000; opacity: 1;">12M</text></g><g class="mark-rule role-axis-domain" style="pointer-events: none;"><line transform="translate(200,0)" x2="-200" y2="0" style="fill: none; stroke: #888; stroke-width: 1; opacity: 1;"></line></g><g class="mark-text role-axis-title" style="pointer-events: none;"><text text-anchor="middle" transform="translate(100,30)" style="font-family: sans-serif; font-size: 11px; font-weight: bold; fill: #000; opacity: 1;">population</text></g></g></g></g><g class="mark-group role-scope"><g transform="translate(44.82143333333332,361)"><path class="background" d="M0,0h155.17856666666668v18h-155.17856666666668Z" style="fill: none;"></path><g clip-path="url(#clip1)"><g class="mark-group role-scope"><g transform="translate(-44.82143333333332,0)"><path class="background" d="M0,0h0v18h0Z" style="fill: none;"></path><g><g class="mark-rect role-mark concat_0_marks"><path d="M44.82143333333332,0h155.17856666666668v18h-155.17856666666668Z" style="fill: #675193;"></path></g></g></g></g></g></g><g transform="translate(32.17393333333334,341)"><path class="background" d="M0,0h167.82606666666666v18h-167.82606666666666Z" style="fill: none;"></path><g clip-path="url(#clip2)"><g class="mark-group role-scope"><g transform="translate(-32.17393333333334,0)"><path class="background" d="M0,0h0v18h0Z" style="fill: none;"></path><g><g class="mark-rect role-mark concat_0_marks"><path d="M32.17393333333334,0h167.82606666666666v18h-167.82606666666666Z" style="fill: #675193;"></path></g></g></g></g></g></g><g transform="translate(32.95793333333333,321)"><path class="background" d="M0,0h167.04206666666667v18h-167.04206666666667Z" style="fill: none;"></path><g clip-path="url(#clip3)"><g class="mark-group role-scope"><g transform="translate(-32.95793333333333,0)"><path class="background" d="M0,0h0v18h0Z" style="fill: none;"></path><g><g class="mark-rect role-mark concat_0_marks"><path d="M32.95793333333333,0h167.04206666666667v18h-167.04206666666667Z" style="fill: #675193;"></path></g></g></g></g></g></g><g transform="translate(38.455516666666654,301)"><path class="background" d="M0,0h161.54448333333335v18h-161.54448333333335Z" style="fill: none;"></path><g clip-path="url(#clip4)"><g class="mark-group role-scope"><g transform="translate(-38.455516666666654,0)"><path class="background" d="M0,0h0v18h0Z" style="fill: none;"></path><g><g class="mark-rect role-mark concat_0_marks"><path d="M38.455516666666654,0h161.54448333333335v18h-161.54448333333335Z" style="fill: #675193;"></path></g></g></g></g></g></g><g transform="translate(44.595933333333335,281)"><path class="background" d="M0,0h155.40406666666667v18h-155.40406666666667Z" style="fill: none;"></path><g clip-path="url(#clip5)"><g class="mark-group role-scope"><g transform="translate(-44.595933333333335,0)"><path class="background" d="M0,0h0v18h0Z" style="fill: none;"></path><g><g class="mark-rect role-mark concat_0_marks"><path d="M44.595933333333335,0h155.40406666666667v18h-155.40406666666667Z" style="fill: #675193;"></path></g></g></g></g></g></g><g transform="translate(41.358216666666664,261)"><path class="background" d="M0,0h158.64178333333334v18h-158.64178333333334Z" style="fill: none;"></path><g clip-path="url(#clip6)"><g class="mark-group role-scope"><g transform="translate(-41.358216666666664,0)"><path class="background" d="M0,0h0v18h0Z" style="fill: none;"></path><g><g class="mark-rect role-mark concat_0_marks"><path d="M41.358216666666664,0h158.64178333333334v18h-158.64178333333334Z" style="fill: #675193;"></path></g></g></g></g></g></g><g transform="translate(31.345066666666668,241)"><path class="background" d="M0,0h168.65493333333333v18h-168.65493333333333Z" style="fill: none;"></path><g clip-path="url(#clip7)"><g class="mark-group role-scope"><g transform="translate(-31.345066666666668,0)"><path class="background" d="M0,0h0v18h0Z" style="fill: none;"></path><g><g class="mark-rect role-mark concat_0_marks"><path d="M31.345066666666668,0h168.65493333333333v18h-168.65493333333333Z" style="fill: #675193;"></path></g></g></g></g></g></g><g transform="translate(6.072550000000007,221)"><path class="background" d="M0,0h193.92745v18h-193.92745Z" style="fill: none;"></path><g clip-path="url(#clip8)"><g class="mark-group role-scope"><g transform="translate(-6.072550000000007,0)"><path class="background" d="M0,0h0v18h0Z" style="fill: none;"></path><g><g class="mark-rect role-mark concat_0_marks"><path d="M6.072550000000007,0h193.92745v18h-193.92745Z" style="fill: #675193;"></path></g></g></g></g></g></g><g transform="translate(8.523699999999991,201)"><path class="background" d="M0,0h191.4763v18h-191.4763Z" style="fill: none;"></path><g clip-path="url(#clip9)"><g class="mark-group role-scope"><g transform="translate(-8.523699999999991,0)"><path class="background" d="M0,0h0v18h0Z" style="fill: none;"></path><g><g class="mark-rect role-mark concat_0_marks"><path d="M8.523699999999991,0h191.4763v18h-191.4763Z" style="fill: #675193;"></path></g></g></g></g></g></g><g transform="translate(28.97911666666667,181)"><path class="background" d="M0,0h171.02088333333333v18h-171.02088333333333Z" style="fill: none;"></path><g clip-path="url(#clip10)"><g class="mark-group role-scope"><g transform="translate(-28.97911666666667,0)"><path class="background" d="M0,0h0v18h0Z" style="fill: none;"></path><g><g class="mark-rect role-mark concat_0_marks"><path d="M28.97911666666667,0h171.02088333333333v18h-171.02088333333333Z" style="fill: #675193;"></path></g></g></g></g></g></g><g transform="translate(51.48111666666665,161)"><path class="background" d="M0,0h148.51888333333335v18h-148.51888333333335Z" style="fill: none;"></path><g clip-path="url(#clip11)"><g class="mark-group role-scope"><g transform="translate(-51.48111666666665,0)"><path class="background" d="M0,0h0v18h0Z" style="fill: none;"></path><g><g class="mark-rect role-mark concat_0_marks"><path d="M51.48111666666665,0h148.51888333333335v18h-148.51888333333335Z" style="fill: #675193;"></path></g></g></g></g></g></g><g transform="translate(84.64553333333333,141)"><path class="background" d="M0,0h115.35446666666667v18h-115.35446666666667Z" style="fill: none;"></path><g clip-path="url(#clip12)"><g class="mark-group role-scope"><g transform="translate(-84.64553333333333,0)"><path class="background" d="M0,0h0v18h0Z" style="fill: none;"></path><g><g class="mark-rect role-mark concat_0_marks"><path d="M84.64553333333333,0h115.35446666666667v18h-115.35446666666667Z" style="fill: #675193;"></path></g></g></g></g></g></g><g transform="translate(105.51731666666667,121)"><path class="background" d="M0,0h94.48268333333333v18h-94.48268333333333Z" style="fill: none;"></path><g clip-path="url(#clip13)"><g class="mark-group role-scope"><g transform="translate(-105.51731666666667,0)"><path class="background" d="M0,0h0v18h0Z" style="fill: none;"></path><g><g class="mark-rect role-mark concat_0_marks"><path d="M105.51731666666667,0h94.48268333333333v18h-94.48268333333333Z" style="fill: #675193;"></path></g></g></g></g></g></g><g transform="translate(119.92026666666666,101)"><path class="background" d="M0,0h80.07973333333334v18h-80.07973333333334Z" style="fill: none;"></path><g clip-path="url(#clip14)"><g class="mark-group role-scope"><g transform="translate(-119.92026666666666,0)"><path class="background" d="M0,0h0v18h0Z" style="fill: none;"></path><g><g class="mark-rect role-mark concat_0_marks"><path d="M119.92026666666666,0h80.07973333333334v18h-80.07973333333334Z" style="fill: #675193;"></path></g></g></g></g></g></g><g transform="translate(113.58574999999999,81)"><path class="background" d="M0,0h86.41425000000001v18h-86.41425000000001Z" style="fill: none;"></path><g clip-path="url(#clip15)"><g class="mark-group role-scope"><g transform="translate(-113.58574999999999,0)"><path class="background" d="M0,0h0v18h0Z" style="fill: none;"></path><g><g class="mark-rect role-mark concat_0_marks"><path d="M113.58574999999999,0h86.41425000000001v18h-86.41425000000001Z" style="fill: #675193;"></path></g></g></g></g></g></g><g transform="translate(127.40593333333334,61)"><path class="background" d="M0,0h72.59406666666666v18h-72.59406666666666Z" style="fill: none;"></path><g clip-path="url(#clip16)"><g class="mark-group role-scope"><g transform="translate(-127.40593333333334,0)"><path class="background" d="M0,0h0v18h0Z" style="fill: none;"></path><g><g class="mark-rect role-mark concat_0_marks"><path d="M127.40593333333334,0h72.59406666666666v18h-72.59406666666666Z" style="fill: #675193;"></path></g></g></g></g></g></g><g transform="translate(146.3017,41)"><path class="background" d="M0,0h53.69829999999999v18h-53.69829999999999Z" style="fill: none;"></path><g clip-path="url(#clip17)"><g class="mark-group role-scope"><g transform="translate(-146.3017,0)"><path class="background" d="M0,0h0v18h0Z" style="fill: none;"></path><g><g class="mark-rect role-mark concat_0_marks"><path d="M146.3017,0h53.69829999999999v18h-53.69829999999999Z" style="fill: #675193;"></path></g></g></g></g></g></g><g transform="translate(166.98073333333332,21)"><path class="background" d="M0,0h33.01926666666668v18h-33.01926666666668Z" style="fill: none;"></path><g clip-path="url(#clip18)"><g class="mark-group role-scope"><g transform="translate(-166.98073333333332,0)"><path class="background" d="M0,0h0v18h0Z" style="fill: none;"></path><g><g class="mark-rect role-mark concat_0_marks"><path d="M166.98073333333332,0h33.01926666666668v18h-33.01926666666668Z" style="fill: #675193;"></path></g></g></g></g></g></g><g transform="translate(182.25698333333332,1)"><path class="background" d="M0,0h17.743016666666676v18h-17.743016666666676Z" style="fill: none;"></path><g clip-path="url(#clip19)"><g class="mark-group role-scope"><g transform="translate(-182.25698333333332,0)"><path class="background" d="M0,0h0v18h0Z" style="fill: none;"></path><g><g class="mark-rect role-mark concat_0_marks"><path d="M182.25698333333332,0h17.743016666666676v18h-17.743016666666676Z" style="fill: #675193;"></path></g></g></g></g></g></g></g><g class="mark-group role-title"><g transform="translate(100,-17)"><path class="background" d="M0,0h0v0h0Z" style="pointer-events: none; fill: none;"></path><g><g class="mark-text role-title-text" style="pointer-events: none;"><text text-anchor="middle" transform="translate(0,10)" style="font-family: sans-serif; font-size: 13px; font-weight: bold; fill: #000; opacity: 1;">Female</text></g></g></g></g></g></g></g><g class="mark-group role-scope concat_1_group"><g transform="translate(201,0)"><path class="background" d="M0,0h20v380h-20Z" style="fill: none;"></path><g><g class="mark-text role-mark concat_1_marks"><text text-anchor="middle" transform="translate(10,373)" style="font-family: sans-serif; font-size: 11px; fill: black;">0</text><text text-anchor="middle" transform="translate(10,373)" style="font-family: sans-serif; font-size: 11px; fill: black;">0</text><text text-anchor="middle" transform="translate(10,353)" style="font-family: sans-serif; font-size: 11px; fill: black;">5</text><text text-anchor="middle" transform="translate(10,353)" style="font-family: sans-serif; font-size: 11px; fill: black;">5</text><text text-anchor="middle" transform="translate(10,333)" style="font-family: sans-serif; font-size: 11px; fill: black;">10</text><text text-anchor="middle" transform="translate(10,333)" style="font-family: sans-serif; font-size: 11px; fill: black;">10</text><text text-anchor="middle" transform="translate(10,313)" style="font-family: sans-serif; font-size: 11px; fill: black;">15</text><text text-anchor="middle" transform="translate(10,313)" style="font-family: sans-serif; font-size: 11px; fill: black;">15</text><text text-anchor="middle" transform="translate(10,293)" style="font-family: sans-serif; font-size: 11px; fill: black;">20</text><text text-anchor="middle" transform="translate(10,293)" style="font-family: sans-serif; font-size: 11px; fill: black;">20</text><text text-anchor="middle" transform="translate(10,273)" style="font-family: sans-serif; font-size: 11px; fill: black;">25</text><text text-anchor="middle" transform="translate(10,273)" style="font-family: sans-serif; font-size: 11px; fill: black;">25</text><text text-anchor="middle" transform="translate(10,253)" style="font-family: sans-serif; font-size: 11px; fill: black;">30</text><text text-anchor="middle" transform="translate(10,253)" style="font-family: sans-serif; font-size: 11px; fill: black;">30</text><text text-anchor="middle" transform="translate(10,233)" style="font-family: sans-serif; font-size: 11px; fill: black;">35</text><text text-anchor="middle" transform="translate(10,233)" style="font-family: sans-serif; font-size: 11px; fill: black;">35</text><text text-anchor="middle" transform="translate(10,213)" style="font-family: sans-serif; font-size: 11px; fill: black;">40</text><text text-anchor="middle" transform="translate(10,213)" style="font-family: sans-serif; font-size: 11px; fill: black;">40</text><text text-anchor="middle" transform="translate(10,193)" style="font-family: sans-serif; font-size: 11px; fill: black;">45</text><text text-anchor="middle" transform="translate(10,193)" style="font-family: sans-serif; font-size: 11px; fill: black;">45</text><text text-anchor="middle" transform="translate(10,173)" style="font-family: sans-serif; font-size: 11px; fill: black;">50</text><text text-anchor="middle" transform="translate(10,173)" style="font-family: sans-serif; font-size: 11px; fill: black;">50</text><text text-anchor="middle" transform="translate(10,153)" style="font-family: sans-serif; font-size: 11px; fill: black;">55</text><text text-anchor="middle" transform="translate(10,153)" style="font-family: sans-serif; font-size: 11px; fill: black;">55</text><text text-anchor="middle" transform="translate(10,133)" style="font-family: sans-serif; font-size: 11px; fill: black;">60</text><text text-anchor="middle" transform="translate(10,133)" style="font-family: sans-serif; font-size: 11px; fill: black;">60</text><text text-anchor="middle" transform="translate(10,113)" style="font-family: sans-serif; font-size: 11px; fill: black;">65</text><text text-anchor="middle" transform="translate(10,113)" style="font-family: sans-serif; font-size: 11px; fill: black;">65</text><text text-anchor="middle" transform="translate(10,93)" style="font-family: sans-serif; font-size: 11px; fill: black;">70</text><text text-anchor="middle" transform="translate(10,93)" style="font-family: sans-serif; font-size: 11px; fill: black;">70</text><text text-anchor="middle" transform="translate(10,73)" style="font-family: sans-serif; font-size: 11px; fill: black;">75</text><text text-anchor="middle" transform="translate(10,73)" style="font-family: sans-serif; font-size: 11px; fill: black;">75</text><text text-anchor="middle" transform="translate(10,53)" style="font-family: sans-serif; font-size: 11px; fill: black;">80</text><text text-anchor="middle" transform="translate(10,53)" style="font-family: sans-serif; font-size: 11px; fill: black;">80</text><text text-anchor="middle" transform="translate(10,33)" style="font-family: sans-serif; font-size: 11px; fill: black;">85</text><text text-anchor="middle" transform="translate(10,33)" style="font-family: sans-serif; font-size: 11px; fill: black;">85</text><text text-anchor="middle" transform="translate(10,13)" style="font-family: sans-serif; font-size: 11px; fill: black;">90</text><text text-anchor="middle" transform="translate(10,13)" style="font-family: sans-serif; font-size: 11px; fill: black;">90</text></g></g></g></g><g class="mark-group role-scope concat_2_group"><g transform="translate(222,0)"><path class="background" d="M0,0h200v380h-200Z" style="fill: none;"></path><g><g class="mark-group role-axis"><g transform="translate(0.5,380.5)"><path class="background" d="M0,0h0v0h0Z" style="pointer-events: none; fill: none;"></path><g><g class="mark-rule role-axis-tick" style="pointer-events: none;"><line transform="translate(0,0)" x2="0" y2="5" style="fill: none; stroke: #888; stroke-width: 1; opacity: 1;"></line><line transform="translate(33,0)" x2="0" y2="5" style="fill: none; stroke: #888; stroke-width: 1; opacity: 1;"></line><line transform="translate(67,0)" x2="0" y2="5" style="fill: none; stroke: #888; stroke-width: 1; opacity: 1;"></line><line transform="translate(100,0)" x2="0" y2="5" style="fill: none; stroke: #888; stroke-width: 1; opacity: 1;"></line><line transform="translate(133,0)" x2="0" y2="5" style="fill: none; stroke: #888; stroke-width: 1; opacity: 1;"></line><line transform="translate(167,0)" x2="0" y2="5" style="fill: none; stroke: #888; stroke-width: 1; opacity: 1;"></line><line transform="translate(200,0)" x2="0" y2="5" style="fill: none; stroke: #888; stroke-width: 1; opacity: 1;"></line></g><g class="mark-text role-axis-label" style="pointer-events: none;"><text text-anchor="start" transform="translate(0,15)" style="font-family: sans-serif; font-size: 10px; fill: #000; opacity: 1;">0M</text><text text-anchor="middle" transform="translate(33.33333333333333,15)" style="font-family: sans-serif; font-size: 10px; fill: #000; opacity: 1;">2M</text><text text-anchor="middle" transform="translate(66.66666666666666,15)" style="font-family: sans-serif; font-size: 10px; fill: #000; opacity: 1;">4M</text><text text-anchor="middle" transform="translate(100,15)" style="font-family: sans-serif; font-size: 10px; fill: #000; opacity: 1;">6M</text><text text-anchor="middle" transform="translate(133.33333333333331,15)" style="font-family: sans-serif; font-size: 10px; fill: #000; opacity: 1;">8M</text><text text-anchor="middle" transform="translate(166.66666666666669,15)" style="font-family: sans-serif; font-size: 10px; fill: #000; opacity: 1;">10M</text><text text-anchor="end" transform="translate(200,15)" style="font-family: sans-serif; font-size: 10px; fill: #000; opacity: 1;">12M</text></g><g class="mark-rule role-axis-domain" style="pointer-events: none;"><line transform="translate(0,0)" x2="200" y2="0" style="fill: none; stroke: #888; stroke-width: 1; opacity: 1;"></line></g><g class="mark-text role-axis-title" style="pointer-events: none;"><text text-anchor="middle" transform="translate(100,30)" style="font-family: sans-serif; font-size: 11px; font-weight: bold; fill: #000; opacity: 1;">population</text></g></g></g></g><g class="mark-group role-scope"><g transform="translate(0,361)"><path class="background" d="M0,0h162.25633333333334v18h-162.25633333333334Z" style="fill: none;"></path><g clip-path="url(#clip20)"><g class="mark-group role-scope"><g transform="translate(0,0)"><path class="background" d="M0,0h0v18h0Z" style="fill: none;"></path><g><g class="mark-rect role-mark concat_2_marks"><path d="M0,0h162.25633333333334v18h-162.25633333333334Z" style="fill: #ca8861;"></path></g></g></g></g></g></g><g transform="translate(0,341)"><path class="background" d="M0,0h175.8691v18h-175.8691Z" style="fill: none;"></path><g clip-path="url(#clip21)"><g class="mark-group role-scope"><g transform="translate(0,0)"><path class="background" d="M0,0h0v18h0Z" style="fill: none;"></path><g><g class="mark-rect role-mark concat_2_marks"><path d="M0,0h175.8691v18h-175.8691Z" style="fill: #ca8861;"></path></g></g></g></g></g></g><g transform="translate(0,321)"><path class="background" d="M0,0h176.05388333333335v18h-176.05388333333335Z" style="fill: none;"></path><g clip-path="url(#clip22)"><g class="mark-group role-scope"><g transform="translate(0,0)"><path class="background" d="M0,0h0v18h0Z" style="fill: none;"></path><g><g class="mark-rect role-mark concat_2_marks"><path d="M0,0h176.05388333333335v18h-176.05388333333335Z" style="fill: #ca8861;"></path></g></g></g></g></g></g><g transform="translate(0,301)"><path class="background" d="M0,0h170.62365v18h-170.62365Z" style="fill: none;"></path><g clip-path="url(#clip23)"><g class="mark-group role-scope"><g transform="translate(0,0)"><path class="background" d="M0,0h0v18h0Z" style="fill: none;"></path><g><g class="mark-rect role-mark concat_2_marks"><path d="M0,0h170.62365v18h-170.62365Z" style="fill: #ca8861;"></path></g></g></g></g></g></g><g transform="translate(0,281)"><path class="background" d="M0,0h162.18858333333333v18h-162.18858333333333Z" style="fill: none;"></path><g clip-path="url(#clip24)"><g class="mark-group role-scope"><g transform="translate(0,0)"><path class="background" d="M0,0h0v18h0Z" style="fill: none;"></path><g><g class="mark-rect role-mark concat_2_marks"><path d="M0,0h162.18858333333333v18h-162.18858333333333Z" style="fill: #ca8861;"></path></g></g></g></g></g></g><g transform="translate(0,261)"><path class="background" d="M0,0h160.99155000000002v18h-160.99155000000002Z" style="fill: none;"></path><g clip-path="url(#clip25)"><g class="mark-group role-scope"><g transform="translate(0,0)"><path class="background" d="M0,0h0v18h0Z" style="fill: none;"></path><g><g class="mark-rect role-mark concat_2_marks"><path d="M0,0h160.99155000000002v18h-160.99155000000002Z" style="fill: #ca8861;"></path></g></g></g></g></g></g><g transform="translate(0,241)"><path class="background" d="M0,0h170.09798333333333v18h-170.09798333333333Z" style="fill: none;"></path><g clip-path="url(#clip26)"><g class="mark-group role-scope"><g transform="translate(0,0)"><path class="background" d="M0,0h0v18h0Z" style="fill: none;"></path><g><g class="mark-rect role-mark concat_2_marks"><path d="M0,0h170.09798333333333v18h-170.09798333333333Z" style="fill: #ca8861;"></path></g></g></g></g></g></g><g transform="translate(0,221)"><path class="background" d="M0,0h191.25303333333335v18h-191.25303333333335Z" style="fill: none;"></path><g clip-path="url(#clip27)"><g class="mark-group role-scope"><g transform="translate(0,0)"><path class="background" d="M0,0h0v18h0Z" style="fill: none;"></path><g><g class="mark-rect role-mark concat_2_marks"><path d="M0,0h191.25303333333335v18h-191.25303333333335Z" style="fill: #ca8861;"></path></g></g></g></g></g></g><g transform="translate(0,201)"><path class="background" d="M0,0h188.67086666666665v18h-188.67086666666665Z" style="fill: none;"></path><g clip-path="url(#clip28)"><g class="mark-group role-scope"><g transform="translate(0,0)"><path class="background" d="M0,0h0v18h0Z" style="fill: none;"></path><g><g class="mark-rect role-mark concat_2_marks"><path d="M0,0h188.67086666666665v18h-188.67086666666665Z" style="fill: #ca8861;"></path></g></g></g></g></g></g><g transform="translate(0,181)"><path class="background" d="M0,0h165.41676666666666v18h-165.41676666666666Z" style="fill: none;"></path><g clip-path="url(#clip29)"><g class="mark-group role-scope"><g transform="translate(0,0)"><path class="background" d="M0,0h0v18h0Z" style="fill: none;"></path><g><g class="mark-rect role-mark concat_2_marks"><path d="M0,0h165.41676666666666v18h-165.41676666666666Z" style="fill: #ca8861;"></path></g></g></g></g></g></g><g transform="translate(0,161)"><path class="background" d="M0,0h141.7989v18h-141.7989Z" style="fill: none;"></path><g clip-path="url(#clip30)"><g class="mark-group role-scope"><g transform="translate(0,0)"><path class="background" d="M0,0h0v18h0Z" style="fill: none;"></path><g><g class="mark-rect role-mark concat_2_marks"><path d="M0,0h141.7989v18h-141.7989Z" style="fill: #ca8861;"></path></g></g></g></g></g></g><g transform="translate(0,141)"><path class="background" d="M0,0h107.65136666666666v18h-107.65136666666666Z" style="fill: none;"></path><g clip-path="url(#clip31)"><g class="mark-group role-scope"><g transform="translate(0,0)"><path class="background" d="M0,0h0v18h0Z" style="fill: none;"></path><g><g class="mark-rect role-mark concat_2_marks"><path d="M0,0h107.65136666666666v18h-107.65136666666666Z" style="fill: #ca8861;"></path></g></g></g></g></g></g><g transform="translate(0,121)"><path class="background" d="M0,0h85.38998333333333v18h-85.38998333333333Z" style="fill: none;"></path><g clip-path="url(#clip32)"><g class="mark-group role-scope"><g transform="translate(0,0)"><path class="background" d="M0,0h0v18h0Z" style="fill: none;"></path><g><g class="mark-rect role-mark concat_2_marks"><path d="M0,0h85.38998333333333v18h-85.38998333333333Z" style="fill: #ca8861;"></path></g></g></g></g></g></g><g transform="translate(0,101)"><path class="background" d="M0,0h74.22705v18h-74.22705Z" style="fill: none;"></path><g clip-path="url(#clip33)"><g class="mark-group role-scope"><g transform="translate(0,0)"><path class="background" d="M0,0h0v18h0Z" style="fill: none;"></path><g><g class="mark-rect role-mark concat_2_marks"><path d="M0,0h74.22705v18h-74.22705Z" style="fill: #ca8861;"></path></g></g></g></g></g></g><g transform="translate(0,81)"><path class="background" d="M0,0h63.20241666666667v18h-63.20241666666667Z" style="fill: none;"></path><g clip-path="url(#clip34)"><g class="mark-group role-scope"><g transform="translate(0,0)"><path class="background" d="M0,0h0v18h0Z" style="fill: none;"></path><g><g class="mark-rect role-mark concat_2_marks"><path d="M0,0h63.20241666666667v18h-63.20241666666667Z" style="fill: #ca8861;"></path></g></g></g></g></g></g><g transform="translate(0,61)"><path class="background" d="M0,0h48.54425v18h-48.54425Z" style="fill: none;"></path><g clip-path="url(#clip35)"><g class="mark-group role-scope"><g transform="translate(0,0)"><path class="background" d="M0,0h0v18h0Z" style="fill: none;"></path><g><g class="mark-rect role-mark concat_2_marks"><path d="M0,0h48.54425v18h-48.54425Z" style="fill: #ca8861;"></path></g></g></g></g></g></g><g transform="translate(0,41)"><path class="background" d="M0,0h31.710633333333334v18h-31.710633333333334Z" style="fill: none;"></path><g clip-path="url(#clip36)"><g class="mark-group role-scope"><g transform="translate(0,0)"><path class="background" d="M0,0h0v18h0Z" style="fill: none;"></path><g><g class="mark-rect role-mark concat_2_marks"><path d="M0,0h31.710633333333334v18h-31.710633333333334Z" style="fill: #ca8861;"></path></g></g></g></g></g></g><g transform="translate(0,21)"><path class="background" d="M0,0h16.172616666666666v18h-16.172616666666666Z" style="fill: none;"></path><g clip-path="url(#clip37)"><g class="mark-group role-scope"><g transform="translate(0,0)"><path class="background" d="M0,0h0v18h0Z" style="fill: none;"></path><g><g class="mark-rect role-mark concat_2_marks"><path d="M0,0h16.172616666666666v18h-16.172616666666666Z" style="fill: #ca8861;"></path></g></g></g></g></g></g><g transform="translate(0,1)"><path class="background" d="M0,0h5.60505v18h-5.60505Z" style="fill: none;"></path><g clip-path="url(#clip38)"><g class="mark-group role-scope"><g transform="translate(0,0)"><path class="background" d="M0,0h0v18h0Z" style="fill: none;"></path><g><g class="mark-rect role-mark concat_2_marks"><path d="M0,0h5.60505v18h-5.60505Z" style="fill: #ca8861;"></path></g></g></g></g></g></g></g><g class="mark-group role-title"><g transform="translate(100,-17)"><path class="background" d="M0,0h0v0h0Z" style="pointer-events: none; fill: none;"></path><g><g class="mark-text role-title-text" style="pointer-events: none;"><text text-anchor="middle" transform="translate(0,10)" style="font-family: sans-serif; font-size: 13px; font-weight: bold; fill: #000; opacity: 1;">Male</text></g></g></g></g></g></g></g></g></g></g></g></svg>