<svg class="marks" width="826" height="297" viewBox="0 0 826 297" version="1.1" xmlns="http://www.w3.org/2000/svg" xmlns:xlink="http://www.w3.org/1999/xlink"><rect width="826" height="297" style="fill: white;"></rect><defs><clipPath id="clip1"><rect x="0" y="0" width="15.3" height="155.17856666666668"></rect></clipPath><clipPath id="clip2"><rect x="0" y="0" width="15.3" height="167.82606666666666"></rect></clipPath><clipPath id="clip3"><rect x="0" y="0" width="15.3" height="167.04206666666667"></rect></clipPath><clipPath id="clip4"><rect x="0" y="0" width="15.3" height="161.54448333333335"></rect></clipPath><clipPath id="clip5"><rect x="0" y="0" width="15.3" height="155.40406666666667"></rect></clipPath><clipPath id="clip6"><rect x="0" y="0" width="15.3" height="158.64178333333334"></rect></clipPath><clipPath id="clip7"><rect x="0" y="0" width="15.3" height="168.65493333333333"></rect></clipPath><clipPath id="clip8"><rect x="0" y="0" width="15.3" height="193.92745"></rect></clipPath><clipPath id="clip9"><rect x="0" y="0" width="15.3" height="191.4763"></rect></clipPath><clipPath id="clip10"><rect x="0" y="0" width="15.3" height="171.02088333333333"></rect></clipPath><clipPath id="clip11"><rect x="0" y="0" width="15.3" height="148.51888333333335"></rect></clipPath><clipPath id="clip12"><rect x="0" y="0" width="15.3" height="115.35446666666667"></rect></clipPath><clipPath id="clip13"><rect x="0" y="0" width="15.3" height="94.48268333333333"></rect></clipPath><clipPath id="clip14"><rect x="0" y="0" width="15.3" height="80.07973333333334"></rect></clipPath><clipPath id="clip15"><rect x="0" y="0" width="15.3" height="86.41425000000001"></rect></clipPath><clipPath id="clip16"><rect x="0" y="0" width="15.3" height="72.59406666666666"></rect></clipPath><clipPath id="clip17"><rect x="0" y="0" width="15.3" height="53.69829999999999"></rect></clipPath><clipPath id="clip18"><rect x="0" y="0" width="15.3" height="33.01926666666668"></rect></clipPath><clipPath id="clip19"><rect x="0" y="0" width="15.3" height="17.743016666666676"></rect></clipPath><clipPath id="clip20"><rect x="0" y="0" width="15.3" height="162.25633333333334"></rect></clipPath><clipPath id="clip21"><rect x="0" y="0" width="15.3" height="175.8691"></rect></clipPath><clipPath id="clip22"><rect x="0" y="0" width="15.3" height="176.05388333333335"></rect></clipPath><clipPath id="clip23"><rect x="0" y="0" width="15.3" height="170.62365"></rect></clipPath><clipPath id="clip24"><rect x="0" y="0" width="15.3" height="162.18858333333333"></rect></clipPath><clipPath id="clip25"><rect x="0" y="0" width="15.3" height="160.99155000000002"></rect></clipPath><clipPath id="clip26"><rect x="0" y="0" width="15.3" height="170.09798333333333"></rect></clipPath><clipPath id="clip27"><rect x="0" y="0" width="15.3" height="191.25303333333335"></rect></clipPath><clipPath id="clip28"><rect x="0" y="0" width="15.3" height="188.67086666666665"></rect></clipPath><clipPath id="clip29"><rect x="0" y="0" width="15.3" height="165.41676666666666"></rect></clipPath><clipPath id="clip30"><rect x="0" y="0" width="15.3" height="141.7989"></rect></clipPath><clipPath id="clip31"><rect x="0" y="0" width="15.3" height="107.65136666666666"></rect></clipPath><clipPath id="clip32"><rect x="0" y="0" width="15.3" height="85.38998333333333"></rect></clipPath><clipPath id="clip33"><rect x="0" y="0" width="15.3" height="74.22705"></rect></clipPath><clipPath id="clip34"><rect x="0" y="0" width="15.3" height="63.202416666666664"></rect></clipPath><clipPath id="clip35"><rect x="0" y="0" width="15.3" height="48.544250000000005"></rect></clipPath><clipPath id="clip36"><rect x="0" y="0" width="15.3" height="31.710633333333334"></rect></clipPath><clipPath id="clip37"><rect x="0" y="0" width="15.3" height="16.17261666666667"></rect></clipPath><clipPath id="clip38"><rect x="0" y="0" width="15.3" height="5.605050000000006"></rect></clipPath></defs><g transform="translate(82,57)"><g class="mark-group role-frame root"><g transform="translate(0,0)"><path class="background" d="M0,0h0v0h0Z" style="fill: none;"></path><g><g class="mark-group role-column-title column-title"><g transform="translate(334,-31)"><path class="background" d="M0,0h0v0h0Z" style="fill: none;"></path><g><g class="mark-group role-title"><g transform="translate(0,-21)"><path class="background" d="M0,0h0v0h0Z" style="pointer-events: none; fill: none;"></path><g><g class="mark-text role-title-text" style="pointer-events: none;"><text text-anchor="middle" transform="translate(0,9)" style="font-family: sans-serif; font-size: 11px; font-weight: bold; fill: #000; opacity: 1;">gender</text></g></g></g></g></g></g></g><g class="mark-group role-row-header row_header"><g transform="translate(-1,0)"><path class="background" d="M0,0h0v200h0Z" style="fill: none;"></path><g><g class="mark-group role-axis"><g transform="translate(0.5,0.5)"><path class="background" d="M0,0h0v0h0Z" style="pointer-events: none; fill: none;"></path><g><g class="mark-rule role-axis-tick" style="pointer-events: none;"><line transform="translate(0,200)" x2="-5" y2="0" style="fill: none; stroke: #888; stroke-width: 1; opacity: 1;"></line><line transform="translate(0,167)" x2="-5" y2="0" style="fill: none; stroke: #888; stroke-width: 1; opacity: 1;"></line><line transform="translate(0,133)" x2="-5" y2="0" style="fill: none; stroke: #888; stroke-width: 1; opacity: 1;"></line><line transform="translate(0,100)" x2="-5" y2="0" style="fill: none; stroke: #888; stroke-width: 1; opacity: 1;"></line><line transform="translate(0,67)" x2="-5" y2="0" style="fill: none; stroke: #888; stroke-width: 1; opacity: 1;"></line><line transform="translate(0,33)" x2="-5" y2="0" style="fill: none; stroke: #888; stroke-width: 1; opacity: 1;"></line><line transform="translate(0,0)" x2="-5" y2="0" style="fill: none; stroke: #888; stroke-width: 1; opacity: 1;"></line></g><g class="mark-text role-axis-label" style="pointer-events: none;"><text text-anchor="end" transform="translate(-7,203)" style="font-family: sans-serif; font-size: 10px; fill: #000; opacity: 1;">0</text><text text-anchor="end" transform="translate(-7,169.66666666666669)" style="font-family: sans-serif; font-size: 10px; fill: #000; opacity: 1;">2,000,000</text><text text-anchor="end" transform="translate(-7,136.33333333333334)" style="font-family: sans-serif; font-size: 10px; fill: #000; opacity: 1;">4,000,000</text><text text-anchor="end" transform="translate(-7,103)" style="font-family: sans-serif; font-size: 10px; fill: #000; opacity: 1;">6,000,000</text><text text-anchor="end" transform="translate(-7,69.66666666666669)" style="font-family: sans-serif; font-size: 10px; fill: #000; opacity: 1;">8,000,000</text><text text-anchor="end" transform="translate(-7,36.333333333333314)" style="font-family: sans-serif; font-size: 10px; fill: #000; opacity: 1;">10,000,000</text><text text-anchor="end" transform="translate(-7,3)" style="font-family: sans-serif; font-size: 10px; fill: #000; opacity: 1;">12,000,000</text></g><g class="mark-rule role-axis-domain" style="pointer-events: none;"><line transform="translate(0,200)" x2="0" y2="-200" style="fill: none; stroke: #888; stroke-width: 1; opacity: 1;"></line></g><g class="mark-text role-axis-title" style="pointer-events: none;"><text text-anchor="middle" transform="translate(-65,100) rotate(-90) translate(0,-2)" style="font-family: sans-serif; font-size: 11px; font-weight: bold; fill: #000; opacity: 1;">population</text></g></g></g></g></g></g></g><g class="mark-group role-column-header column_header"><g transform="translate(0,-1)"><path class="background" d="M0,0h323v0h-323Z" style="fill: none;"></path><g><g class="mark-group role-title"><g transform="translate(161.5,-20)"><path class="background" d="M0,0h0v0h0Z" style="pointer-events: none; fill: none;"></path><g><g class="mark-text role-title-text" style="pointer-events: none;"><text text-anchor="middle" transform="translate(0,8)" style="font-family: sans-serif; font-size: 10px; fill: #000; opacity: 1;">Female</text></g></g></g></g></g></g><g transform="translate(345,-1)"><path class="background" d="M0,0h323v0h-323Z" style="fill: none;"></path><g><g class="mark-group role-title"><g transform="translate(161.5,-20)"><path class="background" d="M0,0h0v0h0Z" style="pointer-events: none; fill: none;"></path><g><g class="mark-text role-title-text" style="pointer-events: none;"><text text-anchor="middle" transform="translate(0,8)" style="font-family: sans-serif; font-size: 10px; fill: #000; opacity: 1;">Male</text></g></g></g></g></g></g></g><g class="mark-group role-scope cell"><g transform="translate(0,0)"><path class="background" d="M0.5,0.5h323v200h-323Z" style="fill: yellow; stroke: #ddd;"></path><g><g class="mark-group role-axis"><g transform="translate(0.5,0.5)"><path class="background" d="M0,0h0v0h0Z" style="pointer-events: none; fill: none;"></path><g><g class="mark-rule role-axis-grid" style="pointer-events: none;"><line transform="translate(0,200)" x2="323" y2="0" style="fill: none; stroke: #ddd; stroke-width: 1; opacity: 1;"></line><line transform="translate(0,167)" x2="323" y2="0" style="fill: none; stroke: #ddd; stroke-width: 1; opacity: 1;"></line><line transform="translate(0,133)" x2="323" y2="0" style="fill: none; stroke: #ddd; stroke-width: 1; opacity: 1;"></line><line transform="translate(0,100)" x2="323" y2="0" style="fill: none; stroke: #ddd; stroke-width: 1; opacity: 1;"></line><line transform="translate(0,67)" x2="323" y2="0" style="fill: none; stroke: #ddd; stroke-width: 1; opacity: 1;"></line><line transform="translate(0,33)" x2="323" y2="0" style="fill: none; stroke: #ddd; stroke-width: 1; opacity: 1;"></line><line transform="translate(0,0)" x2="323" y2="0" style="fill: none; stroke: #ddd; stroke-width: 1; opacity: 1;"></line></g></g></g></g><g class="mark-group role-axis"><g transform="translate(0.5,200.5)"><path class="background" d="M0,0h0v0h0Z" style="pointer-events: none; fill: none;"></path><g><g class="mark-rule role-axis-tick" style="pointer-events: none;"><line transform="translate(8,0)" x2="0" y2="5" style="fill: none; stroke: #888; stroke-width: 1; opacity: 1;"></line><line transform="translate(25,0)" x2="0" y2="5" style="fill: none; stroke: #888; stroke-width: 1; opacity: 1;"></line><line transform="translate(42,0)" x2="0" y2="5" style="fill: none; stroke: #888; stroke-width: 1; opacity: 1;"></line><line transform="translate(59,0)" x2="0" y2="5" style="fill: none; stroke: #888; stroke-width: 1; opacity: 1;"></line><line transform="translate(76,0)" x2="0" y2="5" style="fill: none; stroke: #888; stroke-width: 1; opacity: 1;"></line><line transform="translate(93,0)" x2="0" y2="5" style="fill: none; stroke: #888; stroke-width: 1; opacity: 1;"></line><line transform="translate(110,0)" x2="0" y2="5" style="fill: none; stroke: #888; stroke-width: 1; opacity: 1;"></line><line transform="translate(127,0)" x2="0" y2="5" style="fill: none; stroke: #888; stroke-width: 1; opacity: 1;"></line><line transform="translate(144,0)" x2="0" y2="5" style="fill: none; stroke: #888; stroke-width: 1; opacity: 1;"></line><line transform="translate(161,0)" x2="0" y2="5" style="fill: none; stroke: #888; stroke-width: 1; opacity: 1;"></line><line transform="translate(178,0)" x2="0" y2="5" style="fill: none; stroke: #888; stroke-width: 1; opacity: 1;"></line><line transform="translate(195,0)" x2="0" y2="5" style="fill: none; stroke: #888; stroke-width: 1; opacity: 1;"></line><line transform="translate(212,0)" x2="0" y2="5" style="fill: none; stroke: #888; stroke-width: 1; opacity: 1;"></line><line transform="translate(229,0)" x2="0" y2="5" style="fill: none; stroke: #888; stroke-width: 1; opacity: 1;"></line><line transform="translate(246,0)" x2="0" y2="5" style="fill: none; stroke: #888; stroke-width: 1; opacity: 1;"></line><line transform="translate(263,0)" x2="0" y2="5" style="fill: none; stroke: #888; stroke-width: 1; opacity: 1;"></line><line transform="translate(280,0)" x2="0" y2="5" style="fill: none; stroke: #888; stroke-width: 1; opacity: 1;"></line><line transform="translate(297,0)" x2="0" y2="5" style="fill: none; stroke: #888; stroke-width: 1; opacity: 1;"></line><line transform="translate(314,0)" x2="0" y2="5" style="fill: none; stroke: #888; stroke-width: 1; opacity: 1;"></line></g><g class="mark-text role-axis-label" style="pointer-events: none;"><text text-anchor="end" transform="translate(8.000000000000023,7) rotate(270) translate(0,3)" style="font-family: sans-serif; font-size: 10px; fill: #000; opacity: 1;">0</text><text text-anchor="end" transform="translate(25.00000000000002,7) rotate(270) translate(0,3)" style="font-family: sans-serif; font-size: 10px; fill: #000; opacity: 1;">5</text><text text-anchor="end" transform="translate(42.00000000000002,7) rotate(270) translate(0,3)" style="font-family: sans-serif; font-size: 10px; fill: #000; opacity: 1;">10</text><text text-anchor="end" transform="translate(59.00000000000002,7) rotate(270) translate(0,3)" style="font-family: sans-serif; font-size: 10px; fill: #000; opacity: 1;">15</text><text text-anchor="end" transform="translate(76.00000000000003,7) rotate(270) translate(0,3)" style="font-family: sans-serif; font-size: 10px; fill: #000; opacity: 1;">20</text><text text-anchor="end" transform="translate(93.00000000000003,7) rotate(270) translate(0,3)" style="font-family: sans-serif; font-size: 10px; fill: #000; opacity: 1;">25</text><text text-anchor="end" transform="translate(110.00000000000003,7) rotate(270) translate(0,3)" style="font-family: sans-serif; font-size: 10px; fill: #000; opacity: 1;">30</text><text text-anchor="end" transform="translate(127.00000000000003,7) rotate(270) translate(0,3)" style="font-family: sans-serif; font-size: 10px; fill: #000; opacity: 1;">35</text><text text-anchor="end" transform="translate(144.00000000000003,7) rotate(270) translate(0,3)" style="font-family: sans-serif; font-size: 10px; fill: #000; opacity: 1;">40</text><text text-anchor="end" transform="translate(161.00000000000003,7) rotate(270) translate(0,3)" style="font-family: sans-serif; font-size: 10px; fill: #000; opacity: 1;">45</text><text text-anchor="end" transform="translate(178.00000000000003,7) rotate(270) translate(0,3)" style="font-family: sans-serif; font-size: 10px; fill: #000; opacity: 1;">50</text><text text-anchor="end" transform="translate(195.00000000000003,7) rotate(270) translate(0,3)" style="font-family: sans-serif; font-size: 10px; fill: #000; opacity: 1;">55</text><text text-anchor="end" transform="translate(212.00000000000003,7) rotate(270) translate(0,3)" style="font-family: sans-serif; font-size: 10px; fill: #000; opacity: 1;">60</text><text text-anchor="end" transform="translate(229.00000000000003,7) rotate(270) translate(0,3)" style="font-family: sans-serif; font-size: 10px; fill: #000; opacity: 1;">65</text><text text-anchor="end" transform="translate(246.00000000000003,7) rotate(270) translate(0,3)" style="font-family: sans-serif; font-size: 10px; fill: #000; opacity: 1;">70</text><text text-anchor="end" transform="translate(263,7) rotate(270) translate(0,3)" style="font-family: sans-serif; font-size: 10px; fill: #000; opacity: 1;">75</text><text text-anchor="end" transform="translate(280,7) rotate(270) translate(0,3)" style="font-family: sans-serif; font-size: 10px; fill: #000; opacity: 1;">80</text><text text-anchor="end" transform="translate(297,7) rotate(270) translate(0,3)" style="font-family: sans-serif; font-size: 10px; fill: #000; opacity: 1;">85</text><text text-anchor="end" transform="translate(314,7) rotate(270) translate(0,3)" style="font-family: sans-serif; font-size: 10px; fill: #000; opacity: 1;">90</text></g><g class="mark-rule role-axis-domain" style="pointer-events: none;"><line transform="translate(0,0)" x2="323" y2="0" style="fill: none; stroke: #888; stroke-width: 1; opacity: 1;"></line></g><g class="mark-text role-axis-title" style="pointer-events: none;"><text text-anchor="middle" transform="translate(161.5,32.00000000000001)" style="font-family: sans-serif; font-size: 11px; font-weight: bold; fill: #000; opacity: 1;">age</text></g></g></g></g><g class="mark-group role-scope"><g transform="translate(0.8500000000000227,44.82143333333332)"><path class="background" d="M0,0h15.3v155.17856666666668h-15.3Z" style="fill: none;"></path><g clip-path="url(#clip1)"><g class="mark-group role-scope"><g transform="translate(0,-44.82143333333332)"><path class="background" d="M0,0h15.3v0h-15.3Z" style="fill: none;"></path><g><g class="mark-rect role-mark child_marks"><path d="M0,44.82143333333332h15.3v155.17856666666668h-15.3Z" style="fill: #675193;"></path></g></g></g></g></g></g><g transform="translate(17.850000000000023,32.17393333333334)"><path class="background" d="M0,0h15.3v167.82606666666666h-15.3Z" style="fill: none;"></path><g clip-path="url(#clip2)"><g class="mark-group role-scope"><g transform="translate(0,-32.17393333333334)"><path class="background" d="M0,0h15.3v0h-15.3Z" style="fill: none;"></path><g><g class="mark-rect role-mark child_marks"><path d="M0,32.17393333333334h15.3v167.82606666666666h-15.3Z" style="fill: #675193;"></path></g></g></g></g></g></g><g transform="translate(34.85000000000002,32.95793333333333)"><path class="background" d="M0,0h15.3v167.04206666666667h-15.3Z" style="fill: none;"></path><g clip-path="url(#clip3)"><g class="mark-group role-scope"><g transform="translate(0,-32.95793333333333)"><path class="background" d="M0,0h15.3v0h-15.3Z" style="fill: none;"></path><g><g class="mark-rect role-mark child_marks"><path d="M0,32.95793333333333h15.3v167.04206666666667h-15.3Z" style="fill: #675193;"></path></g></g></g></g></g></g><g transform="translate(51.85000000000002,38.455516666666654)"><path class="background" d="M0,0h15.3v161.54448333333335h-15.3Z" style="fill: none;"></path><g clip-path="url(#clip4)"><g class="mark-group role-scope"><g transform="translate(0,-38.455516666666654)"><path class="background" d="M0,0h15.3v0h-15.3Z" style="fill: none;"></path><g><g class="mark-rect role-mark child_marks"><path d="M0,38.455516666666654h15.3v161.54448333333335h-15.3Z" style="fill: #675193;"></path></g></g></g></g></g></g><g transform="translate(68.85000000000002,44.595933333333335)"><path class="background" d="M0,0h15.3v155.40406666666667h-15.3Z" style="fill: none;"></path><g clip-path="url(#clip5)"><g class="mark-group role-scope"><g transform="translate(0,-44.595933333333335)"><path class="background" d="M0,0h15.3v0h-15.3Z" style="fill: none;"></path><g><g class="mark-rect role-mark child_marks"><path d="M0,44.595933333333335h15.3v155.40406666666667h-15.3Z" style="fill: #675193;"></path></g></g></g></g></g></g><g transform="translate(85.85000000000002,41.358216666666664)"><path class="background" d="M0,0h15.3v158.64178333333334h-15.3Z" style="fill: none;"></path><g clip-path="url(#clip6)"><g class="mark-group role-scope"><g transform="translate(0,-41.358216666666664)"><path class="background" d="M0,0h15.3v0h-15.3Z" style="fill: none;"></path><g><g class="mark-rect role-mark child_marks"><path d="M0,41.358216666666664h15.3v158.64178333333334h-15.3Z" style="fill: #675193;"></path></g></g></g></g></g></g><g transform="translate(102.85000000000002,31.345066666666668)"><path class="background" d="M0,0h15.3v168.65493333333333h-15.3Z" style="fill: none;"></path><g clip-path="url(#clip7)"><g class="mark-group role-scope"><g transform="translate(0,-31.345066666666668)"><path class="background" d="M0,0h15.3v0h-15.3Z" style="fill: none;"></path><g><g class="mark-rect role-mark child_marks"><path d="M0,31.345066666666668h15.3v168.65493333333333h-15.3Z" style="fill: #675193;"></path></g></g></g></g></g></g><g transform="translate(119.85000000000002,6.072550000000007)"><path class="background" d="M0,0h15.3v193.92745h-15.3Z" style="fill: none;"></path><g clip-path="url(#clip8)"><g class="mark-group role-scope"><g transform="translate(0,-6.072550000000007)"><path class="background" d="M0,0h15.3v0h-15.3Z" style="fill: none;"></path><g><g class="mark-rect role-mark child_marks"><path d="M0,6.072550000000007h15.3v193.92745h-15.3Z" style="fill: #675193;"></path></g></g></g></g></g></g><g transform="translate(136.85000000000002,8.523699999999991)"><path class="background" d="M0,0h15.3v191.4763h-15.3Z" style="fill: none;"></path><g clip-path="url(#clip9)"><g class="mark-group role-scope"><g transform="translate(0,-8.523699999999991)"><path class="background" d="M0,0h15.3v0h-15.3Z" style="fill: none;"></path><g><g class="mark-rect role-mark child_marks"><path d="M0,8.523699999999991h15.3v191.4763h-15.3Z" style="fill: #675193;"></path></g></g></g></g></g></g><g transform="translate(153.85000000000002,28.97911666666667)"><path class="background" d="M0,0h15.3v171.02088333333333h-15.3Z" style="fill: none;"></path><g clip-path="url(#clip10)"><g class="mark-group role-scope"><g transform="translate(0,-28.97911666666667)"><path class="background" d="M0,0h15.3v0h-15.3Z" style="fill: none;"></path><g><g class="mark-rect role-mark child_marks"><path d="M0,28.97911666666667h15.3v171.02088333333333h-15.3Z" style="fill: #675193;"></path></g></g></g></g></g></g><g transform="translate(170.85000000000002,51.48111666666665)"><path class="background" d="M0,0h15.3v148.51888333333335h-15.3Z" style="fill: none;"></path><g clip-path="url(#clip11)"><g class="mark-group role-scope"><g transform="translate(0,-51.48111666666665)"><path class="background" d="M0,0h15.3v0h-15.3Z" style="fill: none;"></path><g><g class="mark-rect role-mark child_marks"><path d="M0,51.48111666666665h15.3v148.51888333333335h-15.3Z" style="fill: #675193;"></path></g></g></g></g></g></g><g transform="translate(187.85000000000002,84.64553333333333)"><path class="background" d="M0,0h15.3v115.35446666666667h-15.3Z" style="fill: none;"></path><g clip-path="url(#clip12)"><g class="mark-group role-scope"><g transform="translate(0,-84.64553333333333)"><path class="background" d="M0,0h15.3v0h-15.3Z" style="fill: none;"></path><g><g class="mark-rect role-mark child_marks"><path d="M0,84.64553333333333h15.3v115.35446666666667h-15.3Z" style="fill: #675193;"></path></g></g></g></g></g></g><g transform="translate(204.85000000000002,105.51731666666667)"><path class="background" d="M0,0h15.3v94.48268333333333h-15.3Z" style="fill: none;"></path><g clip-path="url(#clip13)"><g class="mark-group role-scope"><g transform="translate(0,-105.51731666666667)"><path class="background" d="M0,0h15.3v0h-15.3Z" style="fill: none;"></path><g><g class="mark-rect role-mark child_marks"><path d="M0,105.51731666666667h15.3v94.48268333333333h-15.3Z" style="fill: #675193;"></path></g></g></g></g></g></g><g transform="translate(221.85000000000002,119.92026666666666)"><path class="background" d="M0,0h15.3v80.07973333333334h-15.3Z" style="fill: none;"></path><g clip-path="url(#clip14)"><g class="mark-group role-scope"><g transform="translate(0,-119.92026666666666)"><path class="background" d="M0,0h15.3v0h-15.3Z" style="fill: none;"></path><g><g class="mark-rect role-mark child_marks"><path d="M0,119.92026666666666h15.3v80.07973333333334h-15.3Z" style="fill: #675193;"></path></g></g></g></g></g></g><g transform="translate(238.85000000000002,113.58574999999999)"><path class="background" d="M0,0h15.3v86.41425000000001h-15.3Z" style="fill: none;"></path><g clip-path="url(#clip15)"><g class="mark-group role-scope"><g transform="translate(0,-113.58574999999999)"><path class="background" d="M0,0h15.3v0h-15.3Z" style="fill: none;"></path><g><g class="mark-rect role-mark child_marks"><path d="M0,113.58574999999999h15.3v86.41425000000001h-15.3Z" style="fill: #675193;"></path></g></g></g></g></g></g><g transform="translate(255.85000000000002,127.40593333333334)"><path class="background" d="M0,0h15.3v72.59406666666666h-15.3Z" style="fill: none;"></path><g clip-path="url(#clip16)"><g class="mark-group role-scope"><g transform="translate(0,-127.40593333333334)"><path class="background" d="M0,0h15.3v0h-15.3Z" style="fill: none;"></path><g><g class="mark-rect role-mark child_marks"><path d="M0,127.40593333333334h15.3v72.59406666666666h-15.3Z" style="fill: #675193;"></path></g></g></g></g></g></g><g transform="translate(272.85,146.3017)"><path class="background" d="M0,0h15.3v53.69829999999999h-15.3Z" style="fill: none;"></path><g clip-path="url(#clip17)"><g class="mark-group role-scope"><g transform="translate(0,-146.3017)"><path class="background" d="M0,0h15.3v0h-15.3Z" style="fill: none;"></path><g><g class="mark-rect role-mark child_marks"><path d="M0,146.3017h15.3v53.69829999999999h-15.3Z" style="fill: #675193;"></path></g></g></g></g></g></g><g transform="translate(289.85,166.98073333333332)"><path class="background" d="M0,0h15.3v33.01926666666668h-15.3Z" style="fill: none;"></path><g clip-path="url(#clip18)"><g class="mark-group role-scope"><g transform="translate(0,-166.98073333333332)"><path class="background" d="M0,0h15.3v0h-15.3Z" style="fill: none;"></path><g><g class="mark-rect role-mark child_marks"><path d="M0,166.98073333333332h15.3v33.01926666666668h-15.3Z" style="fill: #675193;"></path></g></g></g></g></g></g><g transform="translate(306.85,182.25698333333332)"><path class="background" d="M0,0h15.3v17.743016666666676h-15.3Z" style="fill: none;"></path><g clip-path="url(#clip19)"><g class="mark-group role-scope"><g transform="translate(0,-182.25698333333332)"><path class="background" d="M0,0h15.3v0h-15.3Z" style="fill: none;"></path><g><g class="mark-rect role-mark child_marks"><path d="M0,182.25698333333332h15.3v17.743016666666676h-15.3Z" style="fill: #675193;"></path></g></g></g></g></g></g></g></g></g><g transform="translate(345,0)"><path class="background" d="M0.5,0.5h323v200h-323Z" style="fill: yellow; stroke: #ddd;"></path><g><g class="mark-group role-axis"><g transform="translate(0.5,0.5)"><path class="background" d="M0,0h0v0h0Z" style="pointer-events: none; fill: none;"></path><g><g class="mark-rule role-axis-grid" style="pointer-events: none;"><line transform="translate(0,200)" x2="323" y2="0" style="fill: none; stroke: #ddd; stroke-width: 1; opacity: 1;"></line><line transform="translate(0,167)" x2="323" y2="0" style="fill: none; stroke: #ddd; stroke-width: 1; opacity: 1;"></line><line transform="translate(0,133)" x2="323" y2="0" style="fill: none; stroke: #ddd; stroke-width: 1; opacity: 1;"></line><line transform="translate(0,100)" x2="323" y2="0" style="fill: none; stroke: #ddd; stroke-width: 1; opacity: 1;"></line><line transform="translate(0,67)" x2="323" y2="0" style="fill: none; stroke: #ddd; stroke-width: 1; opacity: 1;"></line><line transform="translate(0,33)" x2="323" y2="0" style="fill: none; stroke: #ddd; stroke-width: 1; opacity: 1;"></line><line transform="translate(0,0)" x2="323" y2="0" style="fill: none; stroke: #ddd; stroke-width: 1; opacity: 1;"></line></g></g></g></g><g class="mark-group role-axis"><g transform="translate(0.5,200.5)"><path class="background" d="M0,0h0v0h0Z" style="pointer-events: none; fill: none;"></path><g><g class="mark-rule role-axis-tick" style="pointer-events: none;"><line transform="translate(8,0)" x2="0" y2="5" style="fill: none; stroke: #888; stroke-width: 1; opacity: 1;"></line><line transform="translate(25,0)" x2="0" y2="5" style="fill: none; stroke: #888; stroke-width: 1; opacity: 1;"></line><line transform="translate(42,0)" x2="0" y2="5" style="fill: none; stroke: #888; stroke-width: 1; opacity: 1;"></line><line transform="translate(59,0)" x2="0" y2="5" style="fill: none; stroke: #888; stroke-width: 1; opacity: 1;"></line><line transform="translate(76,0)" x2="0" y2="5" style="fill: none; stroke: #888; stroke-width: 1; opacity: 1;"></line><line transform="translate(93,0)" x2="0" y2="5" style="fill: none; stroke: #888; stroke-width: 1; opacity: 1;"></line><line transform="translate(110,0)" x2="0" y2="5" style="fill: none; stroke: #888; stroke-width: 1; opacity: 1;"></line><line transform="translate(127,0)" x2="0" y2="5" style="fill: none; stroke: #888; stroke-width: 1; opacity: 1;"></line><line transform="translate(144,0)" x2="0" y2="5" style="fill: none; stroke: #888; stroke-width: 1; opacity: 1;"></line><line transform="translate(161,0)" x2="0" y2="5" style="fill: none; stroke: #888; stroke-width: 1; opacity: 1;"></line><line transform="translate(178,0)" x2="0" y2="5" style="fill: none; stroke: #888; stroke-width: 1; opacity: 1;"></line><line transform="translate(195,0)" x2="0" y2="5" style="fill: none; stroke: #888; stroke-width: 1; opacity: 1;"></line><line transform="translate(212,0)" x2="0" y2="5" style="fill: none; stroke: #888; stroke-width: 1; opacity: 1;"></line><line transform="translate(229,0)" x2="0" y2="5" style="fill: none; stroke: #888; stroke-width: 1; opacity: 1;"></line><line transform="translate(246,0)" x2="0" y2="5" style="fill: none; stroke: #888; stroke-width: 1; opacity: 1;"></line><line transform="translate(263,0)" x2="0" y2="5" style="fill: none; stroke: #888; stroke-width: 1; opacity: 1;"></line><line transform="translate(280,0)" x2="0" y2="5" style="fill: none; stroke: #888; stroke-width: 1; opacity: 1;"></line><line transform="translate(297,0)" x2="0" y2="5" style="fill: none; stroke: #888; stroke-width: 1; opacity: 1;"></line><line transform="translate(314,0)" x2="0" y2="5" style="fill: none; stroke: #888; stroke-width: 1; opacity: 1;"></line></g><g class="mark-text role-axis-label" style="pointer-events: none;"><text text-anchor="end" transform="translate(8.000000000000023,7) rotate(270) translate(0,3)" style="font-family: sans-serif; font-size: 10px; fill: #000; opacity: 1;">0</text><text text-anchor="end" transform="translate(25.00000000000002,7) rotate(270) translate(0,3)" style="font-family: sans-serif; font-size: 10px; fill: #000; opacity: 1;">5</text><text text-anchor="end" transform="translate(42.00000000000002,7) rotate(270) translate(0,3)" style="font-family: sans-serif; font-size: 10px; fill: #000; opacity: 1;">10</text><text text-anchor="end" transform="translate(59.00000000000002,7) rotate(270) translate(0,3)" style="font-family: sans-serif; font-size: 10px; fill: #000; opacity: 1;">15</text><text text-anchor="end" transform="translate(76.00000000000003,7) rotate(270) translate(0,3)" style="font-family: sans-serif; font-size: 10px; fill: #000; opacity: 1;">20</text><text text-anchor="end" transform="translate(93.00000000000003,7) rotate(270) translate(0,3)" style="font-family: sans-serif; font-size: 10px; fill: #000; opacity: 1;">25</text><text text-anchor="end" transform="translate(110.00000000000003,7) rotate(270) translate(0,3)" style="font-family: sans-serif; font-size: 10px; fill: #000; opacity: 1;">30</text><text text-anchor="end" transform="translate(127.00000000000003,7) rotate(270) translate(0,3)" style="font-family: sans-serif; font-size: 10px; fill: #000; opacity: 1;">35</text><text text-anchor="end" transform="translate(144.00000000000003,7) rotate(270) translate(0,3)" style="font-family: sans-serif; font-size: 10px; fill: #000; opacity: 1;">40</text><text text-anchor="end" transform="translate(161.00000000000003,7) rotate(270) translate(0,3)" style="font-family: sans-serif; font-size: 10px; fill: #000; opacity: 1;">45</text><text text-anchor="end" transform="translate(178.00000000000003,7) rotate(270) translate(0,3)" style="font-family: sans-serif; font-size: 10px; fill: #000; opacity: 1;">50</text><text text-anchor="end" transform="translate(195.00000000000003,7) rotate(270) translate(0,3)" style="font-family: sans-serif; font-size: 10px; fill: #000; opacity: 1;">55</text><text text-anchor="end" transform="translate(212.00000000000003,7) rotate(270) translate(0,3)" style="font-family: sans-serif; font-size: 10px; fill: #000; opacity: 1;">60</text><text text-anchor="end" transform="translate(229.00000000000003,7) rotate(270) translate(0,3)" style="font-family: sans-serif; font-size: 10px; fill: #000; opacity: 1;">65</text><text text-anchor="end" transform="translate(246.00000000000003,7) rotate(270) translate(0,3)" style="font-family: sans-serif; font-size: 10px; fill: #000; opacity: 1;">70</text><text text-anchor="end" transform="translate(263,7) rotate(270) translate(0,3)" style="font-family: sans-serif; font-size: 10px; fill: #000; opacity: 1;">75</text><text text-anchor="end" transform="translate(280,7) rotate(270) translate(0,3)" style="font-family: sans-serif; font-size: 10px; fill: #000; opacity: 1;">80</text><text text-anchor="end" transform="translate(297,7) rotate(270) translate(0,3)" style="font-family: sans-serif; font-size: 10px; fill: #000; opacity: 1;">85</text><text text-anchor="end" transform="translate(314,7) rotate(270) translate(0,3)" style="font-family: sans-serif; font-size: 10px; fill: #000; opacity: 1;">90</text></g><g class="mark-rule role-axis-domain" style="pointer-events: none;"><line transform="translate(0,0)" x2="323" y2="0" style="fill: none; stroke: #888; stroke-width: 1; opacity: 1;"></line></g><g class="mark-text role-axis-title" style="pointer-events: none;"><text text-anchor="middle" transform="translate(161.5,32.00000000000001)" style="font-family: sans-serif; font-size: 11px; font-weight: bold; fill: #000; opacity: 1;">age</text></g></g></g></g><g class="mark-group role-scope"><g transform="translate(0.8500000000000227,37.743666666666655)"><path class="background" d="M0,0h15.3v162.25633333333334h-15.3Z" style="fill: none;"></path><g clip-path="url(#clip20)"><g class="mark-group role-scope"><g transform="translate(0,-37.743666666666655)"><path class="background" d="M0,0h15.3v0h-15.3Z" style="fill: none;"></path><g><g class="mark-rect role-mark child_marks"><path d="M0,37.743666666666655h15.3v162.25633333333334h-15.3Z" style="fill: #ca8861;"></path></g></g></g></g></g></g><g transform="translate(17.850000000000023,24.130899999999997)"><path class="background" d="M0,0h15.3v175.8691h-15.3Z" style="fill: none;"></path><g clip-path="url(#clip21)"><g class="mark-group role-scope"><g transform="translate(0,-24.130899999999997)"><path class="background" d="M0,0h15.3v0h-15.3Z" style="fill: none;"></path><g><g class="mark-rect role-mark child_marks"><path d="M0,24.130899999999997h15.3v175.8691h-15.3Z" style="fill: #ca8861;"></path></g></g></g></g></g></g><g transform="translate(34.85000000000002,23.946116666666654)"><path class="background" d="M0,0h15.3v176.05388333333335h-15.3Z" style="fill: none;"></path><g clip-path="url(#clip22)"><g class="mark-group role-scope"><g transform="translate(0,-23.946116666666654)"><path class="background" d="M0,0h15.3v0h-15.3Z" style="fill: none;"></path><g><g class="mark-rect role-mark child_marks"><path d="M0,23.946116666666654h15.3v176.05388333333335h-15.3Z" style="fill: #ca8861;"></path></g></g></g></g></g></g><g transform="translate(51.85000000000002,29.376350000000002)"><path class="background" d="M0,0h15.3v170.62365h-15.3Z" style="fill: none;"></path><g clip-path="url(#clip23)"><g class="mark-group role-scope"><g transform="translate(0,-29.376350000000002)"><path class="background" d="M0,0h15.3v0h-15.3Z" style="fill: none;"></path><g><g class="mark-rect role-mark child_marks"><path d="M0,29.376350000000002h15.3v170.62365h-15.3Z" style="fill: #ca8861;"></path></g></g></g></g></g></g><g transform="translate(68.85000000000002,37.81141666666667)"><path class="background" d="M0,0h15.3v162.18858333333333h-15.3Z" style="fill: none;"></path><g clip-path="url(#clip24)"><g class="mark-group role-scope"><g transform="translate(0,-37.81141666666667)"><path class="background" d="M0,0h15.3v0h-15.3Z" style="fill: none;"></path><g><g class="mark-rect role-mark child_marks"><path d="M0,37.81141666666667h15.3v162.18858333333333h-15.3Z" style="fill: #ca8861;"></path></g></g></g></g></g></g><g transform="translate(85.85000000000002,39.00844999999998)"><path class="background" d="M0,0h15.3v160.99155000000002h-15.3Z" style="fill: none;"></path><g clip-path="url(#clip25)"><g class="mark-group role-scope"><g transform="translate(0,-39.00844999999998)"><path class="background" d="M0,0h15.3v0h-15.3Z" style="fill: none;"></path><g><g class="mark-rect role-mark child_marks"><path d="M0,39.00844999999998h15.3v160.99155000000002h-15.3Z" style="fill: #ca8861;"></path></g></g></g></g></g></g><g transform="translate(102.85000000000002,29.90201666666667)"><path class="background" d="M0,0h15.3v170.09798333333333h-15.3Z" style="fill: none;"></path><g clip-path="url(#clip26)"><g class="mark-group role-scope"><g transform="translate(0,-29.90201666666667)"><path class="background" d="M0,0h15.3v0h-15.3Z" style="fill: none;"></path><g><g class="mark-rect role-mark child_marks"><path d="M0,29.90201666666667h15.3v170.09798333333333h-15.3Z" style="fill: #ca8861;"></path></g></g></g></g></g></g><g transform="translate(119.85000000000002,8.746966666666651)"><path class="background" d="M0,0h15.3v191.25303333333335h-15.3Z" style="fill: none;"></path><g clip-path="url(#clip27)"><g class="mark-group role-scope"><g transform="translate(0,-8.746966666666651)"><path class="background" d="M0,0h15.3v0h-15.3Z" style="fill: none;"></path><g><g class="mark-rect role-mark child_marks"><path d="M0,8.746966666666651h15.3v191.25303333333335h-15.3Z" style="fill: #ca8861;"></path></g></g></g></g></g></g><g transform="translate(136.85000000000002,11.329133333333345)"><path class="background" d="M0,0h15.3v188.67086666666665h-15.3Z" style="fill: none;"></path><g clip-path="url(#clip28)"><g class="mark-group role-scope"><g transform="translate(0,-11.329133333333345)"><path class="background" d="M0,0h15.3v0h-15.3Z" style="fill: none;"></path><g><g class="mark-rect role-mark child_marks"><path d="M0,11.329133333333345h15.3v188.67086666666665h-15.3Z" style="fill: #ca8861;"></path></g></g></g></g></g></g><g transform="translate(153.85000000000002,34.58323333333334)"><path class="background" d="M0,0h15.3v165.41676666666666h-15.3Z" style="fill: none;"></path><g clip-path="url(#clip29)"><g class="mark-group role-scope"><g transform="translate(0,-34.58323333333334)"><path class="background" d="M0,0h15.3v0h-15.3Z" style="fill: none;"></path><g><g class="mark-rect role-mark child_marks"><path d="M0,34.58323333333334h15.3v165.41676666666666h-15.3Z" style="fill: #ca8861;"></path></g></g></g></g></g></g><g transform="translate(170.85000000000002,58.2011)"><path class="background" d="M0,0h15.3v141.7989h-15.3Z" style="fill: none;"></path><g clip-path="url(#clip30)"><g class="mark-group role-scope"><g transform="translate(0,-58.2011)"><path class="background" d="M0,0h15.3v0h-15.3Z" style="fill: none;"></path><g><g class="mark-rect role-mark child_marks"><path d="M0,58.2011h15.3v141.7989h-15.3Z" style="fill: #ca8861;"></path></g></g></g></g></g></g><g transform="translate(187.85000000000002,92.34863333333334)"><path class="background" d="M0,0h15.3v107.65136666666666h-15.3Z" style="fill: none;"></path><g clip-path="url(#clip31)"><g class="mark-group role-scope"><g transform="translate(0,-92.34863333333334)"><path class="background" d="M0,0h15.3v0h-15.3Z" style="fill: none;"></path><g><g class="mark-rect role-mark child_marks"><path d="M0,92.34863333333334h15.3v107.65136666666666h-15.3Z" style="fill: #ca8861;"></path></g></g></g></g></g></g><g transform="translate(204.85000000000002,114.61001666666667)"><path class="background" d="M0,0h15.3v85.38998333333333h-15.3Z" style="fill: none;"></path><g clip-path="url(#clip32)"><g class="mark-group role-scope"><g transform="translate(0,-114.61001666666667)"><path class="background" d="M0,0h15.3v0h-15.3Z" style="fill: none;"></path><g><g class="mark-rect role-mark child_marks"><path d="M0,114.61001666666667h15.3v85.38998333333333h-15.3Z" style="fill: #ca8861;"></path></g></g></g></g></g></g><g transform="translate(221.85000000000002,125.77295)"><path class="background" d="M0,0h15.3v74.22705h-15.3Z" style="fill: none;"></path><g clip-path="url(#clip33)"><g class="mark-group role-scope"><g transform="translate(0,-125.77295)"><path class="background" d="M0,0h15.3v0h-15.3Z" style="fill: none;"></path><g><g class="mark-rect role-mark child_marks"><path d="M0,125.77295h15.3v74.22705h-15.3Z" style="fill: #ca8861;"></path></g></g></g></g></g></g><g transform="translate(238.85000000000002,136.79758333333334)"><path class="background" d="M0,0h15.3v63.202416666666664h-15.3Z" style="fill: none;"></path><g clip-path="url(#clip34)"><g class="mark-group role-scope"><g transform="translate(0,-136.79758333333334)"><path class="background" d="M0,0h15.3v0h-15.3Z" style="fill: none;"></path><g><g class="mark-rect role-mark child_marks"><path d="M0,136.79758333333334h15.3v63.202416666666664h-15.3Z" style="fill: #ca8861;"></path></g></g></g></g></g></g><g transform="translate(255.85000000000002,151.45575)"><path class="background" d="M0,0h15.3v48.544250000000005h-15.3Z" style="fill: none;"></path><g clip-path="url(#clip35)"><g class="mark-group role-scope"><g transform="translate(0,-151.45575)"><path class="background" d="M0,0h15.3v0h-15.3Z" style="fill: none;"></path><g><g class="mark-rect role-mark child_marks"><path d="M0,151.45575h15.3v48.544250000000005h-15.3Z" style="fill: #ca8861;"></path></g></g></g></g></g></g><g transform="translate(272.85,168.28936666666667)"><path class="background" d="M0,0h15.3v31.710633333333334h-15.3Z" style="fill: none;"></path><g clip-path="url(#clip36)"><g class="mark-group role-scope"><g transform="translate(0,-168.28936666666667)"><path class="background" d="M0,0h15.3v0h-15.3Z" style="fill: none;"></path><g><g class="mark-rect role-mark child_marks"><path d="M0,168.28936666666667h15.3v31.710633333333334h-15.3Z" style="fill: #ca8861;"></path></g></g></g></g></g></g><g transform="translate(289.85,183.82738333333333)"><path class="background" d="M0,0h15.3v16.17261666666667h-15.3Z" style="fill: none;"></path><g clip-path="url(#clip37)"><g class="mark-group role-scope"><g transform="translate(0,-183.82738333333333)"><path class="background" d="M0,0h15.3v0h-15.3Z" style="fill: none;"></path><g><g class="mark-rect role-mark child_marks"><path d="M0,183.82738333333333h15.3v16.17261666666667h-15.3Z" style="fill: #ca8861;"></path></g></g></g></g></g></g><g transform="translate(306.85,194.39495)"><path class="background" d="M0,0h15.3v5.605050000000006h-15.3Z" style="fill: none;"></path><g clip-path="url(#clip38)"><g class="mark-group role-scope"><g transform="translate(0,-194.39495)"><path class="background" d="M0,0h15.3v0h-15.3Z" style="fill: none;"></path><g><g class="mark-rect role-mark child_marks"><path d="M0,194.39495h15.3v5.605050000000006h-15.3Z" style="fill: #ca8861;"></path></g></g></g></g></g></g></g></g></g></g><g class="mark-group role-legend"><g transform="translate(687,0)"><path class="background" d="M0,0h52v40h-52Z" style="pointer-events: none; fill: none;"></path><g><g class="mark-group role-legend-entry"><g transform="translate(0,16)"><path class="background" d="M0,0h0v0h0Z" style="pointer-events: none; fill: none;"></path><g><g class="mark-group role-scope"><g transform="translate(0,0)"><path class="background" d="M0,0h52v11h-52Z" style="pointer-events: none; fill: none; opacity: 1;"></path><g><g class="mark-symbol role-legend-symbol" style="pointer-events: none;"><path transform="translate(6,6)" d="M-5,-5h10v10h-10Z" style="fill: #675193; stroke-width: 1.5; opacity: 1;"></path></g><g class="mark-text role-legend-label" style="pointer-events: none;"><text text-anchor="start" transform="translate(16,9)" style="font-family: sans-serif; font-size: 10px; fill: #000; opacity: 1;">Female</text></g></g></g><g transform="translate(0,13)"><path class="background" d="M0,0h52v11h-52Z" style="pointer-events: none; fill: none; opacity: 1;"></path><g><g class="mark-symbol role-legend-symbol" style="pointer-events: none;"><path transform="translate(6,6)" d="M-5,-5h10v10h-10Z" style="fill: #ca8861; stroke-width: 1.5; opacity: 1;"></path></g><g class="mark-text role-legend-label" style="pointer-events: none;"><text text-anchor="start" transform="translate(16,9)" style="font-family: sans-serif; font-size: 10px; fill: #000; opacity: 1;">Male</text></g></g></g></g></g></g></g><g class="mark-text role-legend-title" style="pointer-events: none;"><text text-anchor="start" transform="translate(0,9)" style="font-family: sans-serif; font-size: 11px; font-weight: bold; fill: #000; opacity: 1;">gender</text></g></g></g></g></g></g></g></g></svg>