<svg class="marks" width="428" height="242" viewBox="0 0 428 242" version="1.1" xmlns="http://www.w3.org/2000/svg" xmlns:xlink="http://www.w3.org/1999/xlink"><rect width="428" height="242" style="fill: white;"></rect><defs><clipPath id="clip1"><rect x="0" y="0" width="151.02667200000002" height="18"></rect></clipPath><clipPath id="clip2"><rect x="0" y="0" width="160.03999600000003" height="18"></rect></clipPath><clipPath id="clip3"><rect x="0" y="0" width="145.81333200000003" height="18"></rect></clipPath><clipPath id="clip4"><rect x="0" y="0" width="158.693324" height="18"></rect></clipPath><clipPath id="clip5"><rect x="0" y="0" width="189.11996799999997" height="18"></rect></clipPath><clipPath id="clip6"><rect x="0" y="0" width="172.066676" height="18"></rect></clipPath><clipPath id="clip7"><rect x="0" y="0" width="169.81334800000002" height="18"></rect></clipPath><clipPath id="clip8"><rect x="0" y="0" width="164.066668" height="18"></rect></clipPath><clipPath id="clip9"><rect x="0" y="0" width="152.453332" height="18"></rect></clipPath><clipPath id="clip10"><rect x="0" y="0" width="189.09334" height="18"></rect></clipPath></defs><g transform="translate(111,5)"><g class="mark-group role-frame root"><g transform="translate(0,0)"><path class="background" d="M0.5,0.5h200v200h-200Z" style="fill: none; stroke: #ddd;"></path><g><g class="mark-group role-axis"><g transform="translate(0.5,200.5)"><path class="background" d="M0,0h0v0h0Z" style="pointer-events: none; fill: none;"></path><g><g class="mark-rule role-axis-grid" style="pointer-events: none;"><line transform="translate(0,0)" x2="0" y2="-200" style="fill: none; stroke: #ddd; stroke-width: 1; opacity: 1;"></line><line transform="translate(40,0)" x2="0" y2="-200" style="fill: none; stroke: #ddd; stroke-width: 1; opacity: 1;"></line><line transform="translate(80,0)" x2="0" y2="-200" style="fill: none; stroke: #ddd; stroke-width: 1; opacity: 1;"></line><line transform="translate(120,0)" x2="0" y2="-200" style="fill: none; stroke: #ddd; stroke-width: 1; opacity: 1;"></line><line transform="translate(160,0)" x2="0" y2="-200" style="fill: none; stroke: #ddd; stroke-width: 1; opacity: 1;"></line><line transform="translate(200,0)" x2="0" y2="-200" style="fill: none; stroke: #ddd; stroke-width: 1; opacity: 1;"></line></g></g></g></g><g class="mark-group role-axis"><g transform="translate(0.5,200.5)"><path class="background" d="M0,0h0v0h0Z" style="pointer-events: none; fill: none;"></path><g><g class="mark-rule role-axis-tick" style="pointer-events: none;"><line transform="translate(0,0)" x2="0" y2="5" style="fill: none; stroke: #888; stroke-width: 1; opacity: 1;"></line><line transform="translate(40,0)" x2="0" y2="5" style="fill: none; stroke: #888; stroke-width: 1; opacity: 1;"></line><line transform="translate(80,0)" x2="0" y2="5" style="fill: none; stroke: #888; stroke-width: 1; opacity: 1;"></line><line transform="translate(120,0)" x2="0" y2="5" style="fill: none; stroke: #888; stroke-width: 1; opacity: 1;"></line><line transform="translate(160,0)" x2="0" y2="5" style="fill: none; stroke: #888; stroke-width: 1; opacity: 1;"></line><line transform="translate(200,0)" x2="0" y2="5" style="fill: none; stroke: #888; stroke-width: 1; opacity: 1;"></line></g><g class="mark-text role-axis-label" style="pointer-events: none;"><text text-anchor="start" transform="translate(0,15)" style="font-family: sans-serif; font-size: 10px; fill: #000; opacity: 1;">0</text><text text-anchor="middle" transform="translate(40,15)" style="font-family: sans-serif; font-size: 10px; fill: #000; opacity: 1;">100</text><text text-anchor="middle" transform="translate(80,15)" style="font-family: sans-serif; font-size: 10px; fill: #000; opacity: 1;">200</text><text text-anchor="middle" transform="translate(120,15)" style="font-family: sans-serif; font-size: 10px; fill: #000; opacity: 1;">300</text><text text-anchor="middle" transform="translate(160,15)" style="font-family: sans-serif; font-size: 10px; fill: #000; opacity: 1;">400</text><text text-anchor="end" transform="translate(200,15)" style="font-family: sans-serif; font-size: 10px; fill: #000; opacity: 1;">500</text></g><g class="mark-rule role-axis-domain" style="pointer-events: none;"><line transform="translate(0,0)" x2="200" y2="0" style="fill: none; stroke: #888; stroke-width: 1; opacity: 1;"></line></g><g class="mark-text role-axis-title" style="pointer-events: none;"><text text-anchor="middle" transform="translate(100,30)" style="font-family: sans-serif; font-size: 11px; font-weight: bold; fill: #000; opacity: 1;">Sum of yield</text></g></g></g></g><g class="mark-group role-axis"><g transform="translate(0.5,0.5)"><path class="background" d="M0,0h0v0h0Z" style="pointer-events: none; fill: none;"></path><g><g class="mark-rule role-axis-tick" style="pointer-events: none;"><line transform="translate(0,10)" x2="-5" y2="0" style="fill: none; stroke: #888; stroke-width: 1; opacity: 1;"></line><line transform="translate(0,30)" x2="-5" y2="0" style="fill: none; stroke: #888; stroke-width: 1; opacity: 1;"></line><line transform="translate(0,50)" x2="-5" y2="0" style="fill: none; stroke: #888; stroke-width: 1; opacity: 1;"></line><line transform="translate(0,70)" x2="-5" y2="0" style="fill: none; stroke: #888; stroke-width: 1; opacity: 1;"></line><line transform="translate(0,90)" x2="-5" y2="0" style="fill: none; stroke: #888; stroke-width: 1; opacity: 1;"></line><line transform="translate(0,110)" x2="-5" y2="0" style="fill: none; stroke: #888; stroke-width: 1; opacity: 1;"></line><line transform="translate(0,130)" x2="-5" y2="0" style="fill: none; stroke: #888; stroke-width: 1; opacity: 1;"></line><line transform="translate(0,150)" x2="-5" y2="0" style="fill: none; stroke: #888; stroke-width: 1; opacity: 1;"></line><line transform="translate(0,170)" x2="-5" y2="0" style="fill: none; stroke: #888; stroke-width: 1; opacity: 1;"></line><line transform="translate(0,190)" x2="-5" y2="0" style="fill: none; stroke: #888; stroke-width: 1; opacity: 1;"></line></g><g class="mark-text role-axis-label" style="pointer-events: none;"><text text-anchor="end" transform="translate(-7,12.5)" style="font-family: sans-serif; font-size: 10px; fill: #000; opacity: 1;">Glabron</text><text text-anchor="end" transform="translate(-7,32.5)" style="font-family: sans-serif; font-size: 10px; fill: #000; opacity: 1;">Manchuria</text><text text-anchor="end" transform="translate(-7,52.5)" style="font-family: sans-serif; font-size: 10px; fill: #000; opacity: 1;">No. 457</text><text text-anchor="end" transform="translate(-7,72.5)" style="font-family: sans-serif; font-size: 10px; fill: #000; opacity: 1;">No. 462</text><text text-anchor="end" transform="translate(-7,92.5)" style="font-family: sans-serif; font-size: 10px; fill: #000; opacity: 1;">No. 475</text><text text-anchor="end" transform="translate(-7,112.5)" style="font-family: sans-serif; font-size: 10px; fill: #000; opacity: 1;">Peatland</text><text text-anchor="end" transform="translate(-7,132.5)" style="font-family: sans-serif; font-size: 10px; fill: #000; opacity: 1;">Svansota</text><text text-anchor="end" transform="translate(-7,152.5)" style="font-family: sans-serif; font-size: 10px; fill: #000; opacity: 1;">Trebi</text><text text-anchor="end" transform="translate(-7,172.5)" style="font-family: sans-serif; font-size: 10px; fill: #000; opacity: 1;">Velvet</text><text text-anchor="end" transform="translate(-7,192.5)" style="font-family: sans-serif; font-size: 10px; fill: #000; opacity: 1;">Wisconsin No. 38</text></g><g class="mark-rule role-axis-domain" style="pointer-events: none;"><line transform="translate(0,0)" x2="0" y2="200" style="fill: none; stroke: #888; stroke-width: 1; opacity: 1;"></line></g><g class="mark-text role-axis-title" style="pointer-events: none;"><text text-anchor="middle" transform="translate(-95,100) rotate(-90) translate(0,-2)" style="font-family: sans-serif; font-size: 11px; font-weight: bold; fill: #000; opacity: 1;">variety</text></g></g></g></g><g class="mark-group role-scope"><g transform="translate(0,21)"><path class="background" d="M0,0h151.02667200000002v18h-151.02667200000002Z" style="fill: none;"></path><g clip-path="url(#clip1)"><g class="mark-group role-scope"><g transform="translate(0,0)"><path class="background" d="M0,0h0v0h0Z" style="fill: none;"></path><g><g class="mark-rect role-mark marks"><path d="M32.933336,0h21.56000000000001v18h-21.56000000000001Z" style="fill: #54a24b;"></path><path d="M0,0h32.933336v18h-32.933336Z" style="fill: #eeca3b;"></path><path d="M54.493336000000006,0h24.71999999999999v18h-24.71999999999999Z" style="fill: #72b7b2;"></path><path d="M121.866672,0h29.160000000000025v18h-29.160000000000025Z" style="fill: #4c78a8;"></path><path d="M79.213336,0h22.039999999999992v18h-22.039999999999992Z" style="fill: #e45756;"></path><path d="M101.25333599999999,0h20.613336000000004v18h-20.613336000000004Z" style="fill: #f58518;"></path></g></g></g></g></g></g><g transform="translate(0,1)"><path class="background" d="M0,0h160.03999600000003v18h-160.03999600000003Z" style="fill: none;"></path><g clip-path="url(#clip2)"><g class="mark-group role-scope"><g transform="translate(0,0)"><path class="background" d="M0,0h0v0h0Z" style="fill: none;"></path><g><g class="mark-rect role-mark marks"><path d="M37.173332,0h31.946664v18h-31.946664Z" style="fill: #54a24b;"></path><path d="M0,0h37.173332v18h-37.173332Z" style="fill: #eeca3b;"></path><path d="M69.119996,0h25.560000000000016v18h-25.560000000000016Z" style="fill: #72b7b2;"></path><path d="M134.31999600000003,0h25.72v18h-25.72Z" style="fill: #4c78a8;"></path><path d="M94.67999600000002,0h17.426663999999988v18h-17.426663999999988Z" style="fill: #e45756;"></path><path d="M112.10666,0h22.213336000000027v18h-22.213336000000027Z" style="fill: #f58518;"></path></g></g></g></g></g></g><g transform="translate(0,121)"><path class="background" d="M0,0h145.81333200000003v18h-145.81333200000003Z" style="fill: none;"></path><g clip-path="url(#clip3)"><g class="mark-group role-scope"><g transform="translate(0,0)"><path class="background" d="M0,0h0v0h0Z" style="fill: none;"></path><g><g class="mark-rect role-mark marks"><path d="M34.33333199999999,0h25.026668v18h-25.026668Z" style="fill: #54a24b;"></path><path d="M0,0h34.33333199999999v18h-34.33333199999999Z" style="fill: #eeca3b;"></path><path d="M59.35999999999999,0h24.32v18h-24.32Z" style="fill: #72b7b2;"></path><path d="M121.373332,0h24.440000000000026v18h-24.440000000000026Z" style="fill: #4c78a8;"></path><path d="M83.67999999999999,0h18.52000000000001v18h-18.52000000000001Z" style="fill: #e45756;"></path><path d="M102.2,0h19.173332000000002v18h-19.173332000000002Z" style="fill: #f58518;"></path></g></g></g></g></g></g><g transform="translate(0,161)"><path class="background" d="M0,0h158.693324v18h-158.693324Z" style="fill: none;"></path><g clip-path="url(#clip4)"><g class="mark-group role-scope"><g transform="translate(0,0)"><path class="background" d="M0,0h0v0h0Z" style="fill: none;"></path><g><g class="mark-rect role-mark marks"><path d="M35.053332,0h26.68v18h-26.68Z" style="fill: #54a24b;"></path><path d="M0,0h35.053332v18h-35.053332Z" style="fill: #eeca3b;"></path><path d="M61.733332,0h25.986663999999998v18h-25.986663999999998Z" style="fill: #72b7b2;"></path><path d="M129.333328,0h29.359995999999995v18h-29.359995999999995Z" style="fill: #4c78a8;"></path><path d="M87.719996,0h22.106663999999995v18h-22.106663999999995Z" style="fill: #e45756;"></path><path d="M109.82665999999999,0h19.506668000000005v18h-19.506668000000005Z" style="fill: #f58518;"></path></g></g></g></g></g></g><g transform="translate(0,141)"><path class="background" d="M0,0h189.11996799999997v18h-189.11996799999997Z" style="fill: none;"></path><g clip-path="url(#clip5)"><g class="mark-group role-scope"><g transform="translate(0,0)"><path class="background" d="M0,0h0v0h0Z" style="fill: none;"></path><g><g class="mark-rect role-mark marks"><path d="M45.226639999999996,0h26.253332000000007v18h-26.253332000000007Z" style="fill: #54a24b;"></path><path d="M0,0h45.226639999999996v18h-45.226639999999996Z" style="fill: #eeca3b;"></path><path d="M71.479972,0h36.16v18h-36.16Z" style="fill: #72b7b2;"></path><path d="M153.61330399999997,0h35.506664v18h-35.506664Z" style="fill: #4c78a8;"></path><path d="M107.639972,0h20.159999999999968v18h-20.159999999999968Z" style="fill: #e45756;"></path><path d="M127.79997199999997,0h25.813332000000003v18h-25.813332000000003Z" style="fill: #f58518;"></path></g></g></g></g></g></g><g transform="translate(0,41)"><path class="background" d="M0,0h172.066676v18h-172.066676Z" style="fill: none;"></path><g clip-path="url(#clip6)"><g class="mark-group role-scope"><g transform="translate(0,0)"><path class="background" d="M0,0h0v0h0Z" style="fill: none;"></path><g><g class="mark-rect role-mark marks"><path d="M40.120000000000005,0h27.880004v18h-27.880004Z" style="fill: #54a24b;"></path><path d="M0,0h40.120000000000005v18h-40.120000000000005Z" style="fill: #eeca3b;"></path><path d="M68.000004,0h28.893336000000005v18h-28.893336000000005Z" style="fill: #72b7b2;"></path><path d="M140.066676,0h32v18h-32Z" style="fill: #4c78a8;"></path><path d="M96.89334000000001,0h20.65333599999998v18h-20.65333599999998Z" style="fill: #e45756;"></path><path d="M117.54667599999999,0h22.52000000000001v18h-22.52000000000001Z" style="fill: #f58518;"></path></g></g></g></g></g></g><g transform="translate(0,61)"><path class="background" d="M0,0h169.81334800000002v18h-169.81334800000002Z" style="fill: none;"></path><g clip-path="url(#clip7)"><g class="mark-group role-scope"><g transform="translate(0,0)"><path class="background" d="M0,0h0v0h0Z" style="fill: none;"></path><g><g class="mark-rect role-mark marks"><path d="M44.18668,0h24.866667999999997v18h-24.866667999999997Z" style="fill: #54a24b;"></path><path d="M0,0h44.18668v18h-44.18668Z" style="fill: #eeca3b;"></path><path d="M69.053348,0h30.946668000000017v18h-30.946668000000017Z" style="fill: #72b7b2;"></path><path d="M138.17335200000002,0h31.639995999999996v18h-31.639995999999996Z" style="fill: #4c78a8;"></path><path d="M100.00001600000002,0h17.933335999999997v18h-17.933335999999997Z" style="fill: #e45756;"></path><path d="M117.93335200000001,0h20.24000000000001v18h-20.24000000000001Z" style="fill: #f58518;"></path></g></g></g></g></g></g><g transform="translate(0,101)"><path class="background" d="M0,0h164.066668v18h-164.066668Z" style="fill: none;"></path><g clip-path="url(#clip8)"><g class="mark-group role-scope"><g transform="translate(0,0)"><path class="background" d="M0,0h0v0h0Z" style="fill: none;"></path><g><g class="mark-rect role-mark marks"><path d="M33.83999599999999,0h24.333335999999996v18h-24.333335999999996Z" style="fill: #54a24b;"></path><path d="M0,0h33.83999599999999v18h-33.83999599999999Z" style="fill: #eeca3b;"></path><path d="M58.17333199999999,0h29.226668000000018v18h-29.226668000000018Z" style="fill: #72b7b2;"></path><path d="M137.33333600000003,0h26.73333199999996v18h-26.73333199999996Z" style="fill: #4c78a8;"></path><path d="M87.4,0h24.586668000000003v18h-24.586668000000003Z" style="fill: #e45756;"></path><path d="M111.98666800000001,0h25.346668000000022v18h-25.346668000000022Z" style="fill: #f58518;"></path></g></g></g></g></g></g><g transform="translate(0,81)"><path class="background" d="M0,0h152.453332v18h-152.453332Z" style="fill: none;"></path><g clip-path="url(#clip9)"><g class="mark-group role-scope"><g transform="translate(0,0)"><path class="background" d="M0,0h0v0h0Z" style="fill: none;"></path><g><g class="mark-rect role-mark marks"><path d="M35.213336,0h21.866667999999997v18h-21.866667999999997Z" style="fill: #54a24b;"></path><path d="M0,0h35.213336v18h-35.213336Z" style="fill: #eeca3b;"></path><path d="M57.080003999999995,0h26.73333200000001v18h-26.73333200000001Z" style="fill: #72b7b2;"></path><path d="M121.96000000000002,0h30.493331999999967v18h-30.493331999999967Z" style="fill: #4c78a8;"></path><path d="M83.813336,0h13.973332v18h-13.973332Z" style="fill: #e45756;"></path><path d="M97.786668,0h24.173332000000016v18h-24.173332000000016Z" style="fill: #f58518;"></path></g></g></g></g></g></g><g transform="translate(0,181)"><path class="background" d="M0,0h189.09334v18h-189.09334Z" style="fill: none;"></path><g clip-path="url(#clip10)"><g class="mark-group role-scope"><g transform="translate(0,0)"><path class="background" d="M0,0h0v0h0Z" style="fill: none;"></path><g><g class="mark-rect role-mark marks"><path d="M46.786668,0h30.919999999999995v18h-30.919999999999995Z" style="fill: #54a24b;"></path><path d="M0,0h46.786668v18h-46.786668Z" style="fill: #eeca3b;"></path><path d="M77.706668,0h30.653335999999996v18h-30.653335999999996Z" style="fill: #72b7b2;"></path><path d="M154.78667199999998,0h34.30666800000003v18h-34.30666800000003Z" style="fill: #4c78a8;"></path><path d="M108.36000399999999,0h22.053335999999987v18h-22.053335999999987Z" style="fill: #e45756;"></path><path d="M130.41333999999998,0h24.373332000000005v18h-24.373332000000005Z" style="fill: #f58518;"></path></g></g></g></g></g></g></g><g class="mark-group role-legend"><g transform="translate(218,0)"><path class="background" d="M0,0h94v92h-94Z" style="pointer-events: none; fill: none;"></path><g><g class="mark-group role-legend-entry"><g transform="translate(0,16)"><path class="background" d="M0,0h0v0h0Z" style="pointer-events: none; fill: none;"></path><g><g class="mark-group role-scope"><g transform="translate(0,0)"><path class="background" d="M0,0h94v11h-94Z" style="pointer-events: none; fill: none; opacity: 1;"></path><g><g class="mark-symbol role-legend-symbol" style="pointer-events: none;"><path transform="translate(6,6)" d="M-5,-5h10v10h-10Z" style="fill: #4c78a8; stroke-width: 1.5; opacity: 1;"></path></g><g class="mark-text role-legend-label" style="pointer-events: none;"><text text-anchor="start" transform="translate(16,9)" style="font-family: sans-serif; font-size: 10px; fill: #000; opacity: 1;">Crookston</text></g></g></g><g transform="translate(0,13)"><path class="background" d="M0,0h94v11h-94Z" style="pointer-events: none; fill: none; opacity: 1;"></path><g><g class="mark-symbol role-legend-symbol" style="pointer-events: none;"><path transform="translate(6,6)" d="M-5,-5h10v10h-10Z" style="fill: #f58518; stroke-width: 1.5; opacity: 1;"></path></g><g class="mark-text role-legend-label" style="pointer-events: none;"><text text-anchor="start" transform="translate(16,9)" style="font-family: sans-serif; font-size: 10px; fill: #000; opacity: 1;">Duluth</text></g></g></g><g transform="translate(0,26)"><path class="background" d="M0,0h94v11h-94Z" style="pointer-events: none; fill: none; opacity: 1;"></path><g><g class="mark-symbol role-legend-symbol" style="pointer-events: none;"><path transform="translate(6,6)" d="M-5,-5h10v10h-10Z" style="fill: #e45756; stroke-width: 1.5; opacity: 1;"></path></g><g class="mark-text role-legend-label" style="pointer-events: none;"><text text-anchor="start" transform="translate(16,9)" style="font-family: sans-serif; font-size: 10px; fill: #000; opacity: 1;">Grand Rapids</text></g></g></g><g transform="translate(0,39)"><path class="background" d="M0,0h94v11h-94Z" style="pointer-events: none; fill: none; opacity: 1;"></path><g><g class="mark-symbol role-legend-symbol" style="pointer-events: none;"><path transform="translate(6,6)" d="M-5,-5h10v10h-10Z" style="fill: #72b7b2; stroke-width: 1.5; opacity: 1;"></path></g><g class="mark-text role-legend-label" style="pointer-events: none;"><text text-anchor="start" transform="translate(16,9)" style="font-family: sans-serif; font-size: 10px; fill: #000; opacity: 1;">Morris</text></g></g></g><g transform="translate(0,52)"><path class="background" d="M0,0h94v11h-94Z" style="pointer-events: none; fill: none; opacity: 1;"></path><g><g class="mark-symbol role-legend-symbol" style="pointer-events: none;"><path transform="translate(6,6)" d="M-5,-5h10v10h-10Z" style="fill: #54a24b; stroke-width: 1.5; opacity: 1;"></path></g><g class="mark-text role-legend-label" style="pointer-events: none;"><text text-anchor="start" transform="translate(16,9)" style="font-family: sans-serif; font-size: 10px; fill: #000; opacity: 1;">University Farm</text></g></g></g><g transform="translate(0,65)"><path class="background" d="M0,0h94v11h-94Z" style="pointer-events: none; fill: none; opacity: 1;"></path><g><g class="mark-symbol role-legend-symbol" style="pointer-events: none;"><path transform="translate(6,6)" d="M-5,-5h10v10h-10Z" style="fill: #eeca3b; stroke-width: 1.5; opacity: 1;"></path></g><g class="mark-text role-legend-label" style="pointer-events: none;"><text text-anchor="start" transform="translate(16,9)" style="font-family: sans-serif; font-size: 10px; fill: #000; opacity: 1;">Waseca</text></g></g></g></g></g></g></g><g class="mark-text role-legend-title" style="pointer-events: none;"><text text-anchor="start" transform="translate(0,9)" style="font-family: sans-serif; font-size: 11px; font-weight: bold; fill: #000; opacity: 1;">site</text></g></g></g></g></g></g></g></g></svg>