<svg class="marks" width="357" height="253" viewBox="0 0 357 253" version="1.1" xmlns="http://www.w3.org/2000/svg" xmlns:xlink="http://www.w3.org/1999/xlink"><rect width="357" height="253" style="fill: white;"></rect><defs><clipPath id="clip1"><rect x="0" y="0" width="0" height="190.76923076923077"></rect></clipPath><clipPath id="clip2"><rect x="0" y="0" width="0" height="173.84615384615384"></rect></clipPath><clipPath id="clip3"><rect x="0" y="0" width="0" height="190.76923076923077"></rect></clipPath><clipPath id="clip4"><rect x="0" y="0" width="0" height="184.6153846153846"></rect></clipPath><clipPath id="clip5"><rect x="0" y="0" width="0" height="190.76923076923077"></rect></clipPath><clipPath id="clip6"><rect x="0" y="0" width="0" height="184.6153846153846"></rect></clipPath><clipPath id="clip7"><rect x="0" y="0" width="0" height="190.76923076923077"></rect></clipPath><clipPath id="clip8"><rect x="0" y="0" width="0" height="190.76923076923077"></rect></clipPath><clipPath id="clip9"><rect x="0" y="0" width="0" height="184.6153846153846"></rect></clipPath><clipPath id="clip10"><rect x="0" y="0" width="0" height="190.76923076923077"></rect></clipPath><clipPath id="clip11"><rect x="0" y="0" width="0" height="184.6153846153846"></rect></clipPath><clipPath id="clip12"><rect x="0" y="0" width="0" height="190.76923076923077"></rect></clipPath></defs><g transform="translate(45,5)"><g class="mark-group role-frame root"><g transform="translate(0,0)"><path class="background" d="M0.5,0.5h240v200h-240Z" style="fill: none; stroke: #ddd;"></path><g><g class="mark-group role-axis"><g transform="translate(0.5,0.5)"><path class="background" d="M0,0h0v0h0Z" style="pointer-events: none; fill: none;"></path><g><g class="mark-rule role-axis-grid" style="pointer-events: none;"><line transform="translate(0,200)" x2="240" y2="0" style="fill: none; stroke: #ddd; stroke-width: 1; opacity: 1;"></line><line transform="translate(0,169)" x2="240" y2="0" style="fill: none; stroke: #ddd; stroke-width: 1; opacity: 1;"></line><line transform="translate(0,138)" x2="240" y2="0" style="fill: none; stroke: #ddd; stroke-width: 1; opacity: 1;"></line><line transform="translate(0,108)" x2="240" y2="0" style="fill: none; stroke: #ddd; stroke-width: 1; opacity: 1;"></line><line transform="translate(0,77)" x2="240" y2="0" style="fill: none; stroke: #ddd; stroke-width: 1; opacity: 1;"></line><line transform="translate(0,46)" x2="240" y2="0" style="fill: none; stroke: #ddd; stroke-width: 1; opacity: 1;"></line><line transform="translate(0,15)" x2="240" y2="0" style="fill: none; stroke: #ddd; stroke-width: 1; opacity: 1;"></line></g></g></g></g><g class="mark-group role-axis"><g transform="translate(0.5,200.5)"><path class="background" d="M0,0h0v0h0Z" style="pointer-events: none; fill: none;"></path><g><g class="mark-rule role-axis-tick" style="pointer-events: none;"><line transform="translate(10,0)" x2="0" y2="5" style="fill: none; stroke: #888; stroke-width: 1; opacity: 1;"></line><line transform="translate(30,0)" x2="0" y2="5" style="fill: none; stroke: #888; stroke-width: 1; opacity: 1;"></line><line transform="translate(50,0)" x2="0" y2="5" style="fill: none; stroke: #888; stroke-width: 1; opacity: 1;"></line><line transform="translate(70,0)" x2="0" y2="5" style="fill: none; stroke: #888; stroke-width: 1; opacity: 1;"></line><line transform="translate(90,0)" x2="0" y2="5" style="fill: none; stroke: #888; stroke-width: 1; opacity: 1;"></line><line transform="translate(110,0)" x2="0" y2="5" style="fill: none; stroke: #888; stroke-width: 1; opacity: 1;"></line><line transform="translate(130,0)" x2="0" y2="5" style="fill: none; stroke: #888; stroke-width: 1; opacity: 1;"></line><line transform="translate(150,0)" x2="0" y2="5" style="fill: none; stroke: #888; stroke-width: 1; opacity: 1;"></line><line transform="translate(170,0)" x2="0" y2="5" style="fill: none; stroke: #888; stroke-width: 1; opacity: 1;"></line><line transform="translate(190,0)" x2="0" y2="5" style="fill: none; stroke: #888; stroke-width: 1; opacity: 1;"></line><line transform="translate(210,0)" x2="0" y2="5" style="fill: none; stroke: #888; stroke-width: 1; opacity: 1;"></line><line transform="translate(230,0)" x2="0" y2="5" style="fill: none; stroke: #888; stroke-width: 1; opacity: 1;"></line></g><g class="mark-text role-axis-label" style="pointer-events: none;"><text text-anchor="end" transform="translate(9.5,7) rotate(270) translate(0,3)" style="font-family: sans-serif; font-size: 10px; fill: #000; opacity: 1;">Jan</text><text text-anchor="end" transform="translate(29.5,7) rotate(270) translate(0,3)" style="font-family: sans-serif; font-size: 10px; fill: #000; opacity: 1;">Feb</text><text text-anchor="end" transform="translate(49.5,7) rotate(270) translate(0,3)" style="font-family: sans-serif; font-size: 10px; fill: #000; opacity: 1;">Mar</text><text text-anchor="end" transform="translate(69.5,7) rotate(270) translate(0,3)" style="font-family: sans-serif; font-size: 10px; fill: #000; opacity: 1;">Apr</text><text text-anchor="end" transform="translate(89.5,7) rotate(270) translate(0,3)" style="font-family: sans-serif; font-size: 10px; fill: #000; opacity: 1;">May</text><text text-anchor="end" transform="translate(109.5,7) rotate(270) translate(0,3)" style="font-family: sans-serif; font-size: 10px; fill: #000; opacity: 1;">Jun</text><text text-anchor="end" transform="translate(129.5,7) rotate(270) translate(0,3)" style="font-family: sans-serif; font-size: 10px; fill: #000; opacity: 1;">Jul</text><text text-anchor="end" transform="translate(149.5,7) rotate(270) translate(0,3)" style="font-family: sans-serif; font-size: 10px; fill: #000; opacity: 1;">Aug</text><text text-anchor="end" transform="translate(169.5,7) rotate(270) translate(0,3)" style="font-family: sans-serif; font-size: 10px; fill: #000; opacity: 1;">Sep</text><text text-anchor="end" transform="translate(189.5,7) rotate(270) translate(0,3)" style="font-family: sans-serif; font-size: 10px; fill: #000; opacity: 1;">Oct</text><text text-anchor="end" transform="translate(209.5,7) rotate(270) translate(0,3)" style="font-family: sans-serif; font-size: 10px; fill: #000; opacity: 1;">Nov</text><text text-anchor="end" transform="translate(229.5,7) rotate(270) translate(0,3)" style="font-family: sans-serif; font-size: 10px; fill: #000; opacity: 1;">Dec</text></g><g class="mark-rule role-axis-domain" style="pointer-events: none;"><line transform="translate(0,0)" x2="240" y2="0" style="fill: none; stroke: #888; stroke-width: 1; opacity: 1;"></line></g><g class="mark-text role-axis-title" style="pointer-events: none;"><text text-anchor="middle" transform="translate(120,41)" style="font-family: sans-serif; font-size: 11px; font-weight: bold; fill: #000; opacity: 1;">date (month)</text></g></g></g></g><g class="mark-group role-axis"><g transform="translate(0.5,0.5)"><path class="background" d="M0,0h0v0h0Z" style="pointer-events: none; fill: none;"></path><g><g class="mark-rule role-axis-tick" style="pointer-events: none;"><line transform="translate(0,200)" x2="-5" y2="0" style="fill: none; stroke: #888; stroke-width: 1; opacity: 1;"></line><line transform="translate(0,169)" x2="-5" y2="0" style="fill: none; stroke: #888; stroke-width: 1; opacity: 1;"></line><line transform="translate(0,138)" x2="-5" y2="0" style="fill: none; stroke: #888; stroke-width: 1; opacity: 1;"></line><line transform="translate(0,108)" x2="-5" y2="0" style="fill: none; stroke: #888; stroke-width: 1; opacity: 1;"></line><line transform="translate(0,77)" x2="-5" y2="0" style="fill: none; stroke: #888; stroke-width: 1; opacity: 1;"></line><line transform="translate(0,46)" x2="-5" y2="0" style="fill: none; stroke: #888; stroke-width: 1; opacity: 1;"></line><line transform="translate(0,15)" x2="-5" y2="0" style="fill: none; stroke: #888; stroke-width: 1; opacity: 1;"></line></g><g class="mark-text role-axis-label" style="pointer-events: none;"><text text-anchor="end" transform="translate(-7,203)" style="font-family: sans-serif; font-size: 10px; fill: #000; opacity: 1;">0</text><text text-anchor="end" transform="translate(-7,172.23076923076923)" style="font-family: sans-serif; font-size: 10px; fill: #000; opacity: 1;">20</text><text text-anchor="end" transform="translate(-7,141.46153846153845)" style="font-family: sans-serif; font-size: 10px; fill: #000; opacity: 1;">40</text><text text-anchor="end" transform="translate(-7,110.6923076923077)" style="font-family: sans-serif; font-size: 10px; fill: #000; opacity: 1;">60</text><text text-anchor="end" transform="translate(-7,79.92307692307692)" style="font-family: sans-serif; font-size: 10px; fill: #000; opacity: 1;">80</text><text text-anchor="end" transform="translate(-7,49.15384615384613)" style="font-family: sans-serif; font-size: 10px; fill: #000; opacity: 1;">100</text><text text-anchor="end" transform="translate(-7,18.384615384615387)" style="font-family: sans-serif; font-size: 10px; fill: #000; opacity: 1;">120</text></g><g class="mark-rule role-axis-domain" style="pointer-events: none;"><line transform="translate(0,200)" x2="0" y2="-200" style="fill: none; stroke: #888; stroke-width: 1; opacity: 1;"></line></g><g class="mark-text role-axis-title" style="pointer-events: none;"><text text-anchor="middle" transform="translate(-29,100) rotate(-90) translate(0,-2)" style="font-family: sans-serif; font-size: 11px; font-weight: bold; fill: #000; opacity: 1;">Count of Records</text></g></g></g></g><g class="mark-group role-scope"><g transform="translate(0,9.230769230769226)"><path class="background" d="M0,0h0v190.76923076923077h0Z" style="fill: none;"></path><g clip-path="url(#clip1)"><g class="mark-group role-scope"><g transform="translate(0,-9.230769230769226)"><path class="background" d="M0,0h0v0h0Z" style="fill: none;"></path><g><g class="mark-rect role-mark marks"><path d="M0,9.230769230769226h0v15.384615384615387h0Z" style="fill: #4c78a8; opacity: 0.5;"></path><path d="M0,83.07692307692307h0v53.84615384615387h0Z" style="fill: #4c78a8; opacity: 0.5;"></path><path d="M0,149.23076923076923h0v50.769230769230774h0Z" style="fill: #4c78a8; opacity: 0.5;"></path><path d="M0,136.92307692307693h0v12.307692307692292h0Z" style="fill: #4c78a8; opacity: 0.5;"></path><path d="M0,24.615384615384613h0v58.46153846153845h0Z" style="fill: #4c78a8; opacity: 0.5;"></path></g></g></g></g></g></g><g transform="translate(0,26.15384615384616)"><path class="background" d="M0,0h0v173.84615384615384h0Z" style="fill: none;"></path><g clip-path="url(#clip2)"><g class="mark-group role-scope"><g transform="translate(0,-26.15384615384616)"><path class="background" d="M0,0h0v0h0Z" style="fill: none;"></path><g><g class="mark-rect role-mark marks"><path d="M0,87.6923076923077h0v61.53846153846153h0Z" style="fill: #4c78a8; opacity: 0.5;"></path><path d="M0,153.84615384615384h0v46.15384615384616h0Z" style="fill: #4c78a8; opacity: 0.5;"></path><path d="M0,26.15384615384616h0v6.153846153846132h0Z" style="fill: #4c78a8; opacity: 0.5;"></path><path d="M0,149.23076923076923h0v4.615384615384613h0Z" style="fill: #4c78a8; opacity: 0.5;"></path><path d="M0,32.30769230769229h0v55.3846153846154h0Z" style="fill: #4c78a8; opacity: 0.5;"></path></g></g></g></g></g></g><g transform="translate(0,9.230769230769226)"><path class="background" d="M0,0h0v190.76923076923077h0Z" style="fill: none;"></path><g clip-path="url(#clip3)"><g class="mark-group role-scope"><g transform="translate(0,-9.230769230769226)"><path class="background" d="M0,0h0v0h0Z" style="fill: none;"></path><g><g class="mark-rect role-mark marks"><path d="M0,135.3846153846154h0v64.61538461538461h0Z" style="fill: #4c78a8; opacity: 0.5;"></path><path d="M0,69.23076923076923h0v56.92307692307692h0Z" style="fill: #4c78a8; opacity: 0.5;"></path><path d="M0,126.15384615384615h0v9.23076923076924h0Z" style="fill: #4c78a8; opacity: 0.5;"></path><path d="M0,9.230769230769226h0v4.615384615384613h0Z" style="fill: #4c78a8; opacity: 0.5;"></path><path d="M0,13.84615384615384h0v55.38461538461539h0Z" style="fill: #4c78a8; opacity: 0.5;"></path></g></g></g></g></g></g><g transform="translate(0,15.384615384615387)"><path class="background" d="M0,0h0v184.6153846153846h0Z" style="fill: none;"></path><g clip-path="url(#clip4)"><g class="mark-group role-scope"><g transform="translate(0,-15.384615384615387)"><path class="background" d="M0,0h0v0h0Z" style="fill: none;"></path><g><g class="mark-rect role-mark marks"><path d="M0,73.84615384615385h0v30.76923076923076h0Z" style="fill: #4c78a8; opacity: 0.5;"></path><path d="M0,106.15384615384616h0v93.84615384615384h0Z" style="fill: #4c78a8; opacity: 0.5;"></path><path d="M0,104.61538461538461h0v1.5384615384615472h0Z" style="fill: #4c78a8; opacity: 0.5;"></path><path d="M0,15.384615384615387h0v6.153846153846132h0Z" style="fill: #4c78a8; opacity: 0.5;"></path><path d="M0,21.53846153846152h0v52.307692307692335h0Z" style="fill: #4c78a8; opacity: 0.5;"></path></g></g></g></g></g></g><g transform="translate(0,9.230769230769226)"><path class="background" d="M0,0h0v190.76923076923077h0Z" style="fill: none;"></path><g clip-path="url(#clip5)"><g class="mark-group role-scope"><g transform="translate(0,-9.230769230769226)"><path class="background" d="M0,0h0v0h0Z" style="fill: none;"></path><g><g class="mark-rect role-mark marks"><path d="M0,49.230769230769226h0v24.615384615384627h0Z" style="fill: #4c78a8; opacity: 0.5;"></path><path d="M0,73.84615384615385h0v126.15384615384615h0Z" style="fill: #4c78a8; opacity: 0.5;"></path><path d="M0,9.230769230769226h0v1.5384615384615472h0Z" style="fill: #4c78a8; opacity: 0.5;"></path><path d="M0,10.769230769230774h0v38.46153846153845h0Z" style="fill: #4c78a8; opacity: 0.5;"></path></g></g></g></g></g></g><g transform="translate(0,15.384615384615387)"><path class="background" d="M0,0h0v184.6153846153846h0Z" style="fill: none;"></path><g clip-path="url(#clip6)"><g class="mark-group role-scope"><g transform="translate(0,-15.384615384615387)"><path class="background" d="M0,0h0v0h0Z" style="fill: none;"></path><g><g class="mark-rect role-mark marks"><path d="M0,40h0v29.230769230769226h0Z" style="fill: #4c78a8; opacity: 0.5;"></path><path d="M0,69.23076923076923h0v130.76923076923077h0Z" style="fill: #4c78a8; opacity: 0.5;"></path><path d="M0,15.384615384615387h0v3.076923076923066h0Z" style="fill: #4c78a8; opacity: 0.5;"></path><path d="M0,18.461538461538453h0v21.538461538461547h0Z" style="fill: #4c78a8; opacity: 0.5;"></path></g></g></g></g></g></g><g transform="translate(0,9.230769230769226)"><path class="background" d="M0,0h0v190.76923076923077h0Z" style="fill: none;"></path><g clip-path="url(#clip7)"><g class="mark-group role-scope"><g transform="translate(0,-9.230769230769226)"><path class="background" d="M0,0h0v0h0Z" style="fill: none;"></path><g><g class="mark-rect role-mark marks"><path d="M0,41.53846153846155h0v21.53846153846152h0Z" style="fill: #4c78a8; opacity: 0.5;"></path><path d="M0,63.076923076923066h0v136.92307692307693h0Z" style="fill: #4c78a8; opacity: 0.5;"></path><path d="M0,9.230769230769226h0v12.307692307692292h0Z" style="fill: #4c78a8; opacity: 0.5;"></path><path d="M0,21.53846153846152h0v20.00000000000003h0Z" style="fill: #4c78a8; opacity: 0.5;"></path></g></g></g></g></g></g><g transform="translate(0,9.230769230769226)"><path class="background" d="M0,0h0v190.76923076923077h0Z" style="fill: none;"></path><g clip-path="url(#clip8)"><g class="mark-group role-scope"><g transform="translate(0,-9.230769230769226)"><path class="background" d="M0,0h0v0h0Z" style="fill: none;"></path><g><g class="mark-rect role-mark marks"><path d="M0,9.230769230769226h0v12.307692307692292h0Z" style="fill: #4c78a8; opacity: 0.5;"></path><path d="M0,55.38461538461539h0v144.6153846153846h0Z" style="fill: #4c78a8; opacity: 0.5;"></path><path d="M0,46.15384615384613h0v9.230769230769255h0Z" style="fill: #4c78a8; opacity: 0.5;"></path><path d="M0,21.53846153846152h0v24.615384615384613h0Z" style="fill: #4c78a8; opacity: 0.5;"></path></g></g></g></g></g></g><g transform="translate(0,15.384615384615387)"><path class="background" d="M0,0h0v184.6153846153846h0Z" style="fill: none;"></path><g clip-path="url(#clip9)"><g class="mark-group role-scope"><g transform="translate(0,-15.384615384615387)"><path class="background" d="M0,0h0v0h0Z" style="fill: none;"></path><g><g class="mark-rect role-mark marks"><path d="M0,90.76923076923077h0v109.23076923076923h0Z" style="fill: #4c78a8; opacity: 0.5;"></path><path d="M0,84.61538461538463h0v6.153846153846146h0Z" style="fill: #4c78a8; opacity: 0.5;"></path><path d="M0,23.076923076923094h0v61.53846153846153h0Z" style="fill: #4c78a8; opacity: 0.5;"></path><path d="M0,15.384615384615387h0v7.692307692307708h0Z" style="fill: #4c78a8; opacity: 0.5;"></path></g></g></g></g></g></g><g transform="translate(0,9.230769230769226)"><path class="background" d="M0,0h0v190.76923076923077h0Z" style="fill: none;"></path><g clip-path="url(#clip10)"><g class="mark-group role-scope"><g transform="translate(0,-9.230769230769226)"><path class="background" d="M0,0h0v0h0Z" style="fill: none;"></path><g><g class="mark-rect role-mark marks"><path d="M0,130.76923076923077h0v69.23076923076923h0Z" style="fill: #4c78a8; opacity: 0.5;"></path><path d="M0,9.230769230769226h0v6.15384615384616h0Z" style="fill: #4c78a8; opacity: 0.5;"></path><path d="M0,100h0v30.769230769230774h0Z" style="fill: #4c78a8; opacity: 0.5;"></path><path d="M0,15.384615384615387h0v84.61538461538461h0Z" style="fill: #4c78a8; opacity: 0.5;"></path></g></g></g></g></g></g><g transform="translate(0,15.384615384615387)"><path class="background" d="M0,0h0v184.6153846153846h0Z" style="fill: none;"></path><g clip-path="url(#clip11)"><g class="mark-group role-scope"><g transform="translate(0,-15.384615384615387)"><path class="background" d="M0,0h0v0h0Z" style="fill: none;"></path><g><g class="mark-rect role-mark marks"><path d="M0,96.92307692307693h0v38.46153846153845h0Z" style="fill: #4c78a8; opacity: 0.5;"></path><path d="M0,135.3846153846154h0v64.61538461538461h0Z" style="fill: #4c78a8; opacity: 0.5;"></path><path d="M0,15.384615384615387h0v4.615384615384613h0Z" style="fill: #4c78a8; opacity: 0.5;"></path><path d="M0,20h0v76.92307692307693h0Z" style="fill: #4c78a8; opacity: 0.5;"></path></g></g></g></g></g></g><g transform="translate(0,9.230769230769226)"><path class="background" d="M0,0h0v190.76923076923077h0Z" style="fill: none;"></path><g clip-path="url(#clip12)"><g class="mark-group role-scope"><g transform="translate(0,-9.230769230769226)"><path class="background" d="M0,0h0v0h0Z" style="fill: none;"></path><g><g class="mark-rect role-mark marks"><path d="M0,95.38461538461537h0v35.3846153846154h0Z" style="fill: #4c78a8; opacity: 0.5;"></path><path d="M0,138.46153846153845h0v61.53846153846155h0Z" style="fill: #4c78a8; opacity: 0.5;"></path><path d="M0,130.76923076923077h0v7.692307692307679h0Z" style="fill: #4c78a8; opacity: 0.5;"></path><path d="M0,9.230769230769226h0v3.0769230769230944h0Z" style="fill: #4c78a8; opacity: 0.5;"></path><path d="M0,12.30769230769232h0v83.07692307692305h0Z" style="fill: #4c78a8; opacity: 0.5;"></path></g></g></g></g></g></g></g><g class="mark-group role-legend"><g transform="translate(258,0)"><path class="background" d="M0,0h49v74h-49Z" style="pointer-events: none; fill: none;"></path><g><g class="mark-group role-legend-entry"><g transform="translate(0,16)"><path class="background" d="M0,0h0v0h0Z" style="pointer-events: none; fill: none;"></path><g><g class="mark-group role-scope"><g transform="translate(0,0)"><path class="background" d="M0,0h46v10h-46Z" style="pointer-events: none; fill: none; opacity: 1;"></path><g><g class="mark-symbol role-legend-symbol" style="pointer-events: none;"><path transform="translate(5,5)" d="M-0.7071067811865476,-0.7071067811865476h1.4142135623730951v1.4142135623730951h-1.4142135623730951Z" style="fill: #4c78a8; stroke: none; stroke-width: 1.5; opacity: 0.5;"></path></g><g class="mark-text role-legend-label" style="pointer-events: none;"><text text-anchor="start" transform="translate(14,8)" style="font-family: sans-serif; font-size: 10px; fill: #000; opacity: 1;">drizzle</text></g></g></g><g transform="translate(0,12)"><path class="background" d="M0,0h46v10h-46Z" style="pointer-events: none; fill: none; opacity: 1;"></path><g><g class="mark-symbol role-legend-symbol" style="pointer-events: none;"><path transform="translate(5,5)" d="M-1.25,-1.25h2.5v2.5h-2.5Z" style="fill: #4c78a8; stroke: none; stroke-width: 1.5; opacity: 0.5;"></path></g><g class="mark-text role-legend-label" style="pointer-events: none;"><text text-anchor="start" transform="translate(14,8)" style="font-family: sans-serif; font-size: 10px; fill: #000; opacity: 1;">fog</text></g></g></g><g transform="translate(0,24)"><path class="background" d="M0,0h46v10h-46Z" style="pointer-events: none; fill: none; opacity: 1;"></path><g><g class="mark-symbol role-legend-symbol" style="pointer-events: none;"><path transform="translate(5,5)" d="M-1.620185174601965,-1.620185174601965h3.24037034920393v3.24037034920393h-3.24037034920393Z" style="fill: #4c78a8; stroke: none; stroke-width: 1.5; opacity: 0.5;"></path></g><g class="mark-text role-legend-label" style="pointer-events: none;"><text text-anchor="start" transform="translate(14,8)" style="font-family: sans-serif; font-size: 10px; fill: #000; opacity: 1;">rain</text></g></g></g><g transform="translate(0,36)"><path class="background" d="M0,0h46v10h-46Z" style="pointer-events: none; fill: none; opacity: 1;"></path><g><g class="mark-symbol role-legend-symbol" style="pointer-events: none;"><path transform="translate(5,5)" d="M-1.920286436967152,-1.920286436967152h3.840572873934304v3.840572873934304h-3.840572873934304Z" style="fill: #4c78a8; stroke: none; stroke-width: 1.5; opacity: 0.5;"></path></g><g class="mark-text role-legend-label" style="pointer-events: none;"><text text-anchor="start" transform="translate(14,8)" style="font-family: sans-serif; font-size: 10px; fill: #000; opacity: 1;">snow</text></g></g></g><g transform="translate(0,48)"><path class="background" d="M0,0h46v10h-46Z" style="pointer-events: none; fill: none; opacity: 1;"></path><g><g class="mark-symbol role-legend-symbol" style="pointer-events: none;"><path transform="translate(5,5)" d="M-2.179449471770337,-2.179449471770337h4.358898943540674v4.358898943540674h-4.358898943540674Z" style="fill: #4c78a8; stroke: none; stroke-width: 1.5; opacity: 0.5;"></path></g><g class="mark-text role-legend-label" style="pointer-events: none;"><text text-anchor="start" transform="translate(14,8)" style="font-family: sans-serif; font-size: 10px; fill: #000; opacity: 1;">sun</text></g></g></g></g></g></g></g><g class="mark-text role-legend-title" style="pointer-events: none;"><text text-anchor="start" transform="translate(0,9)" style="font-family: sans-serif; font-size: 11px; font-weight: bold; fill: #000; opacity: 1;">weather</text></g></g></g></g></g></g></g></g></svg>