<svg class="marks" width="653" height="295" viewBox="0 0 653 295" version="1.1" xmlns="http://www.w3.org/2000/svg" xmlns:xlink="http://www.w3.org/1999/xlink"><rect width="653" height="295" style="fill: white;"></rect><defs><clipPath id="clip1"><rect x="0" y="0" width="157.82052307692308" height="18"></rect></clipPath><clipPath id="clip2"><rect x="0" y="0" width="172.28204615384618" height="18"></rect></clipPath><clipPath id="clip3"><rect x="0" y="0" width="156.97436153846155" height="18"></rect></clipPath><clipPath id="clip4"><rect x="0" y="0" width="159.17947692307692" height="18"></rect></clipPath><clipPath id="clip5"><rect x="0" y="0" width="195.99996923076924" height="18"></rect></clipPath><clipPath id="clip6"><rect x="0" y="0" width="185.76923846153846" height="18"></rect></clipPath><clipPath id="clip7"><rect x="0" y="0" width="180.25643846153847" height="18"></rect></clipPath><clipPath id="clip8"><rect x="0" y="0" width="168.8461538461538" height="18"></rect></clipPath><clipPath id="clip9"><rect x="0" y="0" width="146.84615384615384" height="18"></rect></clipPath><clipPath id="clip10"><rect x="0" y="0" width="187.30769999999998" height="18"></rect></clipPath><clipPath id="clip11"><rect x="0" y="0" width="132.6153846153846" height="18"></rect></clipPath><clipPath id="clip12"><rect x="0" y="0" width="135.48717692307693" height="18"></rect></clipPath><clipPath id="clip13"><rect x="0" y="0" width="123.4358923076923" height="18"></rect></clipPath><clipPath id="clip14"><rect x="0" y="0" width="145.99999230769228" height="18"></rect></clipPath><clipPath id="clip15"><rect x="0" y="0" width="167.69227692307692" height="18"></rect></clipPath><clipPath id="clip16"><rect x="0" y="0" width="145.12821538461537" height="18"></rect></clipPath><clipPath id="clip17"><rect x="0" y="0" width="146.30769230769232" height="18"></rect></clipPath><clipPath id="clip18"><rect x="0" y="0" width="146.6666692307692" height="18"></rect></clipPath><clipPath id="clip19"><rect x="0" y="0" width="146.33333076923077" height="18"></rect></clipPath><clipPath id="clip20"><rect x="0" y="0" width="176.3333384615385" height="18"></rect></clipPath></defs><g transform="translate(112,57)"><g class="mark-group role-frame root"><g transform="translate(0,0)"><path class="background" d="M0,0h0v0h0Z" style="fill: none;"></path><g><g class="mark-group role-column-title column-title"><g transform="translate(211,-31)"><path class="background" d="M0,0h0v0h0Z" style="fill: none;"></path><g><g class="mark-group role-title"><g transform="translate(0,-21)"><path class="background" d="M0,0h0v0h0Z" style="pointer-events: none; fill: none;"></path><g><g class="mark-text role-title-text" style="pointer-events: none;"><text text-anchor="middle" transform="translate(0,9)" style="font-family: sans-serif; font-size: 11px; font-weight: bold; fill: #000; opacity: 1;">year</text></g></g></g></g></g></g></g><g class="mark-group role-row-header row_header"><g transform="translate(-1,0)"><path class="background" d="M0,0h0v200h0Z" style="fill: none;"></path><g><g class="mark-group role-axis"><g transform="translate(0.5,0.5)"><path class="background" d="M0,0h0v0h0Z" style="pointer-events: none; fill: none;"></path><g><g class="mark-rule role-axis-tick" style="pointer-events: none;"><line transform="translate(0,10)" x2="-5" y2="0" style="fill: none; stroke: #888; stroke-width: 1; opacity: 1;"></line><line transform="translate(0,30)" x2="-5" y2="0" style="fill: none; stroke: #888; stroke-width: 1; opacity: 1;"></line><line transform="translate(0,50)" x2="-5" y2="0" style="fill: none; stroke: #888; stroke-width: 1; opacity: 1;"></line><line transform="translate(0,70)" x2="-5" y2="0" style="fill: none; stroke: #888; stroke-width: 1; opacity: 1;"></line><line transform="translate(0,90)" x2="-5" y2="0" style="fill: none; stroke: #888; stroke-width: 1; opacity: 1;"></line><line transform="translate(0,110)" x2="-5" y2="0" style="fill: none; stroke: #888; stroke-width: 1; opacity: 1;"></line><line transform="translate(0,130)" x2="-5" y2="0" style="fill: none; stroke: #888; stroke-width: 1; opacity: 1;"></line><line transform="translate(0,150)" x2="-5" y2="0" style="fill: none; stroke: #888; stroke-width: 1; opacity: 1;"></line><line transform="translate(0,170)" x2="-5" y2="0" style="fill: none; stroke: #888; stroke-width: 1; opacity: 1;"></line><line transform="translate(0,190)" x2="-5" y2="0" style="fill: none; stroke: #888; stroke-width: 1; opacity: 1;"></line></g><g class="mark-text role-axis-label" style="pointer-events: none;"><text text-anchor="end" transform="translate(-7,12.5)" style="font-family: sans-serif; font-size: 10px; fill: #000; opacity: 1;">Glabron</text><text text-anchor="end" transform="translate(-7,32.5)" style="font-family: sans-serif; font-size: 10px; fill: #000; opacity: 1;">Manchuria</text><text text-anchor="end" transform="translate(-7,52.5)" style="font-family: sans-serif; font-size: 10px; fill: #000; opacity: 1;">No. 457</text><text text-anchor="end" transform="translate(-7,72.5)" style="font-family: sans-serif; font-size: 10px; fill: #000; opacity: 1;">No. 462</text><text text-anchor="end" transform="translate(-7,92.5)" style="font-family: sans-serif; font-size: 10px; fill: #000; opacity: 1;">No. 475</text><text text-anchor="end" transform="translate(-7,112.5)" style="font-family: sans-serif; font-size: 10px; fill: #000; opacity: 1;">Peatland</text><text text-anchor="end" transform="translate(-7,132.5)" style="font-family: sans-serif; font-size: 10px; fill: #000; opacity: 1;">Svansota</text><text text-anchor="end" transform="translate(-7,152.5)" style="font-family: sans-serif; font-size: 10px; fill: #000; opacity: 1;">Trebi</text><text text-anchor="end" transform="translate(-7,172.5)" style="font-family: sans-serif; font-size: 10px; fill: #000; opacity: 1;">Velvet</text><text text-anchor="end" transform="translate(-7,192.5)" style="font-family: sans-serif; font-size: 10px; fill: #000; opacity: 1;">Wisconsin No. 38</text></g><g class="mark-rule role-axis-domain" style="pointer-events: none;"><line transform="translate(0,0)" x2="0" y2="200" style="fill: none; stroke: #888; stroke-width: 1; opacity: 1;"></line></g><g class="mark-text role-axis-title" style="pointer-events: none;"><text text-anchor="middle" transform="translate(-95,100) rotate(-90) translate(0,-2)" style="font-family: sans-serif; font-size: 11px; font-weight: bold; fill: #000; opacity: 1;">variety</text></g></g></g></g></g></g></g><g class="mark-group role-column-header column_header"><g transform="translate(0,-1)"><path class="background" d="M0,0h200v0h-200Z" style="fill: none;"></path><g><g class="mark-group role-title"><g transform="translate(100,-20)"><path class="background" d="M0,0h0v0h0Z" style="pointer-events: none; fill: none;"></path><g><g class="mark-text role-title-text" style="pointer-events: none;"><text text-anchor="middle" transform="translate(0,8)" style="font-family: sans-serif; font-size: 10px; fill: #000; opacity: 1;">1931</text></g></g></g></g></g></g><g transform="translate(222,-1)"><path class="background" d="M0,0h200v0h-200Z" style="fill: none;"></path><g><g class="mark-group role-title"><g transform="translate(100,-20)"><path class="background" d="M0,0h0v0h0Z" style="pointer-events: none; fill: none;"></path><g><g class="mark-text role-title-text" style="pointer-events: none;"><text text-anchor="middle" transform="translate(0,8)" style="font-family: sans-serif; font-size: 10px; fill: #000; opacity: 1;">1932</text></g></g></g></g></g></g></g><g class="mark-group role-column-footer column_footer"><g transform="translate(0,201)"><path class="background" d="M0,0h200v0h-200Z" style="fill: none;"></path><g><g class="mark-group role-axis"><g transform="translate(0.5,0.5)"><path class="background" d="M0,0h0v0h0Z" style="pointer-events: none; fill: none;"></path><g><g class="mark-rule role-axis-tick" style="pointer-events: none;"><line transform="translate(0,0)" x2="0" y2="5" style="fill: none; stroke: #888; stroke-width: 1; opacity: 1;"></line><line transform="translate(38,0)" x2="0" y2="5" style="fill: none; stroke: #888; stroke-width: 1; opacity: 1;"></line><line transform="translate(77,0)" x2="0" y2="5" style="fill: none; stroke: #888; stroke-width: 1; opacity: 1;"></line><line transform="translate(115,0)" x2="0" y2="5" style="fill: none; stroke: #888; stroke-width: 1; opacity: 1;"></line><line transform="translate(154,0)" x2="0" y2="5" style="fill: none; stroke: #888; stroke-width: 1; opacity: 1;"></line><line transform="translate(192,0)" x2="0" y2="5" style="fill: none; stroke: #888; stroke-width: 1; opacity: 1;"></line></g><g class="mark-text role-axis-label" style="pointer-events: none;"><text text-anchor="start" transform="translate(0,15)" style="font-family: sans-serif; font-size: 10px; fill: #000; opacity: 1;">0</text><text text-anchor="middle" transform="translate(38.46153846153847,15)" style="font-family: sans-serif; font-size: 10px; fill: #000; opacity: 1;">50</text><text text-anchor="middle" transform="translate(76.92307692307693,15)" style="font-family: sans-serif; font-size: 10px; fill: #000; opacity: 1;">100</text><text text-anchor="middle" transform="translate(115.38461538461537,15)" style="font-family: sans-serif; font-size: 10px; fill: #000; opacity: 1;">150</text><text text-anchor="middle" transform="translate(153.84615384615387,15)" style="font-family: sans-serif; font-size: 10px; fill: #000; opacity: 1;">200</text><text text-anchor="middle" transform="translate(192.30769230769232,15)" style="font-family: sans-serif; font-size: 10px; fill: #000; opacity: 1;">250</text></g><g class="mark-rule role-axis-domain" style="pointer-events: none;"><line transform="translate(0,0)" x2="200" y2="0" style="fill: none; stroke: #888; stroke-width: 1; opacity: 1;"></line></g><g class="mark-text role-axis-title" style="pointer-events: none;"><text text-anchor="middle" transform="translate(100,30)" style="font-family: sans-serif; font-size: 11px; font-weight: bold; fill: #000; opacity: 1;">Sum of yield</text></g></g></g></g></g></g><g transform="translate(222,201)"><path class="background" d="M0,0h200v0h-200Z" style="fill: none;"></path><g><g class="mark-group role-axis"><g transform="translate(0.5,0.5)"><path class="background" d="M0,0h0v0h0Z" style="pointer-events: none; fill: none;"></path><g><g class="mark-rule role-axis-tick" style="pointer-events: none;"><line transform="translate(0,0)" x2="0" y2="5" style="fill: none; stroke: #888; stroke-width: 1; opacity: 1;"></line><line transform="translate(38,0)" x2="0" y2="5" style="fill: none; stroke: #888; stroke-width: 1; opacity: 1;"></line><line transform="translate(77,0)" x2="0" y2="5" style="fill: none; stroke: #888; stroke-width: 1; opacity: 1;"></line><line transform="translate(115,0)" x2="0" y2="5" style="fill: none; stroke: #888; stroke-width: 1; opacity: 1;"></line><line transform="translate(154,0)" x2="0" y2="5" style="fill: none; stroke: #888; stroke-width: 1; opacity: 1;"></line><line transform="translate(192,0)" x2="0" y2="5" style="fill: none; stroke: #888; stroke-width: 1; opacity: 1;"></line></g><g class="mark-text role-axis-label" style="pointer-events: none;"><text text-anchor="start" transform="translate(0,15)" style="font-family: sans-serif; font-size: 10px; fill: #000; opacity: 1;">0</text><text text-anchor="middle" transform="translate(38.46153846153847,15)" style="font-family: sans-serif; font-size: 10px; fill: #000; opacity: 1;">50</text><text text-anchor="middle" transform="translate(76.92307692307693,15)" style="font-family: sans-serif; font-size: 10px; fill: #000; opacity: 1;">100</text><text text-anchor="middle" transform="translate(115.38461538461537,15)" style="font-family: sans-serif; font-size: 10px; fill: #000; opacity: 1;">150</text><text text-anchor="middle" transform="translate(153.84615384615387,15)" style="font-family: sans-serif; font-size: 10px; fill: #000; opacity: 1;">200</text><text text-anchor="middle" transform="translate(192.30769230769232,15)" style="font-family: sans-serif; font-size: 10px; fill: #000; opacity: 1;">250</text></g><g class="mark-rule role-axis-domain" style="pointer-events: none;"><line transform="translate(0,0)" x2="200" y2="0" style="fill: none; stroke: #888; stroke-width: 1; opacity: 1;"></line></g><g class="mark-text role-axis-title" style="pointer-events: none;"><text text-anchor="middle" transform="translate(100,30)" style="font-family: sans-serif; font-size: 11px; font-weight: bold; fill: #000; opacity: 1;">Sum of yield</text></g></g></g></g></g></g></g><g class="mark-group role-scope cell"><g transform="translate(0,0)"><path class="background" d="M0.5,0.5h200v200h-200Z" style="fill: none; stroke: #ddd;"></path><g><g class="mark-group role-axis"><g transform="translate(0.5,200.5)"><path class="background" d="M0,0h0v0h0Z" style="pointer-events: none; fill: none;"></path><g><g class="mark-rule role-axis-grid" style="pointer-events: none;"><line transform="translate(0,0)" x2="0" y2="-200" style="fill: none; stroke: #ddd; stroke-width: 1; opacity: 1;"></line><line transform="translate(38,0)" x2="0" y2="-200" style="fill: none; stroke: #ddd; stroke-width: 1; opacity: 1;"></line><line transform="translate(77,0)" x2="0" y2="-200" style="fill: none; stroke: #ddd; stroke-width: 1; opacity: 1;"></line><line transform="translate(115,0)" x2="0" y2="-200" style="fill: none; stroke: #ddd; stroke-width: 1; opacity: 1;"></line><line transform="translate(154,0)" x2="0" y2="-200" style="fill: none; stroke: #ddd; stroke-width: 1; opacity: 1;"></line><line transform="translate(192,0)" x2="0" y2="-200" style="fill: none; stroke: #ddd; stroke-width: 1; opacity: 1;"></line></g></g></g></g><g class="mark-group role-scope"><g transform="translate(0,21)"><path class="background" d="M0,0h157.82052307692308v18h-157.82052307692308Z" style="fill: none;"></path><g clip-path="url(#clip1)"><g class="mark-group role-scope"><g transform="translate(0,0)"><path class="background" d="M0,0h0v18h0Z" style="fill: none;"></path><g><g class="mark-rect role-mark child_marks"><path d="M37.58974615384616,0h20.769230769230766v18h-20.769230769230766Z" style="fill: #54a24b;"></path><path d="M0,0h37.58974615384616v18h-37.58974615384616Z" style="fill: #eeca3b;"></path><path d="M58.35897692307692,0h21.102569230769234v18h-21.102569230769234Z" style="fill: #72b7b2;"></path><path d="M127.10257692307691,0h30.71794615384617v18h-30.71794615384617Z" style="fill: #4c78a8;"></path><path d="M79.46154615384616,0h25.358976923076938v18h-25.358976923076938Z" style="fill: #e45756;"></path><path d="M104.8205230769231,0h22.282053846153815v18h-22.282053846153815Z" style="fill: #f58518;"></path></g></g></g></g></g></g><g transform="translate(0,1)"><path class="background" d="M0,0h172.28204615384618v18h-172.28204615384618Z" style="fill: none;"></path><g clip-path="url(#clip2)"><g class="mark-group role-scope"><g transform="translate(0,0)"><path class="background" d="M0,0h0v18h0Z" style="fill: none;"></path><g><g class="mark-rect role-mark child_marks"><path d="M42.46153846153846,0h33.1282v18h-33.1282Z" style="fill: #54a24b;"></path><path d="M0,0h42.46153846153846v18h-42.46153846153846Z" style="fill: #eeca3b;"></path><path d="M75.58973846153846,0h22.128207692307697v18h-22.128207692307697Z" style="fill: #72b7b2;"></path><path d="M142.9487153846154,0h29.33333076923077v18h-29.33333076923077Z" style="fill: #4c78a8;"></path><path d="M97.71794615384616,0h22.410253846153836v18h-22.410253846153836Z" style="fill: #e45756;"></path><path d="M120.12819999999999,0h22.82051538461542v18h-22.82051538461542Z" style="fill: #f58518;"></path></g></g></g></g></g></g><g transform="translate(0,121)"><path class="background" d="M0,0h156.97436153846155v18h-156.97436153846155Z" style="fill: none;"></path><g clip-path="url(#clip3)"><g class="mark-group role-scope"><g transform="translate(0,0)"><path class="background" d="M0,0h0v18h0Z" style="fill: none;"></path><g><g class="mark-rect role-mark child_marks"><path d="M36.41025384615384,0h27.025638461538456v18h-27.025638461538456Z" style="fill: #54a24b;"></path><path d="M0,0h36.41025384615384v18h-36.41025384615384Z" style="fill: #eeca3b;"></path><path d="M63.4358923076923,0h19.82051538461539v18h-19.82051538461539Z" style="fill: #72b7b2;"></path><path d="M125.84615384615385,0h31.128207692307697v18h-31.128207692307697Z" style="fill: #4c78a8;"></path><path d="M83.25640769230769,0h22.820515384615405v18h-22.820515384615405Z" style="fill: #e45756;"></path><path d="M106.0769230769231,0h19.76923076923076v18h-19.76923076923076Z" style="fill: #f58518;"></path></g></g></g></g></g></g><g transform="translate(0,161)"><path class="background" d="M0,0h159.17947692307692v18h-159.17947692307692Z" style="fill: none;"></path><g clip-path="url(#clip4)"><g class="mark-group role-scope"><g transform="translate(0,0)"><path class="background" d="M0,0h0v18h0Z" style="fill: none;"></path><g><g class="mark-rect role-mark child_marks"><path d="M38.641023076923084,0h30.692307692307686v18h-30.692307692307686Z" style="fill: #54a24b;"></path><path d="M0,0h38.641023076923084v18h-38.641023076923084Z" style="fill: #eeca3b;"></path><path d="M69.33333076923077,0h20.102561538461543v18h-20.102561538461543Z" style="fill: #72b7b2;"></path><path d="M127.38460769230771,0h31.79486923076921v18h-31.79486923076921Z" style="fill: #4c78a8;"></path><path d="M89.43589230769231,0h17.717946153846157v18h-17.717946153846157Z" style="fill: #e45756;"></path><path d="M107.15383846153847,0h20.23076923076924v18h-20.23076923076924Z" style="fill: #f58518;"></path></g></g></g></g></g></g><g transform="translate(0,141)"><path class="background" d="M0,0h195.99996923076924v18h-195.99996923076924Z" style="fill: none;"></path><g clip-path="url(#clip5)"><g class="mark-group role-scope"><g transform="translate(0,0)"><path class="background" d="M0,0h0v18h0Z" style="fill: none;"></path><g><g class="mark-rect role-mark child_marks"><path d="M49.102538461538465,0h28.128199999999985v18h-28.128199999999985Z" style="fill: #54a24b;"></path><path d="M0,0h49.102538461538465v18h-49.102538461538465Z" style="fill: #eeca3b;"></path><path d="M77.23073846153845,0h33.666669230769244v18h-33.666669230769244Z" style="fill: #72b7b2;"></path><path d="M159.8974076923077,0h36.10256153846154v18h-36.10256153846154Z" style="fill: #4c78a8;"></path><path d="M110.8974076923077,0h22.897438461538457v18h-22.897438461538457Z" style="fill: #e45756;"></path><path d="M133.79484615384615,0h26.102561538461543v18h-26.102561538461543Z" style="fill: #f58518;"></path></g></g></g></g></g></g><g transform="translate(0,41)"><path class="background" d="M0,0h185.76923846153846v18h-185.76923846153846Z" style="fill: none;"></path><g clip-path="url(#clip6)"><g class="mark-group role-scope"><g transform="translate(0,0)"><path class="background" d="M0,0h0v18h0Z" style="fill: none;"></path><g><g class="mark-rect role-mark child_marks"><path d="M44.69230769230769,0h33.28205384615384v18h-33.28205384615384Z" style="fill: #54a24b;"></path><path d="M0,0h44.69230769230769v18h-44.69230769230769Z" style="fill: #eeca3b;"></path><path d="M77.97436153846154,0h22.07692307692308v18h-22.07692307692308Z" style="fill: #72b7b2;"></path><path d="M150.64103076923075,0h35.12820769230771v18h-35.12820769230771Z" style="fill: #4c78a8;"></path><path d="M100.05128461538462,0h24.743592307692296v18h-24.743592307692296Z" style="fill: #e45756;"></path><path d="M124.79487692307691,0h25.84615384615384v18h-25.84615384615384Z" style="fill: #f58518;"></path></g></g></g></g></g></g><g transform="translate(0,61)"><path class="background" d="M0,0h180.25643846153847v18h-180.25643846153847Z" style="fill: none;"></path><g clip-path="url(#clip7)"><g class="mark-group role-scope"><g transform="translate(0,0)"><path class="background" d="M0,0h0v18h0Z" style="fill: none;"></path><g><g class="mark-rect role-mark child_marks"><path d="M50.589769230769235,0h28.15384615384616v18h-28.15384615384616Z" style="fill: #54a24b;"></path><path d="M0,0h50.589769230769235v18h-50.589769230769235Z" style="fill: #eeca3b;"></path><path d="M78.7436153846154,0h23.358976923076924v18h-23.358976923076924Z" style="fill: #72b7b2;"></path><path d="M142.89746923076925,0h37.35896923076922v18h-37.35896923076922Z" style="fill: #4c78a8;"></path><path d="M102.10259230769232,0h19.179492307692314v18h-19.179492307692314Z" style="fill: #e45756;"></path><path d="M121.28208461538463,0h21.615384615384613v18h-21.615384615384613Z" style="fill: #f58518;"></path></g></g></g></g></g></g><g transform="translate(0,101)"><path class="background" d="M0,0h168.8461538461538v18h-168.8461538461538Z" style="fill: none;"></path><g clip-path="url(#clip8)"><g class="mark-group role-scope"><g transform="translate(0,0)"><path class="background" d="M0,0h0v18h0Z" style="fill: none;"></path><g><g class="mark-rect role-mark child_marks"><path d="M37.358969230769226,0h25.205130769230763v18h-25.205130769230763Z" style="fill: #54a24b;"></path><path d="M0,0h37.358969230769226v18h-37.358969230769226Z" style="fill: #eeca3b;"></path><path d="M62.56409999999999,0h22.974361538461544v18h-22.974361538461544Z" style="fill: #72b7b2;"></path><path d="M136.84615384615384,0h31.99999999999997v18h-31.99999999999997Z" style="fill: #4c78a8;"></path><path d="M85.53846153846153,0h26.692307692307693v18h-26.692307692307693Z" style="fill: #e45756;"></path><path d="M112.23076923076923,0h24.615384615384613v18h-24.615384615384613Z" style="fill: #f58518;"></path></g></g></g></g></g></g><g transform="translate(0,81)"><path class="background" d="M0,0h146.84615384615384v18h-146.84615384615384Z" style="fill: none;"></path><g clip-path="url(#clip9)"><g class="mark-group role-scope"><g transform="translate(0,0)"><path class="background" d="M0,0h0v18h0Z" style="fill: none;"></path><g><g class="mark-rect role-mark child_marks"><path d="M35.97436153846154,0h18.974361538461544v18h-18.974361538461544Z" style="fill: #54a24b;"></path><path d="M0,0h35.97436153846154v18h-35.97436153846154Z" style="fill: #eeca3b;"></path><path d="M54.94872307692308,0h17.38461538461538v18h-17.38461538461538Z" style="fill: #72b7b2;"></path><path d="M112.92307692307692,0h33.92307692307692v18h-33.92307692307692Z" style="fill: #4c78a8;"></path><path d="M72.33333846153846,0h15.15384615384616v18h-15.15384615384616Z" style="fill: #e45756;"></path><path d="M87.48718461538462,0h25.4358923076923v18h-25.4358923076923Z" style="fill: #f58518;"></path></g></g></g></g></g></g><g transform="translate(0,181)"><path class="background" d="M0,0h187.30769999999998v18h-187.30769999999998Z" style="fill: none;"></path><g clip-path="url(#clip10)"><g class="mark-group role-scope"><g transform="translate(0,0)"><path class="background" d="M0,0h0v18h0Z" style="fill: none;"></path><g><g class="mark-rect role-mark child_marks"><path d="M45.230769230769226,0h30.230769230769226v18h-30.230769230769226Z" style="fill: #54a24b;"></path><path d="M0,0h45.230769230769226v18h-45.230769230769226Z" style="fill: #eeca3b;"></path><path d="M75.46153846153845,0h22.66666923076923v18h-22.66666923076923Z" style="fill: #72b7b2;"></path><path d="M148.94872307692307,0h38.35897692307691v18h-38.35897692307691Z" style="fill: #4c78a8;"></path><path d="M98.12820769230768,0h26.512823076923084v18h-26.512823076923084Z" style="fill: #e45756;"></path><path d="M124.64103076923077,0h24.307692307692307v18h-24.307692307692307Z" style="fill: #f58518;"></path></g></g></g></g></g></g></g></g></g><g transform="translate(222,0)"><path class="background" d="M0.5,0.5h200v200h-200Z" style="fill: none; stroke: #ddd;"></path><g><g class="mark-group role-axis"><g transform="translate(0.5,200.5)"><path class="background" d="M0,0h0v0h0Z" style="pointer-events: none; fill: none;"></path><g><g class="mark-rule role-axis-grid" style="pointer-events: none;"><line transform="translate(0,0)" x2="0" y2="-200" style="fill: none; stroke: #ddd; stroke-width: 1; opacity: 1;"></line><line transform="translate(38,0)" x2="0" y2="-200" style="fill: none; stroke: #ddd; stroke-width: 1; opacity: 1;"></line><line transform="translate(77,0)" x2="0" y2="-200" style="fill: none; stroke: #ddd; stroke-width: 1; opacity: 1;"></line><line transform="translate(115,0)" x2="0" y2="-200" style="fill: none; stroke: #ddd; stroke-width: 1; opacity: 1;"></line><line transform="translate(154,0)" x2="0" y2="-200" style="fill: none; stroke: #ddd; stroke-width: 1; opacity: 1;"></line><line transform="translate(192,0)" x2="0" y2="-200" style="fill: none; stroke: #ddd; stroke-width: 1; opacity: 1;"></line></g></g></g></g><g class="mark-group role-scope"><g transform="translate(0,21)"><path class="background" d="M0,0h132.6153846153846v18h-132.6153846153846Z" style="fill: none;"></path><g clip-path="url(#clip11)"><g class="mark-group role-scope"><g transform="translate(0,0)"><path class="background" d="M0,0h0v18h0Z" style="fill: none;"></path><g><g class="mark-rect role-mark child_marks"><path d="M25.74359230769231,0h20.692307692307686v18h-20.692307692307686Z" style="fill: #54a24b;"></path><path d="M0,0h25.74359230769231v18h-25.74359230769231Z" style="fill: #eeca3b;"></path><path d="M46.4359,0h26.435892307692306v18h-26.435892307692306Z" style="fill: #72b7b2;"></path><path d="M107.25640769230769,0h25.358976923076924v18h-25.358976923076924Z" style="fill: #4c78a8;"></path><path d="M72.8717923076923,0h17.025638461538463v18h-17.025638461538463Z" style="fill: #e45756;"></path><path d="M89.89743076923077,0h17.358976923076924v18h-17.358976923076924Z" style="fill: #f58518;"></path></g></g></g></g></g></g><g transform="translate(0,1)"><path class="background" d="M0,0h135.48717692307693v18h-135.48717692307693Z" style="fill: none;"></path><g clip-path="url(#clip12)"><g class="mark-group role-scope"><g transform="translate(0,0)"><path class="background" d="M0,0h0v18h0Z" style="fill: none;"></path><g><g class="mark-rect role-mark child_marks"><path d="M29.02563846153846,0h28.30769230769231v18h-28.30769230769231Z" style="fill: #54a24b;"></path><path d="M0,0h29.02563846153846v18h-29.02563846153846Z" style="fill: #eeca3b;"></path><path d="M57.33333076923077,0h27.025638461538463v18h-27.025638461538463Z" style="fill: #72b7b2;"></path><path d="M115.35896923076922,0h20.12820769230771v18h-20.12820769230771Z" style="fill: #4c78a8;"></path><path d="M84.35896923076923,0h11.102561538461543v18h-11.102561538461543Z" style="fill: #e45756;"></path><path d="M95.46153076923078,0h19.897438461538442v18h-19.897438461538442Z" style="fill: #f58518;"></path></g></g></g></g></g></g><g transform="translate(0,121)"><path class="background" d="M0,0h123.4358923076923v18h-123.4358923076923Z" style="fill: none;"></path><g clip-path="url(#clip13)"><g class="mark-group role-scope"><g transform="translate(0,0)"><path class="background" d="M0,0h0v18h0Z" style="fill: none;"></path><g><g class="mark-rect role-mark child_marks"><path d="M29.615384615384617,0h21.102569230769237v18h-21.102569230769237Z" style="fill: #54a24b;"></path><path d="M0,0h29.615384615384617v18h-29.615384615384617Z" style="fill: #eeca3b;"></path><path d="M50.717953846153854,0h26.948715384615376v18h-26.948715384615376Z" style="fill: #72b7b2;"></path><path d="M107.56409999999998,0h15.871792307692317v18h-15.871792307692317Z" style="fill: #4c78a8;"></path><path d="M77.66666923076923,0h12.794869230769223v18h-12.794869230769223Z" style="fill: #e45756;"></path><path d="M90.46153846153845,0h17.10256153846153v18h-17.10256153846153Z" style="fill: #f58518;"></path></g></g></g></g></g></g><g transform="translate(0,161)"><path class="background" d="M0,0h145.99999230769228v18h-145.99999230769228Z" style="fill: none;"></path><g clip-path="url(#clip14)"><g class="mark-group role-scope"><g transform="translate(0,0)"><path class="background" d="M0,0h0v18h0Z" style="fill: none;"></path><g><g class="mark-rect role-mark child_marks"><path d="M28.76923076923077,0h20.615384615384617v18h-20.615384615384617Z" style="fill: #54a24b;"></path><path d="M0,0h28.76923076923077v18h-28.76923076923077Z" style="fill: #eeca3b;"></path><path d="M49.38461538461539,0h29.871792307692303v18h-29.871792307692303Z" style="fill: #72b7b2;"></path><path d="M121.33333076923077,0h24.66666153846151v18h-24.66666153846151Z" style="fill: #4c78a8;"></path><path d="M79.25640769230769,0h24.794869230769223v18h-24.794869230769223Z" style="fill: #e45756;"></path><path d="M104.05127692307691,0h17.282053846153858v18h-17.282053846153858Z" style="fill: #f58518;"></path></g></g></g></g></g></g><g transform="translate(0,141)"><path class="background" d="M0,0h167.69227692307692v18h-167.69227692307692Z" style="fill: none;"></path><g clip-path="url(#clip15)"><g class="mark-group role-scope"><g transform="translate(0,0)"><path class="background" d="M0,0h0v18h0Z" style="fill: none;"></path><g><g class="mark-rect role-mark child_marks"><path d="M37.87176923076923,0h22.35897692307693v18h-22.35897692307693Z" style="fill: #54a24b;"></path><path d="M0,0h37.87176923076923v18h-37.87176923076923Z" style="fill: #eeca3b;"></path><path d="M60.23074615384616,0h35.87179230769231v18h-35.87179230769231Z" style="fill: #72b7b2;"></path><path d="M135.5127923076923,0h32.17948461538461v18h-32.17948461538461Z" style="fill: #4c78a8;"></path><path d="M96.10253846153847,0h15.871792307692303v18h-15.871792307692303Z" style="fill: #e45756;"></path><path d="M111.97433076923078,0h23.538461538461533v18h-23.538461538461533Z" style="fill: #f58518;"></path></g></g></g></g></g></g><g transform="translate(0,41)"><path class="background" d="M0,0h145.12821538461537v18h-145.12821538461537Z" style="fill: none;"></path><g clip-path="url(#clip16)"><g class="mark-group role-scope"><g transform="translate(0,0)"><path class="background" d="M0,0h0v18h0Z" style="fill: none;"></path><g><g class="mark-rect role-mark child_marks"><path d="M32.46153846153847,0h20.33333846153846v18h-20.33333846153846Z" style="fill: #54a24b;"></path><path d="M0,0h32.46153846153847v18h-32.46153846153847Z" style="fill: #eeca3b;"></path><path d="M52.79487692307693,0h33.48718461538462v18h-33.48718461538462Z" style="fill: #72b7b2;"></path><path d="M118.71796153846152,0h26.41025384615385v18h-26.41025384615385Z" style="fill: #4c78a8;"></path><path d="M86.28206153846155,0h14.974361538461537v18h-14.974361538461537Z" style="fill: #e45756;"></path><path d="M101.25642307692308,0h17.46153846153844v18h-17.46153846153844Z" style="fill: #f58518;"></path></g></g></g></g></g></g><g transform="translate(0,61)"><path class="background" d="M0,0h146.30769230769232v18h-146.30769230769232Z" style="fill: none;"></path><g clip-path="url(#clip17)"><g class="mark-group role-scope"><g transform="translate(0,0)"><path class="background" d="M0,0h0v18h0Z" style="fill: none;"></path><g><g class="mark-rect role-mark child_marks"><path d="M34.38461538461539,0h19.66666923076923v18h-19.66666923076923Z" style="fill: #54a24b;"></path><path d="M0,0h34.38461538461539v18h-34.38461538461539Z" style="fill: #eeca3b;"></path><path d="M54.05128461538462,0h36.153846153846146v18h-36.153846153846146Z" style="fill: #72b7b2;"></path><path d="M122.8205153846154,0h23.487176923076916v18h-23.487176923076916Z" style="fill: #4c78a8;"></path><path d="M90.20513076923076,0h15.30769230769232v18h-15.30769230769232Z" style="fill: #e45756;"></path><path d="M105.51282307692308,0h17.30769230769232v18h-17.30769230769232Z" style="fill: #f58518;"></path></g></g></g></g></g></g><g transform="translate(0,101)"><path class="background" d="M0,0h146.6666692307692v18h-146.6666692307692Z" style="fill: none;"></path><g clip-path="url(#clip18)"><g class="mark-group role-scope"><g transform="translate(0,0)"><path class="background" d="M0,0h0v18h0Z" style="fill: none;"></path><g><g class="mark-rect role-mark child_marks"><path d="M27.71794615384615,0h21.58974615384615v18h-21.58974615384615Z" style="fill: #54a24b;"></path><path d="M0,0h27.71794615384615v18h-27.71794615384615Z" style="fill: #eeca3b;"></path><path d="M49.3076923076923,0h33.23076923076923v18h-33.23076923076923Z" style="fill: #72b7b2;"></path><path d="M127.25641538461538,0h19.41025384615382v18h-19.41025384615382Z" style="fill: #4c78a8;"></path><path d="M82.53846153846153,0h20.58974615384615v18h-20.58974615384615Z" style="fill: #e45756;"></path><path d="M103.12820769230768,0h24.128207692307697v18h-24.128207692307697Z" style="fill: #f58518;"></path></g></g></g></g></g></g><g transform="translate(0,81)"><path class="background" d="M0,0h146.33333076923077v18h-146.33333076923077Z" style="fill: none;"></path><g clip-path="url(#clip19)"><g class="mark-group role-scope"><g transform="translate(0,0)"><path class="background" d="M0,0h0v18h0Z" style="fill: none;"></path><g><g class="mark-rect role-mark child_marks"><path d="M31.743592307692303,0h23.076923076923087v18h-23.076923076923087Z" style="fill: #54a24b;"></path><path d="M0,0h31.743592307692303v18h-31.743592307692303Z" style="fill: #eeca3b;"></path><path d="M54.82051538461539,0h34.02563846153845v18h-34.02563846153845Z" style="fill: #72b7b2;"></path><path d="M121.61538461538461,0h24.717946153846157v18h-24.717946153846157Z" style="fill: #4c78a8;"></path><path d="M88.84615384615384,0h11.717946153846157v18h-11.717946153846157Z" style="fill: #e45756;"></path><path d="M100.5641,0h21.051284615384617v18h-21.051284615384617Z" style="fill: #f58518;"></path></g></g></g></g></g></g><g transform="translate(0,181)"><path class="background" d="M0,0h176.3333384615385v18h-176.3333384615385Z" style="fill: none;"></path><g clip-path="url(#clip20)"><g class="mark-group role-scope"><g transform="translate(0,0)"><path class="background" d="M0,0h0v18h0Z" style="fill: none;"></path><g><g class="mark-rect role-mark child_marks"><path d="M44.74359230769231,0h29.230769230769226v18h-29.230769230769226Z" style="fill: #54a24b;"></path><path d="M0,0h44.74359230769231v18h-44.74359230769231Z" style="fill: #eeca3b;"></path><path d="M73.97436153846154,0h36.28205384615386v18h-36.28205384615386Z" style="fill: #72b7b2;"></path><path d="M148.71795384615388,0h27.615384615384613v18h-27.615384615384613Z" style="fill: #4c78a8;"></path><path d="M110.2564153846154,0h15.897438461538485v18h-15.897438461538485Z" style="fill: #e45756;"></path><path d="M126.15385384615388,0h22.564099999999996v18h-22.564099999999996Z" style="fill: #f58518;"></path></g></g></g></g></g></g></g></g></g></g><g class="mark-group role-legend"><g transform="translate(442,0)"><path class="background" d="M0,0h94v92h-94Z" style="pointer-events: none; fill: none;"></path><g><g class="mark-group role-legend-entry"><g transform="translate(0,16)"><path class="background" d="M0,0h0v0h0Z" style="pointer-events: none; fill: none;"></path><g><g class="mark-group role-scope"><g transform="translate(0,0)"><path class="background" d="M0,0h94v11h-94Z" style="pointer-events: none; fill: none; opacity: 1;"></path><g><g class="mark-symbol role-legend-symbol" style="pointer-events: none;"><path transform="translate(6,6)" d="M-5,-5h10v10h-10Z" style="fill: #4c78a8; stroke-width: 1.5; opacity: 1;"></path></g><g class="mark-text role-legend-label" style="pointer-events: none;"><text text-anchor="start" transform="translate(16,9)" style="font-family: sans-serif; font-size: 10px; fill: #000; opacity: 1;">Crookston</text></g></g></g><g transform="translate(0,13)"><path class="background" d="M0,0h94v11h-94Z" style="pointer-events: none; fill: none; opacity: 1;"></path><g><g class="mark-symbol role-legend-symbol" style="pointer-events: none;"><path transform="translate(6,6)" d="M-5,-5h10v10h-10Z" style="fill: #f58518; stroke-width: 1.5; opacity: 1;"></path></g><g class="mark-text role-legend-label" style="pointer-events: none;"><text text-anchor="start" transform="translate(16,9)" style="font-family: sans-serif; font-size: 10px; fill: #000; opacity: 1;">Duluth</text></g></g></g><g transform="translate(0,26)"><path class="background" d="M0,0h94v11h-94Z" style="pointer-events: none; fill: none; opacity: 1;"></path><g><g class="mark-symbol role-legend-symbol" style="pointer-events: none;"><path transform="translate(6,6)" d="M-5,-5h10v10h-10Z" style="fill: #e45756; stroke-width: 1.5; opacity: 1;"></path></g><g class="mark-text role-legend-label" style="pointer-events: none;"><text text-anchor="start" transform="translate(16,9)" style="font-family: sans-serif; font-size: 10px; fill: #000; opacity: 1;">Grand Rapids</text></g></g></g><g transform="translate(0,39)"><path class="background" d="M0,0h94v11h-94Z" style="pointer-events: none; fill: none; opacity: 1;"></path><g><g class="mark-symbol role-legend-symbol" style="pointer-events: none;"><path transform="translate(6,6)" d="M-5,-5h10v10h-10Z" style="fill: #72b7b2; stroke-width: 1.5; opacity: 1;"></path></g><g class="mark-text role-legend-label" style="pointer-events: none;"><text text-anchor="start" transform="translate(16,9)" style="font-family: sans-serif; font-size: 10px; fill: #000; opacity: 1;">Morris</text></g></g></g><g transform="translate(0,52)"><path class="background" d="M0,0h94v11h-94Z" style="pointer-events: none; fill: none; opacity: 1;"></path><g><g class="mark-symbol role-legend-symbol" style="pointer-events: none;"><path transform="translate(6,6)" d="M-5,-5h10v10h-10Z" style="fill: #54a24b; stroke-width: 1.5; opacity: 1;"></path></g><g class="mark-text role-legend-label" style="pointer-events: none;"><text text-anchor="start" transform="translate(16,9)" style="font-family: sans-serif; font-size: 10px; fill: #000; opacity: 1;">University Farm</text></g></g></g><g transform="translate(0,65)"><path class="background" d="M0,0h94v11h-94Z" style="pointer-events: none; fill: none; opacity: 1;"></path><g><g class="mark-symbol role-legend-symbol" style="pointer-events: none;"><path transform="translate(6,6)" d="M-5,-5h10v10h-10Z" style="fill: #eeca3b; stroke-width: 1.5; opacity: 1;"></path></g><g class="mark-text role-legend-label" style="pointer-events: none;"><text text-anchor="start" transform="translate(16,9)" style="font-family: sans-serif; font-size: 10px; fill: #000; opacity: 1;">Waseca</text></g></g></g></g></g></g></g><g class="mark-text role-legend-title" style="pointer-events: none;"><text text-anchor="start" transform="translate(0,9)" style="font-family: sans-serif; font-size: 11px; font-weight: bold; fill: #000; opacity: 1;">site</text></g></g></g></g></g></g></g></g></svg>